<svg width="300" height="49" viewBox="0 0 300 49" fill="none" xmlns="http://www.w3.org/2000/svg">
<g clip-path="url(#clip0_942_4436)">
<path fill-rule="evenodd" clip-rule="evenodd" d="M174.204 10.8394L174.194 10.8347C175.314 9.61226 176.554 8.31403 177.852 7.06495C176.273 6.29493 174.814 5.42208 173.402 4.57771C170.344 2.74808 167.509 1.05208 164.153 0.825108C161.551 0.664022 158.945 1.09468 156.533 2.08473C156.533 2.08473 155.229 0.314087 151.212 0.887866C147.196 1.46165 134.824 6.63014 124.28 23.4849C114.75 38.7215 119.228 47.4582 126.073 47.3639C133.492 47.2609 140.548 39.0128 142.942 32.2127C145.335 25.4125 142.511 23.5701 140.342 23.7449C137.944 23.9466 133.707 26.0804 131.376 30.7962C129.045 35.512 129.045 38.4167 129.045 38.4167C129.998 37.4171 131.034 36.5008 132.143 35.6778C133.141 34.8985 134.24 34.2592 135.411 33.777C135.685 32.5585 136.092 31.3741 136.625 30.2447C137.468 28.4876 138.804 26.6586 140.454 26.2463C143.802 25.408 142.198 31.5133 139.737 35.494C138.414 37.6187 133.721 43.7644 129.691 43.7644C125.661 43.7644 124.89 39.8824 125.737 36.238C126.584 32.5936 127.763 27.9856 133.654 19.594C139.544 11.2025 145.913 6.2267 149.603 4.14228C153.391 1.99508 154.933 2.93644 154.933 2.93644C154.933 2.93644 150.096 5.90395 147.344 9.49008C144.717 12.9148 143.143 16.7654 144.363 18.6526C145.528 20.4502 149.621 20.486 154.135 13.9772C158.591 7.54908 157.47 3.7254 157.47 3.7254C157.763 3.63002 158.063 3.55512 158.366 3.50126C160.541 3.20988 162.28 3.78813 164.969 5.1688C166.281 5.84236 167.568 6.70507 168.943 7.62655C170.522 8.68418 172.216 9.81948 174.194 10.8347L174.19 10.8394H174.204ZM155.946 4.22296C155.946 4.22296 153.077 5.36604 149.742 9.0418C146.407 12.7176 144.461 16.8551 145.9 17.9488C146.452 18.3657 147.725 18.4374 150.038 16.3575C152.17 14.5052 153.844 12.1836 154.928 9.57525C156.336 6.14332 155.994 4.4608 155.95 4.24593C155.947 4.2329 155.946 4.22527 155.946 4.22296Z" fill="black"/>
<path d="M180.019 12.9203L180.017 12.9226C187.852 14.4736 194.715 9.61892 198.364 5.48592C199.696 4.00688 200.841 2.37052 201.775 0.613281C200.114 2.34338 198.254 3.872 196.235 5.16766L196.212 5.16317C192.815 7.34175 188.112 9.31858 183.594 8.88377C182.451 10.0672 181.227 11.4344 180.008 12.9181L180.019 12.9203Z" fill="black"/>
<path fill-rule="evenodd" clip-rule="evenodd" d="M182.772 40.7712C182.122 41.8111 181.383 43.8057 183.53 42.5642C186.143 41.0534 189.868 35.3918 189.868 35.3918H191.554C190.018 37.758 188.307 40.0056 186.435 42.1159C183.786 45.052 180.554 47.7192 178.276 47.4547C175.618 47.1453 176.452 43.6533 176.452 43.6533C176.452 43.6533 172.633 47.6877 170.01 47.4144C166.455 47.0198 167.54 42.6268 167.54 42.6268C167.54 42.6268 163.506 47.5579 160.78 47.4098C156.486 47.1633 157.567 41.9232 158.759 38.2562C159.4 36.2884 159.992 34.7419 159.992 34.7419C159.992 34.7419 159.566 34.854 158.647 34.9884C158.167 35.0556 157.302 35.105 157.302 35.105C156.316 36.8431 155.242 38.5291 154.083 40.157C152.654 42.0576 146.58 48.5887 142.993 47.28C139.685 46.0696 140.779 41.0042 142.707 36.9698C145.517 31.102 153.424 22.6701 157.983 23.7773C162.713 24.9249 158.091 33.5496 158.091 33.5496C158.091 33.5496 158.091 33.5808 158.14 33.6033C158.439 33.6571 158.746 33.6403 159.037 33.5539C159.628 33.4344 160.207 33.2618 160.767 33.0384C160.767 33.0384 165.519 23.087 170.768 16.5782C176.017 10.0694 186.502 -1.12829 190.613 1.58372C191.617 2.25163 191.159 4.54676 189.806 7.33496C189.196 7.52789 188.576 7.68949 187.95 7.81909C188.701 6.57401 189.268 5.22737 189.635 3.82057C190.254 0.458573 182.4 7.54565 176.788 15.1751C173.413 19.7713 170.414 24.6328 167.823 29.7124C168.837 29.0961 169.805 28.4068 170.719 27.6504C173.222 25.5741 175.602 23.3528 177.846 20.9981C179.999 18.78 182.018 16.4359 183.893 13.9783C184.494 13.95 185.092 13.8887 185.686 13.7945C183.634 16.5769 181.399 19.2186 178.994 21.7019C178.795 21.9 178.596 22.0998 178.395 22.3007C176.327 24.3722 174.145 26.5567 172.225 28.1748C170.35 29.7787 168.372 31.2583 166.303 32.6037C166.303 32.6037 161.372 42.5013 164.062 43.1378C165.631 43.5144 168.733 38.7405 168.733 38.7405C168.733 38.7405 172.767 32.5677 175.215 29.7751C178.523 26.0097 181.387 23.8401 184.234 23.7818C185.901 23.7504 186.883 25.53 186.883 25.53L187.667 24.3152H192.495C192.495 24.3152 183.481 39.61 182.759 40.762L182.772 40.7712ZM185.798 27.2424C185.857 27.1384 185.905 27.0288 185.942 26.9152C185.919 26.736 185.835 26.5701 185.704 26.4453C185.574 26.3205 185.404 26.2442 185.224 26.2293C184.48 26.1936 183.458 26.3368 180.791 29.291C178.575 31.7371 176.669 34.4472 175.116 37.3598C173.588 40.1524 172.969 42.2323 173.847 42.7704C174.132 42.9168 174.462 42.9504 174.771 42.8644C175.367 42.7209 176.039 42.1651 177.066 40.9773C177.45 40.5321 177.869 39.9374 178.347 39.2577L178.352 39.2512C178.469 39.0844 178.591 38.9121 178.716 38.736C180.482 36.3333 184.92 28.7666 185.798 27.238V27.2424ZM158.068 30.4519C158.517 29.2864 159.082 27.0004 157.903 26.1038C156.634 25.1491 153.42 27.3859 153.389 29.6899C153.357 31.9941 155.661 33.1012 156.213 33.2491C156.526 33.3343 156.634 33.3208 156.787 33.0698C157.274 32.231 157.702 31.3593 158.068 30.461V30.4519ZM155.625 34.733C154.825 34.3629 154.079 33.8865 153.407 33.3165C152.73 32.7511 152.163 32.0656 151.735 31.2948C151.697 31.2316 151.66 31.2729 151.621 31.3168C151.612 31.3262 151.604 31.3356 151.596 31.344C151.545 31.3946 151.344 31.5955 149.623 34.1143C147.893 36.647 145.257 41.8648 147.651 42.7569C149.184 43.3262 151.735 40.6411 153.133 38.8615C154.08 37.6202 154.938 36.3141 155.702 34.9526C155.774 34.8002 155.702 34.7642 155.625 34.733Z" fill="black"/>
<path d="M128.451 12.6719H123.861L121.266 16.8676H125.856L128.451 12.6719Z" fill="black"/>
<path fill-rule="evenodd" clip-rule="evenodd" d="M117.673 24.1535H119.34C119.34 24.1535 110.913 36.3329 106.148 35.7771C103.489 35.4677 104.278 32.1907 104.278 32.1907C104.278 32.1907 100.535 36.5614 97.1062 35.6873C93.9951 34.8893 96.0034 29.7209 96.0034 29.7209C95.9504 29.7423 95.7548 29.9302 95.4447 30.2283C93.6814 31.9227 88.2135 37.1767 84.1916 35.629C79.2608 33.7195 81.8113 27.3675 82.7528 25.4578C83.5505 23.8486 84.4337 22.2797 84.4337 22.2797C84.4337 22.2797 83.6761 22.4949 83.2009 22.6025C82.7259 22.71 82.0131 22.849 82.0131 22.849C82.0131 22.849 79.6731 26.6547 78.2432 28.5509C76.8133 30.4471 70.7302 36.9739 67.1485 35.6739C63.5669 34.3738 64.459 29.3623 66.4671 25.3637C69.7306 18.9088 77.4766 10.9745 82.1564 12.1669C86.8364 13.3592 82.9678 21.0111 82.9678 21.0111C82.9678 21.0111 83.9048 21.1321 86.1505 19.5991C87.0781 18.9679 88.0892 18.0313 89.1682 17.032C91.8591 14.5396 94.9707 11.6574 98.2537 12.1534C100.423 12.4806 102.445 14.7085 99.6793 18.9356C98.7826 20.2804 97.3078 21.5087 96.1693 20.3073C95.461 19.5677 96.0795 18.2005 96.8237 17.2681C97.1146 16.8881 97.4945 16.5856 97.9299 16.387C98.3653 16.1885 98.8429 16.1 99.3205 16.1295C99.3205 16.1295 100.083 14.3768 98.1416 14.4127C96.5681 14.444 92.5875 18.1063 90.3418 21.809C88.3066 25.2204 85.1912 31.0119 88.3066 32.2759C91.1801 33.4371 96.6488 26.946 99.1815 23.5438C101.714 20.1415 107.479 12.4313 112.32 12.122C113.988 12.0144 114.979 13.5341 114.979 13.5341L115.539 12.6375H120.371C120.371 12.6375 111.271 27.8741 110.558 29.0172C109.998 29.9136 109.254 31.9443 111.316 30.8103C113.378 29.676 117.673 24.1535 117.673 24.1535ZM106.712 27.1882C108.667 24.4986 114.055 15.1299 114.055 15.1299C114.032 14.9507 113.948 14.7849 113.818 14.6601C113.687 14.5352 113.518 14.459 113.338 14.444C112.594 14.4082 111.356 14.6592 108.855 17.7522C106.354 20.8453 104.489 23.3062 103.099 25.8658C101.566 28.6584 100.898 30.631 101.777 31.1643C102.063 31.3087 102.391 31.3421 102.7 31.2583C103.274 31.1151 104.023 30.5412 105.049 29.3578C105.534 28.8065 106.08 28.0623 106.721 27.1882H106.712ZM82.0892 14.5023C80.8205 13.543 77.6067 15.7843 77.5753 18.0884C77.5438 20.3925 80.4889 21.1097 80.87 21.1277C80.9549 21.1501 81.0449 21.1437 81.1261 21.1097C81.2072 21.0757 81.2746 21.0158 81.3183 20.9394C81.6629 20.264 81.9728 19.5713 82.2461 18.8639C82.6945 17.6984 83.2546 15.4123 82.0757 14.5158L82.0892 14.5023ZM80.1617 22.5845C79.2872 22.311 78.451 21.9269 77.6739 21.4415C76.9157 20.9519 76.298 20.2738 75.8809 19.4736C75.8417 19.4071 75.7993 19.4565 75.7592 19.5029C75.7534 19.5098 75.7477 19.5165 75.7419 19.5229C75.697 19.5722 75.4371 19.9129 73.7113 22.4456C71.9854 24.9783 69.4258 30.1601 71.8239 31.0479C73.357 31.6171 75.9346 28.9229 77.3288 27.1433C78.3793 25.7544 79.3505 24.3071 80.2378 22.8087C80.2961 22.6562 80.2378 22.6204 80.1526 22.5935L80.1617 22.5845Z" fill="black"/>
<path d="M115.039 48.5391C111.474 46.0719 107.206 44.826 102.873 44.9887C101.7 45.0204 100.552 45.3283 99.5202 45.8878C98.489 46.447 97.6043 47.2416 96.9381 48.2074C95.0913 44.9844 91.4423 43.0075 85.7987 43.0522C81.0203 43.1064 76.2606 44.287 71.7818 45.3977C67.7145 46.4064 63.8788 47.3578 60.4718 47.3556C53.5953 47.3556 48.5882 43.0344 48.754 35.3645C49.0499 21.9166 60.4089 9.81345 68.926 4.35357C73.8076 1.21573 77.8912 0.292301 80.5809 0.592638C82.5309 0.807805 84.8752 3.06259 83.3958 6.38421C81.2219 11.2479 78.2186 10.84 78.3306 8.51796C78.3772 7.91222 78.567 7.32619 78.8841 6.80801C79.2014 6.2898 79.637 5.85422 80.1549 5.53699C80.705 5.23766 81.322 5.08339 81.9482 5.08874C82.3962 4.72565 82.7056 2.06743 79.209 2.94156C75.7127 3.81566 71.4542 7.25386 67.4378 11.6917C63.4214 16.1295 57.1725 24.5121 55.6259 33.3161C54.9042 37.3997 55.3838 44.8455 65.0394 44.7646C68.7623 44.7341 73.2916 43.6047 78.1689 42.3886C84.0333 40.9265 90.4002 39.3389 96.4718 39.3855C100.345 39.3691 104.148 40.4107 107.472 42.3979C110.35 44.191 113.797 46.7549 115.021 48.5211L115.039 48.5391Z" fill="black"/>
<path d="M27.0625 31.1007H36.7539L36.4357 28.8951H29.5818V26.2057H34.1989V23.9643H29.5818V21.6781H36.3056L36.6284 19.4727H27.0671L27.0625 31.1007Z" fill="black"/>
<path d="M12.7188 31.1006H15.238V25.9589H21.173V31.0961H23.7012V19.5084H21.1775V23.7086H15.238V19.5039H12.7322L12.7188 31.1006Z" fill="black"/>
<path d="M0 21.7682H3.86405V31.0877H6.39226V21.7682H10.2563V19.5H0V21.7682Z" fill="black"/>
<path d="M295.758 19.5357H298.542L293.956 27.2279V31.1234H291.429V27.2774L286.797 19.5312H289.643L292.715 24.9554L295.758 19.5357Z" fill="black"/>
<path d="M282.355 27.3815V19.5369L284.817 19.5234V31.1111H282.275L276.65 23.1275V31.1111H274.188V19.5234H276.806L282.355 27.3815Z" fill="black"/>
<path fill-rule="evenodd" clip-rule="evenodd" d="M271.971 31.1162H269.311L268.347 28.5297H263.259L262.296 31.1028H259.656L264.269 19.5195H267.375L271.971 31.1162ZM265.819 21.7564L264.084 26.351L267.54 26.3467L265.819 21.7564Z" fill="black"/>
<path fill-rule="evenodd" clip-rule="evenodd" d="M249.602 19.5142H255.561C256.334 19.4892 257.104 19.6523 257.802 19.9894C258.383 20.2771 258.863 20.7332 259.182 21.2983C259.49 21.8792 259.65 22.5263 259.65 23.1833C259.65 23.8403 259.49 24.4873 259.182 25.0681C258.861 25.634 258.381 26.0924 257.802 26.3862C257.104 26.7248 256.336 26.8895 255.561 26.8657H252.131V31.0974H249.602V19.5142ZM252.148 24.6289H255.515C255.94 24.6565 256.358 24.5202 256.684 24.2479C256.955 23.959 257.104 23.5785 257.104 23.1833C257.104 22.788 256.955 22.4075 256.684 22.1186C256.353 21.8536 255.935 21.721 255.51 21.7466H252.148V24.6289Z" fill="black"/>
<path d="M242.852 19.5156H246.246L246.248 31.1077H243.802V22.5907L240.243 30.9284H238.552L235.033 22.8014V31.0899H232.586V19.5156H235.979L239.449 27.5845L242.852 19.5156Z" fill="black"/>
<path fill-rule="evenodd" clip-rule="evenodd" d="M226.834 30.5294C225.85 31.048 224.751 31.3101 223.638 31.2914L223.625 31.2959C222.512 31.3134 221.413 31.0514 220.429 30.5339C219.51 30.0426 218.747 29.3032 218.228 28.4001C217.704 27.4482 217.43 26.3798 217.43 25.2935C217.43 24.2074 217.704 23.1389 218.228 22.1871C218.749 21.2838 219.513 20.5446 220.433 20.0534C221.424 19.5509 222.519 19.2891 223.629 19.2891C224.74 19.2891 225.835 19.5509 226.825 20.0534C227.759 20.5392 228.536 21.2788 229.067 22.1871C229.589 23.1386 229.862 24.2062 229.862 25.2914C229.862 26.3764 229.589 27.4442 229.067 28.3955C228.538 29.3027 227.764 30.0422 226.834 30.5294ZM221.8 28.5302C222.36 28.851 222.995 29.0152 223.64 29.0054C224.286 29.0195 224.922 28.8549 225.48 28.5302C226.018 28.2198 226.458 27.7648 226.749 27.2166C227.05 26.6202 227.207 25.9617 227.207 25.2935C227.207 24.6256 227.05 23.967 226.749 23.3705C226.461 22.8181 226.02 22.3594 225.48 22.0482C224.918 21.7382 224.285 21.5756 223.643 21.5756C223 21.5756 222.368 21.7382 221.805 22.0482C221.267 22.3509 220.824 22.7981 220.527 23.3392C220.216 23.9313 220.062 24.5934 220.079 25.2623C220.064 25.9307 220.218 26.5922 220.527 27.1852C220.817 27.7444 221.258 28.2105 221.8 28.5302Z" fill="black"/>
<path d="M214.108 30.8453C213.259 31.1518 212.361 31.3035 211.459 31.2936L211.472 31.3071C210.301 31.3277 209.143 31.0582 208.101 30.5225C207.141 30.0291 206.336 29.2805 205.774 28.3592C205.212 27.438 204.914 26.3796 204.914 25.3004C204.914 24.221 205.212 23.1626 205.774 22.2414C206.336 21.3201 207.141 20.5715 208.101 20.078C209.13 19.5479 210.274 19.28 211.432 19.298C212.335 19.2819 213.233 19.4339 214.081 19.7463C214.848 20.0266 215.531 20.497 216.067 21.1135L214.493 22.8617C214.092 22.4427 213.615 22.1048 213.086 21.8666C212.583 21.6559 212.043 21.5492 211.499 21.5528C210.8 21.5435 210.11 21.7133 209.495 22.0459C208.913 22.3593 208.427 22.8239 208.088 23.3907C207.733 23.9623 207.548 24.6231 207.554 25.2958C207.545 25.9589 207.72 26.6117 208.059 27.1815C208.399 27.7512 208.889 28.2159 209.477 28.5233C210.102 28.8586 210.803 29.0285 211.512 29.0165C212.079 29.0259 212.642 28.9181 213.165 28.6997C213.687 28.4816 214.16 28.1573 214.552 27.7479L216.13 29.4692C215.585 30.0939 214.889 30.5676 214.108 30.8453Z" fill="black"/>
</g>
<defs>
<clipPath id="clip0_942_4436">
<rect width="300" height="48" fill="white" transform="translate(0 0.539062)"/>
</clipPath>
</defs>
</svg>
