<svg width="75" height="75" viewBox="0 0 75 75" fill="none" xmlns="http://www.w3.org/2000/svg">
<path d="M37.4082 74.623C57.9603 74.623 74.6211 57.9623 74.6211 37.4102C74.6211 16.858 57.9603 0.197266 37.4082 0.197266C16.8561 0.197266 0.195312 16.858 0.195312 37.4102C0.195312 57.9623 16.8561 74.623 37.4082 74.623Z" fill="#FFCA2D"/>
<g clip-path="url(#clip0_924_3740)">
<path d="M39.8313 22.9726C37.5985 20.1444 37.3157 18.6262 38.6107 16.6613C39.6626 15.0636 41.6671 14.3144 43.5427 14.8156C45.701 15.3911 46.5941 16.8052 46.8224 20.0551C49.4025 18.9834 51.9627 17.9166 54.5775 16.83C54.7016 17.088 54.8306 17.3312 54.9397 17.5842C57.505 23.7169 60.0702 29.8446 62.6304 35.9773C62.6899 36.1261 62.7495 36.275 62.8041 36.4238C63.4193 38.091 63.0174 39.1478 61.4594 39.9864C61.3354 40.0558 61.2114 40.1253 61.0724 40.1997C61.2014 40.6264 61.4247 41.0482 61.4297 41.4699C61.4346 42.2291 61.4148 43.013 61.2114 43.7374C60.6259 45.8263 59.9461 47.8904 59.3061 49.9644C59.2713 50.0785 59.2416 50.2174 59.2763 50.3216C59.6534 51.4876 59.5293 52.6884 59.5343 53.8792C59.5343 53.9685 59.5442 54.0528 59.5442 54.1273C59.5889 54.162 59.6137 54.1918 59.6435 54.1967C60.7995 54.3356 60.8293 54.3654 60.8492 55.5612C60.8839 57.7394 60.9236 59.9126 60.9583 62.0908C60.9583 62.2843 60.9583 62.4729 60.9583 62.6961H59.3854V55.844H43.8007V62.6961H42.3866C42.3618 62.1404 42.3221 61.5798 42.3122 61.0191C42.2824 59.2329 42.2675 57.4516 42.2377 55.6654C42.2179 54.554 42.2774 54.4746 43.4683 54.2761C43.4683 53.5517 43.4732 52.8124 43.4683 52.0681C43.4633 51.4479 43.369 50.8128 43.8305 50.2819C43.8751 50.2323 43.885 50.1083 43.8553 50.0388C43.5576 49.2797 43.2499 48.5255 42.9324 47.7316C40.4515 49.3839 37.668 50.2918 35.0631 51.5521C34.8696 51.6464 34.6711 51.8002 34.4776 51.7952C34.1253 51.7853 33.6738 51.7903 33.4555 51.5869C33.2372 51.3834 33.2273 50.9369 33.1826 50.5846C33.1628 50.4258 33.2918 50.2522 33.3463 50.0835C33.778 48.7884 33.3563 47.5182 32.2151 46.6847C31.2327 45.9652 29.8235 45.9752 28.7518 46.7045C27.7743 47.3694 27.2285 48.8033 27.6156 49.9197C27.7644 50.3563 28.072 50.7632 28.3846 51.1155C28.7369 51.5124 29.1785 51.83 29.5754 52.1922C30.3594 52.9017 30.2502 53.6906 29.2877 54.1273C26.7721 55.2685 24.2466 56.3948 21.726 57.5211C21.0314 57.8337 21.0264 57.8287 20.7188 57.144C19.1161 53.5666 17.5135 49.9892 15.9109 46.4118C14.725 43.7622 13.5342 41.1127 12.3533 38.4582C12.2442 38.215 12.1449 37.9669 12.0655 37.7089C11.6587 36.404 12.0308 35.4017 13.1869 34.6724C13.4102 34.5334 13.6483 34.4094 13.9212 34.2556C13.4399 33.1144 13.7426 32.0228 14.0899 30.9263C14.6952 28.9912 15.2857 27.0512 15.8761 25.1111C15.9109 24.997 15.9258 24.868 15.9158 24.7489C15.8265 23.6325 15.7025 22.5211 15.6429 21.4047C15.6231 20.9979 15.5635 20.7746 15.0971 20.7845C14.6059 20.7944 14.338 20.5215 14.3281 20.0204C14.2933 17.1128 14.2586 14.2053 14.2239 11.2977C14.2239 11.263 14.2437 11.2332 14.2685 11.1637H15.7521V19.1918H31.3765V11.1836H32.87C32.87 12.0469 32.8601 12.9003 32.87 13.7488C32.8948 15.5846 32.9296 17.4254 32.9593 19.2613C32.9792 20.4967 32.9444 20.5414 31.709 20.7746C31.709 21.6677 31.7437 22.5707 31.6941 23.4738C31.6693 23.8955 31.4708 24.3073 31.3567 24.7241C31.3269 24.8333 31.2723 24.9672 31.312 25.0565C31.4956 25.4584 31.704 25.8504 31.9223 26.2722C34.5719 25.1707 37.1867 24.0841 39.8462 22.9726H39.8313ZM14.4273 35.7689C13.4002 36.1956 13.1968 36.6868 13.5888 37.6147C13.6285 37.7139 13.6781 37.8082 13.7228 37.9074C16.2433 43.534 18.7589 49.1556 21.2794 54.7822C21.4382 55.1345 21.6069 55.4818 21.7806 55.8539C23.9042 54.9013 25.9732 53.9685 28.082 53.0258C27.7694 52.6735 27.5014 52.3907 27.2534 52.083C26.6034 51.2842 26.0625 50.4258 25.9881 49.364C25.8343 47.0915 27.5808 45.0175 29.9029 44.7C32.2052 44.3824 34.428 45.9255 34.8845 48.193C34.9936 48.7388 34.9887 49.3094 35.0433 49.9098C36.8295 49.111 38.6008 48.322 40.3672 47.5282C41.1462 47.1808 41.2057 47.0072 40.8534 46.2183C39.995 44.2981 39.1317 42.3829 38.2733 40.4627C38.184 40.2692 38.0947 40.0707 38.0501 39.8623C37.8863 39.1826 38.318 38.5971 39.0176 38.5673C39.3897 38.5524 39.7668 38.602 40.1389 38.607C41.0072 38.6169 41.8557 38.5475 42.5354 37.9124C43.4037 37.0986 43.7064 35.8681 43.3045 34.7766C42.8877 33.6502 41.8408 32.8713 40.655 32.8564C39.355 32.8365 38.4073 33.4468 37.8069 34.593C37.7077 34.7815 37.6531 34.9949 37.544 35.1785C37.1421 35.8483 36.3035 35.8681 35.8719 35.2181C35.7627 35.0544 35.6883 34.8708 35.6139 34.6922C34.7059 32.6182 33.8028 30.5442 32.8948 28.4752C32.6467 27.9062 32.2333 27.7524 31.6544 28.0137C29.3472 29.0507 27.035 30.0828 24.7278 31.1198C23.3187 31.7549 21.8649 32.2957 20.7932 33.5163C20.3665 34.0025 20.0936 34.4094 20.2821 35.0693C20.4062 35.496 20.4508 35.9426 20.5005 36.3842C20.6245 37.4807 20.8081 38.5723 20.823 39.6688C20.8379 40.557 20.4955 41.3856 19.8257 42.0207C18.5406 43.2462 16.6551 42.7649 16.1193 41.0879C16.0498 40.8695 15.9853 40.6463 15.9109 40.423C15.4197 38.8849 14.9235 37.3418 14.4174 35.7689H14.4273ZM42.5156 46.3026C43.503 45.8908 44.4259 45.5038 45.3438 45.1217C48.2563 43.9061 51.1639 42.6905 54.0714 41.4699C54.9497 41.1027 55.0191 40.9688 54.8653 40.0062C54.6917 38.9345 54.4932 37.8627 54.3443 36.7861C54.1806 35.5754 54.2401 34.3846 55.0489 33.3773C55.6642 32.6132 56.5027 32.2709 57.4702 32.3999C58.4129 32.5289 58.8248 33.2285 59.0629 34.072C59.2068 34.588 59.3854 35.0891 59.5492 35.6002C59.8816 36.6273 60.219 37.6544 60.5515 38.6765C61.4793 38.3986 61.7323 37.9322 61.4495 37.0986C61.3801 36.8952 61.2907 36.7017 61.2064 36.5032C58.9587 31.1297 56.7111 25.7562 54.4634 20.3826C54.2451 19.8616 54.0169 19.3456 53.7837 18.7998C53.5604 18.8842 53.3768 18.9487 53.1982 19.0231C51.1093 19.8964 49.0254 20.7795 46.9315 21.6379C45.8052 22.1043 45.0957 21.5486 45.2148 20.3429C45.2594 19.8815 45.2942 19.4151 45.2743 18.9536C45.2197 17.6834 44.4159 16.6564 43.2351 16.2892C42.0591 15.927 40.7294 16.3537 39.9752 17.3361C38.7497 18.9387 39.355 21.1368 41.2553 21.9505C41.7416 22.1589 42.1633 22.3871 42.1534 23.0024C42.1435 23.6127 41.7118 23.8509 41.2256 24.0394C40.7095 24.2428 40.1985 24.4512 39.6874 24.6646C37.7772 25.4535 35.8719 26.2424 33.9219 27.0512C34.8547 29.1351 35.7776 31.1843 36.7104 33.2682C38.8836 30.7328 40.9527 30.8816 42.5007 31.611C44.3018 32.4594 45.2991 34.2853 45.0411 36.2551C44.9121 37.2673 44.5152 38.1704 43.8205 38.9394C42.7786 40.0906 41.4042 40.3436 39.866 40.3138C40.7592 42.3481 41.6175 44.2981 42.4958 46.2977L42.5156 46.3026ZM52.5184 43.7473C49.8937 44.8439 47.3979 45.8908 44.9022 46.9377C44.793 46.9824 44.6839 47.0667 44.6194 47.161C44.2224 47.8011 45.3289 49.8701 46.093 49.9247C46.1128 49.9247 46.1277 49.9247 46.1476 49.9247C49.8093 49.9247 53.4711 49.9247 57.1279 49.9148C57.2916 49.9148 57.5248 49.8006 57.5992 49.6716C57.9366 49.0514 58.3236 48.4312 58.5271 47.7614C59.0431 46.0595 59.4748 44.3279 59.9213 42.6061C59.9908 42.3382 60.0205 42.0207 59.9412 41.7676C59.1671 39.2868 58.3683 36.8109 57.5695 34.3399C57.4008 33.8189 57.1477 33.7296 56.6763 34.0224C55.8775 34.5185 55.6542 35.2876 55.7783 36.1559C56.0264 37.8479 56.3042 39.5348 56.597 41.2218C56.6664 41.6237 56.5672 41.8718 56.1901 42.0306C55.2126 42.4523 54.5329 43.1817 54.0665 44.1244C53.8978 44.4717 53.6944 44.7992 53.4959 45.1614C53.0344 44.9382 52.6177 44.7446 52.1959 44.5412C52.2952 44.2931 52.3795 44.0847 52.5184 43.7473ZM30.5479 26.8725C30.3147 26.4806 30.0815 26.163 29.9178 25.8107C29.6896 25.3245 29.3422 25.1905 28.8064 25.1955C25.487 25.2501 22.1676 25.3443 18.8482 25.255C17.6921 25.2252 17.2009 25.7165 16.8437 26.6195C16.7742 26.8031 16.7097 26.9867 16.6551 27.1752C16.1887 28.9118 15.7025 30.6434 15.2708 32.39C15.1815 32.7472 15.1964 33.1739 15.3055 33.5262C16.02 35.8384 16.7643 38.1456 17.5284 40.4428C17.6177 40.7108 17.9055 41.1375 18.0444 41.1176C18.3917 41.063 18.8681 40.8695 18.9971 40.5917C19.2402 40.0657 19.4337 39.4257 19.3692 38.865C19.1459 36.9944 18.7986 35.1388 18.5207 33.3873C19.2005 32.8762 19.91 32.4892 20.4111 31.9136C20.9619 31.2835 21.5821 30.8568 22.3313 30.5293C25.0553 29.3336 27.7644 28.108 30.5479 26.8626V26.8725ZM30.1857 23.6722C30.1857 22.8932 30.1758 22.1639 30.1857 21.4345C30.1957 20.7448 30.2056 20.7399 29.5308 20.7399C26.9259 20.7547 24.321 20.7696 21.7161 20.7944C20.3963 20.8044 19.0764 20.8143 17.7566 20.8639C17.5433 20.8738 17.1563 21.0524 17.1513 21.1765C17.0967 22.0051 17.1215 22.8337 17.1215 23.6722H30.1808H30.1857ZM44.9865 51.4727C44.9865 52.2716 45.0213 53.0009 44.9717 53.7303C44.9369 54.2314 45.1304 54.3356 45.5819 54.3307C48.8468 54.286 52.1066 54.2662 55.3714 54.2364C56.1206 54.2315 56.8699 54.2066 57.6191 54.2265C57.9763 54.2364 58.0805 54.1074 58.0607 53.7601C58.0309 53.2292 58.0507 52.6933 58.0507 52.1575C58.0507 51.438 58.0507 51.438 57.3511 51.438C53.4264 51.443 49.5017 51.4479 45.577 51.4578C45.4033 51.4578 45.2297 51.4727 44.9816 51.4827L44.9865 51.4727ZM54.3543 15.5499C54.8256 15.3068 54.9397 14.9098 54.8256 14.4236C54.4634 12.8606 54.1062 11.3027 53.7291 9.74469C53.5802 9.13439 53.1287 8.84661 52.5929 8.97562C52.0173 9.11455 51.7295 9.55614 51.8635 10.1962C52.1165 11.3821 52.4043 12.558 52.6772 13.7339C52.7764 14.1507 52.8558 14.5724 52.9799 14.9793C53.1635 15.5896 53.7837 15.8377 54.3543 15.5499ZM23.8943 65.9411C24.3656 65.698 24.4798 65.301 24.3656 64.8148C24.0034 63.2519 23.6462 61.6939 23.2691 60.1359C23.1202 59.5256 22.6687 59.2378 22.1329 59.3668C21.5573 59.5058 21.2695 59.9473 21.4035 60.5874C21.6565 61.7733 21.9443 62.9492 22.2172 64.1251C22.3164 64.5419 22.3958 64.9636 22.5199 65.3705C22.7035 65.9808 23.3237 66.2289 23.8943 65.9411ZM55.9817 16.4976C56.3886 16.8399 56.8004 16.7903 57.2023 16.4976C58.5023 15.5648 59.8072 14.632 61.1022 13.6893C61.6083 13.3171 61.7026 12.7862 61.3801 12.3446C61.0327 11.8633 60.5118 11.7691 59.9709 12.1412C58.9736 12.8309 57.9962 13.5454 57.0137 14.2499C56.6664 14.498 56.3092 14.7362 55.9817 15.0091C55.4905 15.4159 55.5004 16.0808 55.9817 16.4976ZM14.5067 63.1526C14.9136 63.495 15.3254 63.4454 15.7273 63.1526C17.0273 62.2198 18.3322 61.287 19.6272 60.3443C20.1333 59.9722 20.2276 59.4413 19.9051 58.9997C19.5577 58.5184 19.0368 58.4241 18.4959 58.7962C17.4986 59.4859 16.5212 60.2004 15.5387 60.905C15.1914 61.153 14.8342 61.3912 14.5067 61.6641C14.0155 62.071 14.0254 62.7358 14.5067 63.1526Z" fill="black"/>
</g>
<defs>
<clipPath id="clip0_924_3740">
<rect width="57.7395" height="57.7395" fill="white" transform="translate(8.625 8.63281)"/>
</clipPath>
</defs>
</svg>
