<svg width="79" height="79" viewBox="0 0 79 79" fill="none" xmlns="http://www.w3.org/2000/svg">
<path d="M39.4266 78.8531C61.2012 78.8531 78.8531 61.2012 78.8531 39.4266C78.8531 17.6519 61.2012 0 39.4266 0C17.6519 0 0 17.6519 0 39.4266C0 61.2012 17.6519 78.8531 39.4266 78.8531Z" fill="#33BED4"/>
<g opacity="0.99">
<path d="M53.8386 18.1711C53.8386 18.1711 53.8859 18.1922 53.9122 18.1922C53.9648 18.1922 54.0068 18.166 54.0331 18.1239L54.4169 17.4772C54.4589 17.4089 54.4327 17.3196 54.3696 17.2828C54.338 17.2617 54.3013 17.2565 54.2592 17.267C54.2224 17.2775 54.1908 17.2986 54.1698 17.3301L53.7861 17.9767C53.744 18.045 53.7703 18.1343 53.8334 18.1711H53.8386Z" fill="white"/>
<path d="M53.9134 18.2553C53.8766 18.2553 53.8398 18.2448 53.8083 18.229C53.7137 18.1712 53.6821 18.045 53.74 17.9504L54.1237 17.3038C54.15 17.2565 54.1973 17.225 54.2499 17.2092C54.3024 17.1987 54.355 17.2091 54.4023 17.2301C54.497 17.288 54.5285 17.4141 54.4707 17.5088L54.0869 18.1554C54.0501 18.2184 53.9818 18.2553 53.9134 18.2553ZM53.8714 18.1187C53.9082 18.1397 53.9607 18.1291 53.987 18.0923L54.3708 17.4458C54.3918 17.409 54.3812 17.3564 54.3444 17.3301C54.3234 17.3196 54.3024 17.3143 54.2814 17.3196C54.2603 17.3249 54.2393 17.3405 54.2288 17.3563L53.8451 18.0029C53.824 18.0397 53.8346 18.0924 53.8714 18.1187Z" fill="white"/>
<path d="M50.2649 24.1519C50.2334 24.1309 50.1913 24.1256 50.1545 24.1361C50.1177 24.1466 50.0862 24.1676 50.0652 24.1991L47.2001 28.9882C47.1581 29.0565 47.1843 29.1458 47.2474 29.1826C47.2685 29.1984 47.2947 29.2037 47.321 29.2037C47.3683 29.2037 47.4156 29.1775 47.4419 29.1354L50.307 24.3463C50.349 24.278 50.3228 24.1887 50.2597 24.1519H50.2649Z" fill="white"/>
<path d="M47.3197 29.2663C47.2829 29.2663 47.2461 29.2558 47.2146 29.2348C47.1199 29.1769 47.0884 29.0508 47.1462 28.9561L50.0112 24.1672C50.0375 24.1199 50.0848 24.0883 50.1373 24.0725C50.1899 24.062 50.2425 24.0725 50.2898 24.0935C50.3844 24.1514 50.416 24.2775 50.3582 24.3722L47.4932 29.1612C47.4564 29.2243 47.388 29.2611 47.3197 29.2611V29.2663ZM50.19 24.1881C50.19 24.1881 50.1742 24.1881 50.1689 24.1881C50.1479 24.1934 50.1269 24.2092 50.1164 24.225L47.2513 29.014C47.2303 29.0508 47.2408 29.1034 47.2776 29.1297C47.3144 29.1507 47.367 29.1401 47.3933 29.1033L50.2583 24.3143C50.2793 24.2775 50.2688 24.2249 50.232 24.1986C50.232 24.1986 50.2057 24.1881 50.19 24.1881Z" fill="white"/>
<path d="M50.5574 23.6768C50.5574 23.6768 50.6047 23.6978 50.631 23.6978C50.6836 23.6978 50.7256 23.6716 50.7519 23.6295L53.6169 18.8405C53.659 18.7721 53.6326 18.6828 53.5696 18.646C53.538 18.625 53.496 18.6197 53.4592 18.6303C53.4224 18.6408 53.3908 18.6617 53.3698 18.6933L50.5048 23.4823C50.4628 23.5507 50.489 23.64 50.5521 23.6768H50.5574Z" fill="white"/>
<path d="M50.6244 23.7549C50.5876 23.7549 50.5508 23.7444 50.5192 23.7234C50.4246 23.6656 50.3931 23.5394 50.4509 23.4447L53.3159 18.6557C53.3422 18.6084 53.3895 18.5769 53.442 18.5611C53.4946 18.5453 53.5472 18.5611 53.5945 18.5821C53.6891 18.64 53.7207 18.7661 53.6628 18.8608L50.7979 23.6497C50.7611 23.7128 50.6927 23.7497 50.6244 23.7497V23.7549ZM53.4946 18.682C53.4946 18.682 53.4789 18.682 53.4736 18.682C53.4526 18.6872 53.4316 18.7031 53.421 18.7188L50.556 23.5079C50.535 23.5447 50.5455 23.5972 50.5823 23.6235C50.6191 23.6446 50.6717 23.634 50.698 23.5972L53.5629 18.8081C53.584 18.7713 53.5735 18.7188 53.5367 18.6925C53.5209 18.682 53.5104 18.682 53.4946 18.682Z" fill="white"/>
<path d="M55.4623 42.7109C55.3834 42.7109 55.3203 42.774 55.3203 42.8529C55.3203 42.9317 55.3834 42.9948 55.4623 42.9948H56.214C56.2928 42.9948 56.3559 42.9317 56.3559 42.8529C56.3559 42.774 56.2928 42.7109 56.214 42.7109H55.4623Z" fill="white"/>
<path d="M56.2093 43.0591H55.4576C55.405 43.0591 55.3524 43.0327 55.3156 42.9959C55.2788 42.9591 55.2578 42.9066 55.2578 42.854C55.2578 42.7436 55.3471 42.6543 55.4628 42.6543H56.2145C56.3249 42.6543 56.4196 42.7489 56.4196 42.8593C56.4196 42.9697 56.3302 43.0643 56.2145 43.0643L56.2093 43.0591ZM55.4523 42.7699C55.405 42.7699 55.3682 42.8067 55.3682 42.854C55.3682 42.875 55.3787 42.8961 55.3945 42.9119C55.4103 42.9276 55.4313 42.9382 55.4523 42.9382H56.204C56.2513 42.9382 56.2881 42.9013 56.2881 42.8593C56.2881 42.8119 56.2513 42.7752 56.204 42.7752H55.4523V42.7699Z" fill="white"/>
<path d="M69.0451 42.756L63.4623 42.7402C63.3834 42.7402 63.3203 42.8033 63.3203 42.8822C63.3203 42.919 63.3361 42.9557 63.3623 42.982C63.3886 43.0083 63.4255 43.0241 63.4623 43.0241L69.0451 43.0399C69.1239 43.0399 69.187 42.9768 69.187 42.898C69.187 42.8191 69.1239 42.756 69.0451 42.756Z" fill="white"/>
<path d="M69.0404 43.0989L63.4576 43.0831C63.405 43.0831 63.3524 43.062 63.3156 43.0252C63.2788 42.9884 63.2578 42.9359 63.2578 42.8833C63.2578 42.7729 63.3472 42.6836 63.4628 42.6836L69.0456 42.6994C69.156 42.6994 69.2507 42.7887 69.2507 42.9043C69.2507 43.0147 69.1613 43.1093 69.0456 43.1093L69.0404 43.0989ZM63.4628 42.7992C63.4155 42.7992 63.3787 42.836 63.3787 42.8833C63.3787 42.9043 63.3892 42.9254 63.405 42.9412C63.4208 42.9569 63.4418 42.9675 63.4628 42.9675L69.0456 42.9831C69.0929 42.9831 69.1297 42.9464 69.1297 42.8991C69.1297 42.8518 69.0929 42.815 69.0456 42.815L63.4628 42.7992Z" fill="white"/>
<path d="M62.6232 43.0165C62.702 43.0165 62.7651 42.9534 62.7651 42.8745C62.7651 42.7957 62.702 42.7326 62.6232 42.7326L57.0403 42.7168C56.9615 42.7168 56.8984 42.7799 56.8984 42.8587C56.8984 42.9376 56.9615 43.0007 57.0403 43.0007L62.6232 43.0165Z" fill="white"/>
<path d="M62.6238 43.0801L57.0409 43.0643C56.9305 43.0643 56.8359 42.9749 56.8359 42.8593C56.8359 42.7489 56.9252 42.6543 57.0409 42.6543L62.6238 42.6701C62.6763 42.6701 62.7288 42.691 62.7656 42.7278C62.8024 42.7646 62.8235 42.8172 62.8235 42.8698C62.8235 42.9802 62.7341 43.0696 62.6185 43.0696L62.6238 43.0801ZM57.0462 42.7752C56.9988 42.7752 56.9621 42.8119 56.9621 42.8593C56.9621 42.9066 56.9988 42.9435 57.0462 42.9435L62.629 42.9592C62.6763 42.9592 62.7131 42.9224 62.7131 42.875C62.7131 42.854 62.7026 42.8331 62.6868 42.8173C62.6711 42.8015 62.65 42.791 62.629 42.791L57.0462 42.7752Z" fill="white"/>
<path d="M58.2133 53.5483L53.3927 50.7358C53.3611 50.7148 53.3191 50.7096 53.2823 50.7201C53.2455 50.7306 53.2139 50.7516 53.1929 50.7884C53.1719 50.8199 53.1666 50.862 53.1771 50.8988C53.1876 50.9356 53.2087 50.9671 53.2455 50.9881L58.066 53.8006C58.066 53.8006 58.1134 53.8216 58.1396 53.8216C58.1922 53.8216 58.2395 53.7953 58.2605 53.7532C58.2816 53.7217 58.2868 53.6797 58.2763 53.6429C58.2658 53.6061 58.2448 53.5746 58.208 53.5535L58.2133 53.5483Z" fill="white"/>
<path d="M58.1371 53.8757C58.1003 53.8757 58.0635 53.8651 58.0319 53.8494L53.2114 51.0369C53.1641 51.0106 53.1326 50.9633 53.1168 50.9107C53.101 50.8581 53.1115 50.8056 53.1378 50.7582C53.1641 50.7109 53.2062 50.6794 53.2587 50.6637C53.3113 50.6479 53.3639 50.6584 53.4112 50.6847L58.2317 53.4971C58.279 53.5233 58.3106 53.5706 58.3264 53.6232C58.3421 53.6758 58.3316 53.7284 58.3053 53.7757C58.2685 53.8388 58.2002 53.8757 58.1319 53.8757H58.1371ZM53.3165 50.7793C53.3165 50.7793 53.3008 50.7793 53.2955 50.7793C53.2745 50.7845 53.2587 50.8004 53.2429 50.8161C53.2324 50.8372 53.2272 50.8581 53.2324 50.8791C53.2377 50.9002 53.2535 50.916 53.2692 50.9318L58.0898 53.7442C58.1266 53.7653 58.1792 53.7547 58.2055 53.7127C58.216 53.6916 58.2212 53.6706 58.216 53.6495C58.2107 53.6285 58.1949 53.6128 58.1792 53.597L53.3586 50.7846C53.3481 50.7793 53.3323 50.774 53.3165 50.774V50.7793Z" fill="white"/>
<path d="M63.7601 56.7787L58.9396 53.9664C58.908 53.9453 58.8659 53.9401 58.8291 53.9506C58.7923 53.9611 58.7608 53.982 58.7398 54.0188C58.7188 54.0504 58.7135 54.0925 58.724 54.1293C58.7345 54.1661 58.7555 54.1976 58.7923 54.2187L63.6129 57.031C63.6129 57.031 63.6602 57.0521 63.6865 57.0521C63.739 57.0521 63.7863 57.0258 63.8126 56.9838C63.8336 56.9523 63.8389 56.9102 63.8284 56.8734C63.8179 56.8366 63.7969 56.805 63.7601 56.784V56.7787Z" fill="white"/>
<path d="M63.6839 57.11C63.6471 57.11 63.6104 57.0995 63.5788 57.0837L58.7583 54.2712C58.7109 54.245 58.6794 54.1977 58.6637 54.1451C58.6479 54.0925 58.6584 54.0401 58.6847 53.9927C58.7109 53.9454 58.7583 53.9138 58.8109 53.898C58.8634 53.8823 58.916 53.8928 58.9633 53.9191L63.7839 56.7316C63.8312 56.7578 63.8627 56.8051 63.8784 56.8577C63.8942 56.9103 63.8837 56.9629 63.8575 57.0102C63.8207 57.0733 63.7523 57.11 63.6839 57.11ZM58.8634 54.0084C58.8634 54.0084 58.8476 54.0084 58.8424 54.0084C58.8214 54.0137 58.8003 54.0295 58.7898 54.0452C58.7793 54.0663 58.774 54.0874 58.7793 54.1084C58.7846 54.1294 58.8003 54.1451 58.8161 54.1609L63.6367 56.9734C63.6734 56.9944 63.726 56.9838 63.7523 56.9418C63.7628 56.9208 63.7681 56.8998 63.7628 56.8788C63.7576 56.8577 63.7418 56.8419 63.726 56.8261L58.9055 54.0137C58.895 54.0084 58.8792 54.0033 58.8634 54.0033V54.0084Z" fill="white"/>
<path d="M27.1894 21.9768C27.2157 22.0188 27.263 22.0452 27.3103 22.0452C27.3366 22.0452 27.3629 22.0399 27.3839 22.0241C27.4154 22.0031 27.4417 21.9716 27.447 21.9348C27.4575 21.898 27.447 21.8611 27.4312 21.8295L24.4979 17.0826C24.4558 17.0142 24.3665 16.9933 24.3034 17.0353C24.235 17.0774 24.214 17.1667 24.256 17.2298L27.1894 21.9768Z" fill="white"/>
<path d="M27.3092 22.1043C27.2409 22.1043 27.1725 22.0675 27.1357 22.0097L24.2024 17.2627C24.1445 17.1681 24.1708 17.0419 24.2654 16.9841C24.3601 16.9263 24.4862 16.9579 24.5441 17.0525L27.4774 21.7995C27.5037 21.8468 27.5142 21.8992 27.5037 21.9518C27.4932 22.0044 27.4616 22.0517 27.4143 22.078C27.3828 22.099 27.346 22.1095 27.3092 22.1095V22.1043ZM27.2409 21.9465C27.2619 21.9833 27.3144 21.9991 27.3565 21.9729C27.3775 21.9623 27.3881 21.9414 27.3933 21.9204C27.3933 21.8993 27.3933 21.8782 27.3828 21.8572L24.4494 17.1102C24.4231 17.0734 24.3758 17.0576 24.3338 17.0839C24.297 17.1102 24.2813 17.1576 24.3075 17.1997L27.2409 21.9465Z" fill="white"/>
<path d="M31.24 27.9986C31.198 27.9303 31.1086 27.9093 31.0455 27.9514C30.9772 27.9934 30.9562 28.0827 30.9982 28.1458L31.5186 28.987C31.5449 29.029 31.5922 29.0552 31.6395 29.0552C31.6658 29.0552 31.6921 29.0501 31.7131 29.0343C31.7447 29.0133 31.7657 28.9817 31.7762 28.9449C31.7867 28.9081 31.7762 28.8713 31.7604 28.8345L31.24 27.9933V27.9986Z" fill="white"/>
<path d="M31.6382 29.1184C31.5646 29.1184 31.5016 29.0816 31.4648 29.0238L30.9443 28.1826C30.8865 28.088 30.9127 27.9618 31.0126 27.904C31.1072 27.8462 31.2334 27.8778 31.2912 27.9724L31.8117 28.8134C31.838 28.8607 31.8485 28.9133 31.838 28.9659C31.8275 29.0185 31.7959 29.0658 31.7486 29.0921C31.717 29.1131 31.6803 29.1236 31.6435 29.1236L31.6382 29.1184ZM31.1178 27.9933C31.1178 27.9933 31.0863 27.9933 31.0758 28.0039C31.039 28.0301 31.0232 28.0774 31.0494 28.1195L31.5699 28.9606C31.5909 28.9974 31.6435 29.0132 31.6855 28.987C31.7013 28.9764 31.7171 28.9554 31.7223 28.9343C31.7223 28.9133 31.7223 28.8923 31.7118 28.8713L31.1914 28.0302C31.1914 28.0302 31.1493 27.9933 31.1231 27.9933H31.1178Z" fill="white"/>
<path d="M27.8728 22.5417C27.8308 22.4733 27.7414 22.4522 27.6783 22.4943C27.61 22.5363 27.589 22.6258 27.631 22.6889L30.5643 27.4358C30.5906 27.4779 30.638 27.5041 30.6853 27.5041C30.7116 27.5041 30.7378 27.4988 30.7588 27.4831C30.7904 27.462 30.8167 27.4305 30.8219 27.3937C30.8324 27.3569 30.822 27.3202 30.8062 27.2834L27.8728 22.5364V22.5417Z" fill="white"/>
<path d="M30.6842 27.5684C30.6106 27.5684 30.5475 27.5315 30.5107 27.4737L27.5774 22.7269C27.5195 22.6322 27.5458 22.5061 27.6404 22.4482C27.7351 22.3904 27.8612 22.4166 27.9191 22.5165L30.8524 27.2635C30.8787 27.3108 30.8892 27.3634 30.8787 27.416C30.8682 27.4685 30.8314 27.5158 30.7893 27.5421C30.7578 27.5632 30.721 27.5737 30.6842 27.5737V27.5684ZM27.7508 22.5323C27.7508 22.5323 27.7193 22.5323 27.7088 22.5428C27.672 22.5691 27.6562 22.6164 27.6825 22.6585L30.6159 27.4054C30.6369 27.4422 30.6894 27.458 30.7315 27.4317C30.7525 27.4212 30.763 27.4002 30.7683 27.3791C30.7683 27.3581 30.7682 27.3371 30.7577 27.3161L27.8244 22.5691C27.8244 22.5691 27.7824 22.5323 27.7561 22.5323H27.7508Z" fill="white"/>
<path d="M20.9533 32.1726L25.7948 34.9534C25.7948 34.9534 25.8422 34.9744 25.8632 34.9744C25.9158 34.9744 25.9631 34.9482 25.9893 34.9009C26.0104 34.8693 26.0156 34.8273 26.0051 34.7905C25.9946 34.7537 25.9736 34.7221 25.9368 34.7011L21.0952 31.9203C21.0269 31.8835 20.9375 31.9044 20.9007 31.9728C20.8639 32.0411 20.8849 32.1305 20.9533 32.1673V32.1726Z" fill="white"/>
<path d="M25.863 35.0328C25.8263 35.0328 25.7947 35.0222 25.7632 35.0065L20.9216 32.2255C20.827 32.1677 20.7901 32.0468 20.848 31.9469C20.9058 31.8523 21.0267 31.8156 21.1266 31.8734L25.9682 34.6543C26.0155 34.6806 26.047 34.7226 26.0628 34.7752C26.0786 34.8278 26.068 34.8803 26.0418 34.9277C26.005 34.9907 25.9366 35.0275 25.8683 35.0275L25.863 35.0328ZM20.9847 32.1204L25.8263 34.9013C25.8631 34.9224 25.9156 34.9066 25.9367 34.8698C25.9472 34.8487 25.9524 34.8278 25.9472 34.8068C25.9419 34.7857 25.9261 34.7699 25.9103 34.7541L21.0688 31.9732C21.0267 31.9522 20.9794 31.9627 20.9584 32.0048C20.9374 32.0469 20.9479 32.0942 20.9899 32.1204H20.9847Z" fill="white"/>
<path d="M15.3674 28.9779L20.209 31.7588C20.209 31.7588 20.2563 31.7798 20.2773 31.7798C20.3299 31.7798 20.3772 31.7535 20.4035 31.7062C20.4403 31.6378 20.4193 31.5485 20.3509 31.5117L15.5093 28.7308C15.441 28.694 15.3516 28.715 15.3148 28.7833C15.278 28.8517 15.299 28.9411 15.3674 28.9779Z" fill="white"/>
<path d="M20.2771 31.8366C20.2403 31.8366 20.2087 31.8261 20.1772 31.8103L15.3356 29.0295C15.241 28.9717 15.2042 28.8508 15.262 28.7509C15.3199 28.651 15.4408 28.6194 15.5407 28.6772L20.3822 31.4581C20.4768 31.516 20.5137 31.6369 20.4558 31.7368C20.419 31.7999 20.3507 31.8366 20.2771 31.8366ZM15.3987 28.9243L20.2403 31.7052C20.2771 31.7262 20.3297 31.7104 20.3507 31.6736C20.3717 31.6368 20.3612 31.5843 20.3191 31.5633L15.4776 28.7823C15.4355 28.7613 15.3882 28.7719 15.3619 28.8139C15.3409 28.8507 15.3514 28.9033 15.3935 28.9243H15.3987Z" fill="white"/>
<path d="M16.2565 43.0236L21.8393 42.9395C21.9182 42.9395 21.9813 42.8712 21.9813 42.7923C21.9813 42.7555 21.9655 42.7135 21.934 42.6872C21.9077 42.6609 21.8709 42.6504 21.8341 42.6504L16.2513 42.7345C16.2145 42.7345 16.1777 42.7503 16.1514 42.7766C16.1251 42.8028 16.1094 42.8396 16.1094 42.8764C16.1094 42.9553 16.1724 43.0183 16.2565 43.0183V43.0236Z" fill="white"/>
<path d="M16.2519 43.0866C16.1415 43.0866 16.0469 42.9972 16.0469 42.8868C16.0469 42.8342 16.068 42.7817 16.1048 42.7449C16.1416 42.7081 16.1941 42.6818 16.2466 42.6818L21.8294 42.5977C21.8767 42.5977 21.9293 42.6135 21.9714 42.6503C22.0134 42.6871 22.0345 42.7397 22.0345 42.7975C22.0345 42.9079 21.9451 43.0024 21.8347 43.0024L16.2519 43.0866ZM21.8294 42.7186L16.2466 42.8027C16.2466 42.8027 16.2046 42.8133 16.1888 42.8291C16.1731 42.8448 16.1626 42.8658 16.1678 42.8868C16.1678 42.9341 16.2046 42.9657 16.2519 42.9657L21.8294 42.8815C21.8767 42.8815 21.9136 42.8448 21.9083 42.7975C21.9083 42.7765 21.8978 42.7554 21.8821 42.7396C21.8663 42.7238 21.8452 42.7186 21.8294 42.7186Z" fill="white"/>
<path d="M15.5516 42.8919C15.5516 42.8183 15.4885 42.7553 15.4044 42.75L9.82163 42.8342C9.74278 42.8342 9.67969 42.9024 9.67969 42.9813C9.67969 43.0601 9.74278 43.1232 9.82163 43.1232L15.4044 43.0392C15.4833 43.0392 15.5464 42.9708 15.5464 42.8919H15.5516Z" fill="white"/>
<path d="M9.83003 43.1822C9.71963 43.1822 9.625 43.0928 9.625 42.9824C9.625 42.9298 9.64602 42.8772 9.68282 42.8404C9.71962 42.8036 9.7722 42.7774 9.82476 42.7774L15.4076 42.6934C15.5232 42.6934 15.6126 42.7827 15.6126 42.8931C15.6126 43.0035 15.5232 43.0981 15.4128 43.0981L9.83003 43.1822ZM15.4023 42.8143L9.82476 42.8983C9.82476 42.8983 9.78272 42.9089 9.76695 42.9246C9.75118 42.9404 9.74064 42.9614 9.7459 42.9824C9.7459 43.0297 9.78271 43.0666 9.83003 43.0666L15.4128 42.9824C15.4601 42.9824 15.497 42.9456 15.497 42.8983C15.497 42.851 15.4601 42.8195 15.4076 42.8143H15.4023Z" fill="white"/>
<path d="M22.6706 42.9279L23.5906 42.9122C23.6695 42.9122 23.7325 42.8438 23.7325 42.7649C23.7325 42.7229 23.7115 42.6861 23.6799 42.6598C23.6536 42.6336 23.6169 42.623 23.5801 42.6283L22.6654 42.6441C22.6286 42.6441 22.5918 42.6599 22.5655 42.6861C22.5392 42.7124 22.5234 42.7492 22.5234 42.786C22.5234 42.8649 22.5865 42.9279 22.6654 42.9279H22.6706Z" fill="white"/>
<path d="M22.666 42.9902C22.5556 42.9902 22.4662 42.9009 22.4609 42.7905C22.4609 42.7379 22.482 42.6853 22.5188 42.6433C22.5556 42.6065 22.6081 42.5801 22.6607 42.5801L23.5754 42.5645C23.6227 42.5645 23.6753 42.5801 23.7121 42.6117C23.7541 42.6485 23.7804 42.7063 23.7857 42.7642C23.7857 42.8745 23.6963 42.9691 23.5859 42.9691L22.666 42.9849V42.9902ZM23.5859 42.6906L22.6712 42.7063C22.6712 42.7063 22.6291 42.7168 22.6133 42.7326C22.5976 42.7484 22.5871 42.7694 22.5924 42.7905C22.5924 42.8325 22.6292 42.8693 22.6765 42.8693L23.5964 42.8535C23.6438 42.8535 23.6805 42.8167 23.6805 42.7694C23.6805 42.7484 23.67 42.722 23.649 42.7063C23.6332 42.6958 23.6174 42.6854 23.6016 42.6854L23.5859 42.6906Z" fill="white"/>
<path d="M25.477 50.6573L20.6564 53.4751C20.5881 53.5171 20.5671 53.6012 20.6039 53.6695C20.6301 53.7116 20.6774 53.7379 20.7248 53.7379C20.751 53.7379 20.7773 53.7326 20.7984 53.7169L25.6189 50.8991C25.6505 50.8781 25.6768 50.8466 25.6873 50.8098C25.6978 50.773 25.6873 50.7362 25.6715 50.6994C25.6347 50.6311 25.5453 50.61 25.477 50.6468V50.6573Z" fill="white"/>
<path d="M20.7257 53.802C20.6521 53.802 20.5891 53.7652 20.5523 53.7021C20.4944 53.6075 20.526 53.4813 20.6259 53.4235L25.4464 50.6058C25.541 50.5479 25.6672 50.5848 25.725 50.6794C25.7513 50.7267 25.7618 50.7793 25.746 50.8319C25.7303 50.8845 25.6987 50.9265 25.6514 50.9581L20.8308 53.7757C20.7993 53.7914 20.7625 53.802 20.731 53.802H20.7257ZM25.4989 50.711L20.6784 53.5286C20.6416 53.5496 20.6258 53.6022 20.6468 53.6443C20.6679 53.6811 20.7204 53.6969 20.7625 53.6758L25.5831 50.8581C25.5831 50.8581 25.6146 50.8266 25.6199 50.8056C25.6251 50.7846 25.6199 50.7635 25.6094 50.7425C25.5883 50.7057 25.5357 50.69 25.4937 50.711H25.4989Z" fill="white"/>
<path d="M19.9379 53.8943L15.1174 56.712C15.049 56.7541 15.028 56.8381 15.0648 56.9064C15.0911 56.9485 15.1384 56.9748 15.1857 56.9748C15.212 56.9748 15.2383 56.9696 15.2593 56.9538L20.0799 54.1362C20.1482 54.0941 20.1692 54.01 20.1324 53.9416C20.0956 53.8733 20.0063 53.8522 19.9379 53.889V53.8943Z" fill="white"/>
<path d="M15.1866 57.0382C15.113 57.0382 15.05 57.0015 15.0132 56.9384C14.9554 56.8437 14.9869 56.7176 15.0868 56.6597L19.9074 53.8421C20.002 53.7843 20.1281 53.821 20.1859 53.9157C20.2438 54.0103 20.2122 54.1365 20.1123 54.1943L15.2918 57.012C15.2603 57.0278 15.2234 57.0382 15.1919 57.0382H15.1866ZM19.9652 53.9472L15.1446 56.765C15.1078 56.786 15.092 56.8386 15.113 56.8754C15.1341 56.9122 15.1867 56.9278 15.2287 56.9068L20.0493 54.0892C20.0861 54.0682 20.1019 54.0156 20.0808 53.9788C20.0598 53.942 20.0072 53.9262 19.9705 53.9472H19.9652Z" fill="white"/>
<path d="M39.1797 21.3171L39.2375 26.9C39.2375 26.9 39.2428 26.9472 39.2586 26.9683C39.2848 27.0103 39.3321 27.0419 39.3847 27.0367C39.4215 27.0367 39.4583 27.0209 39.4846 26.9946C39.5109 26.9683 39.5267 26.9315 39.5267 26.8947L39.4688 21.3119C39.4688 21.233 39.4005 21.1699 39.3269 21.1699C39.248 21.1699 39.1849 21.233 39.1849 21.3119L39.1797 21.3171Z" fill="white"/>
<path d="M39.2013 26.9951C39.1855 26.9636 39.175 26.932 39.175 26.8952L39.1172 21.3124C39.1172 21.202 39.2066 21.1074 39.317 21.1074C39.4273 21.1074 39.522 21.1967 39.522 21.3071L39.5798 26.89C39.5798 26.9426 39.5588 26.9951 39.522 27.0319C39.4852 27.0687 39.4326 27.0897 39.38 27.0949C39.3064 27.0949 39.2381 27.0582 39.2013 26.9951ZM39.2381 21.3124L39.2959 26.8952C39.2959 26.9373 39.338 26.9793 39.38 26.9793C39.4011 26.9793 39.4221 26.9688 39.4378 26.953C39.4536 26.9372 39.4642 26.9163 39.4642 26.8952L39.4063 21.3124C39.4063 21.2651 39.3695 21.2283 39.3222 21.2283C39.2749 21.2283 39.2381 21.2651 39.2381 21.3124Z" fill="white"/>
<path d="M39.1328 14.8992L39.1906 20.482C39.1906 20.482 39.1959 20.5293 39.2117 20.5503C39.238 20.5924 39.2853 20.6187 39.3378 20.6187C39.4167 20.6187 39.4798 20.5556 39.4798 20.4768L39.422 14.8939C39.422 14.815 39.3589 14.752 39.28 14.752C39.2012 14.752 39.1381 14.8203 39.1381 14.8939L39.1328 14.8992Z" fill="white"/>
<path d="M39.1544 20.583C39.1387 20.5514 39.1281 20.5199 39.1281 20.4831L39.0703 14.9003C39.0703 14.7899 39.1597 14.6953 39.2701 14.6953C39.3805 14.6953 39.4751 14.7846 39.4751 14.895L39.5329 20.4779C39.5329 20.5883 39.4436 20.6828 39.3332 20.6828C39.2596 20.6828 39.1912 20.6461 39.1544 20.583ZM39.1912 14.9003L39.249 20.4831C39.249 20.5252 39.2911 20.5672 39.3332 20.5672C39.3805 20.5672 39.4173 20.5304 39.412 20.4831L39.3542 14.9003C39.3542 14.853 39.3174 14.8162 39.2701 14.8162C39.2228 14.8162 39.186 14.853 39.1912 14.9003Z" fill="white"/>
<path d="M57.9473 32.2521L53.1583 35.1223C53.1583 35.1223 53.1214 35.1539 53.1057 35.175C53.0794 35.217 53.0794 35.2749 53.1057 35.3169C53.1267 35.3484 53.1582 35.3747 53.195 35.3799C53.2318 35.3904 53.2686 35.3799 53.3054 35.3641L58.0944 32.4939C58.1628 32.4518 58.1838 32.3678 58.1418 32.2995C58.0997 32.2311 58.0156 32.2101 57.9473 32.2521Z" fill="white"/>
<path d="M53.0458 35.1448C53.0615 35.1132 53.0878 35.087 53.1194 35.0712L57.9084 32.2009C58.003 32.1431 58.1292 32.1747 58.187 32.2693C58.2448 32.3639 58.2133 32.4901 58.1187 32.5479L53.3297 35.4181C53.2824 35.4444 53.2298 35.455 53.1772 35.4392C53.1246 35.4234 53.0826 35.3919 53.051 35.3446C53.0142 35.2815 53.0142 35.2026 53.051 35.1395L53.0458 35.1448ZM57.9662 32.3061L53.1772 35.1764C53.1404 35.1974 53.1247 35.2499 53.151 35.292C53.1615 35.313 53.1825 35.3236 53.2035 35.3288C53.2245 35.3341 53.2456 35.3288 53.2666 35.3183L58.0556 32.4481C58.0924 32.427 58.1082 32.3744 58.0819 32.3323C58.0609 32.2955 58.0083 32.2798 57.9662 32.3061Z" fill="white"/>
<path d="M63.4472 28.9494L58.6582 31.8196C58.6582 31.8196 58.6214 31.8512 58.6057 31.8722C58.5794 31.9143 58.5794 31.9721 58.6057 32.0142C58.6477 32.0825 58.7318 32.1035 58.8002 32.0614L63.5892 29.1912C63.6575 29.1491 63.6785 29.0651 63.6364 28.9967C63.5944 28.9284 63.5103 28.9073 63.4419 28.9494H63.4472Z" fill="white"/>
<path d="M58.5458 31.842C58.5615 31.8104 58.5878 31.7842 58.6194 31.7684L63.4084 28.8982C63.503 28.8404 63.6292 28.8718 63.687 28.9665C63.7448 29.0611 63.7133 29.1873 63.6187 29.2451L58.8297 32.1153C58.735 32.1731 58.6089 32.1417 58.551 32.047C58.5142 31.984 58.5142 31.905 58.551 31.842H58.5458ZM63.4715 29.0033L58.6825 31.8735C58.6457 31.8946 58.6299 31.9471 58.6562 31.9892C58.6772 32.026 58.7298 32.0418 58.7718 32.0155L63.5609 29.1452C63.5976 29.1242 63.6134 29.0717 63.5872 29.0296C63.5661 28.9928 63.5135 28.977 63.4715 29.0033Z" fill="white"/>
<path d="M51.2631 46.1972C50.9109 45.7976 50.4063 45.5664 49.8701 45.5558C49.3549 45.3719 48.866 45.1352 48.4139 44.8409C46.8264 43.8158 45.98 42.3491 45.5542 41.2977C45.5489 41.2767 45.5384 41.261 45.5279 41.2452C45.3387 40.9351 44.9917 40.4882 44.4345 40.1307C43.8089 39.7312 43.1886 39.6103 42.7785 39.584C42.768 39.584 42.7628 39.584 42.7523 39.584C41.6589 39.584 40.5602 39.584 39.4615 39.584C38.3628 39.584 37.2694 39.584 36.1707 39.584C36.1549 39.584 36.1339 39.584 36.1181 39.584C35.5293 39.6681 34.9931 39.8679 34.5253 40.1833C34.0364 40.5145 33.7683 40.872 33.4897 41.2452C33.0639 41.813 32.8536 42.2598 32.6486 42.6909C32.4173 43.1798 32.2017 43.6476 31.655 44.3204L31.6235 44.3573C31.5814 44.4098 31.5604 44.4361 31.5289 44.4729C30.9769 45.088 30.12 45.4822 28.9792 45.6294C28.0856 45.6136 27.2918 46.2497 27.1709 47.0908C27.1078 47.5482 27.2498 48.0265 27.5704 48.405C27.9121 48.8046 28.4063 49.0411 28.9319 49.0569C28.9319 49.0569 28.9319 49.0569 28.9372 49.0569C28.9582 49.0569 28.9793 49.0569 29.0003 49.0569C29.9938 49.0569 31.471 48.8623 32.9482 47.9687C34.2256 47.1959 35.0457 46.1709 35.5609 45.2877C35.5924 47.0961 35.624 48.7573 35.6502 50.2765C35.7869 57.7833 35.8395 61.7996 35.8237 62.2254C35.8237 62.2254 35.8237 62.2254 35.8237 62.2306C35.7816 62.73 35.9499 63.2242 36.2968 63.5922C36.628 63.9444 37.0854 64.1441 37.5532 64.1336C38.0106 64.123 38.4521 63.9128 38.7675 63.5501C39.0935 63.1769 39.2459 62.6827 39.1934 62.1938C39.1934 62.1938 39.1934 62.1885 39.1934 62.1833C39.1566 61.626 39.1566 58.8189 39.1934 53.8407H39.5035V62.2254C39.4772 62.7511 39.6717 63.2662 40.0502 63.6394C40.3814 63.9706 40.8125 64.1546 41.2541 64.1546C41.2909 64.1546 41.3277 64.1546 41.3592 64.1546C42.2792 64.0915 43.0151 63.2242 42.9626 62.2569C42.9889 59.639 43.0151 57.0159 43.0466 54.3979C43.0624 53.0417 43.073 51.6853 43.0887 50.329C43.0887 50.3132 43.0887 50.2975 43.0887 50.287C43.0887 50.2765 43.0887 50.2607 43.0887 50.2502C43.1045 48.9518 43.115 47.6586 43.1308 46.3602C43.4304 46.0868 43.6985 45.8292 43.9403 45.5822C44.7709 46.418 45.7014 47.1328 46.716 47.7058C47.5991 48.2052 48.5506 48.6048 49.5494 48.8886C49.5652 48.8886 49.5757 48.8939 49.5915 48.8991C50.1014 48.9833 50.6113 48.8624 51.0213 48.5628C51.3841 48.2999 51.6259 47.9162 51.6837 47.5114C51.752 47.0593 51.5996 46.5862 51.2631 46.2077V46.1972ZM35.829 62.2517C35.829 62.2517 35.829 62.2412 35.829 62.2359C35.829 62.2412 35.829 62.2464 35.829 62.2517ZM42.2161 62.2833C42.2529 62.9141 41.7745 63.3766 41.3066 63.4082C41.0491 63.4239 40.7809 63.3188 40.5759 63.1138C40.3499 62.893 40.2342 62.5829 40.2553 62.2675C40.2553 62.257 40.2553 62.2517 40.2553 62.2412V53.6672C40.2553 53.3518 39.9924 53.0994 39.677 53.0994H39.0199C39.0199 53.0994 38.9726 53.0994 38.9463 53.1046C38.8937 53.1152 38.7518 53.152 38.6309 53.2782C38.5468 53.357 38.4889 53.4569 38.4574 53.5673C38.4469 53.5989 38.4416 53.6356 38.4416 53.6672C38.4048 58.8347 38.4048 61.6419 38.4416 62.2359C38.4416 62.2569 38.4416 62.2726 38.4469 62.2937C38.4732 62.5723 38.3838 62.851 38.1998 63.0613C38.0211 63.261 37.7793 63.3819 37.5322 63.3871C37.2799 63.3924 37.0276 63.2819 36.8436 63.0822C36.6491 62.8719 36.5492 62.5933 36.5702 62.3094C36.5702 62.2937 36.5702 62.2832 36.5702 62.2675C36.5912 61.8206 36.5386 58.0041 36.4072 50.6497H42.3264C42.3159 51.8956 42.3002 53.1363 42.2897 54.3822C42.2634 57.0053 42.2371 59.6285 42.2055 62.2569C42.2055 62.2675 42.2055 62.2727 42.2055 62.2833H42.2161ZM42.5052 45.9028C42.3633 46.0289 42.2108 46.1656 42.0321 46.3181C41.9953 46.3496 41.9585 46.3811 41.9217 46.4074C41.6168 46.1551 41.2961 45.8712 40.9386 45.5295C40.6337 45.2352 40.3919 44.9934 40.1764 44.7673C39.8873 44.4624 39.6928 44.2048 39.5509 43.9472C39.4089 43.6896 39.3353 43.4846 39.3037 43.2901C39.2564 42.9747 39.3248 42.7013 39.5035 42.4437C39.5193 42.4227 39.535 42.3964 39.5561 42.3754C39.5613 42.3702 39.5666 42.3596 39.5719 42.3544C39.5824 42.3386 39.5982 42.3228 39.6087 42.3123C39.6139 42.307 39.6192 42.2966 39.6297 42.2914C39.6402 42.2808 39.6507 42.265 39.6665 42.2545C39.6718 42.2493 39.6822 42.2387 39.6875 42.2335C39.698 42.223 39.7138 42.2124 39.7243 42.2019C39.7296 42.1966 39.7401 42.1914 39.7454 42.1808C39.7559 42.1703 39.7716 42.1599 39.7821 42.1494C39.7874 42.1441 39.7979 42.1389 39.8032 42.1336C39.819 42.1231 39.8294 42.1126 39.8452 42.102C39.8505 42.102 39.861 42.0915 39.8663 42.0863C39.882 42.0757 39.8978 42.0652 39.9136 42.06C39.9188 42.06 39.9241 42.0547 39.9346 42.0494C39.9504 42.0389 39.9661 42.0338 39.9872 42.0232C39.9872 42.0232 39.9977 42.0232 40.0029 42.018C40.024 42.0075 40.045 42.0022 40.066 41.9917C40.066 41.9917 40.066 41.9917 40.0713 41.9917C40.1659 41.9549 40.2658 41.9338 40.3709 41.9233C40.3709 41.9233 40.3814 41.9233 40.3867 41.9233C40.4077 41.9233 40.4287 41.9233 40.4498 41.9233C40.455 41.9233 40.4656 41.9233 40.4708 41.9233C40.4866 41.9233 40.5076 41.9233 40.5234 41.9233C40.5549 41.9233 40.5917 41.9233 40.6285 41.9233C41.0175 41.9548 41.3171 42.1336 41.5537 42.4805C41.5642 42.4963 41.5748 42.5121 41.5853 42.5279C41.5958 42.5437 41.6063 42.5593 41.6168 42.5804C41.6851 42.6855 41.8008 42.7486 41.9269 42.7486C42.0531 42.7486 42.1688 42.6803 42.2371 42.5751C42.2581 42.5436 42.2739 42.5173 42.2844 42.4963C42.5683 42.0705 42.9362 41.8917 43.4356 41.9233C43.9613 41.9548 44.4292 42.3807 44.5291 42.9064C44.5501 43.0062 44.5554 43.1062 44.5449 43.206C44.5344 43.3743 44.4818 43.553 44.3924 43.7475C44.3136 43.9262 44.2032 44.1049 44.0665 44.2889C43.9824 44.3993 43.893 44.515 43.7826 44.6359C43.7353 44.6885 43.6932 44.7358 43.6459 44.7884C43.32 45.1406 42.9468 45.5085 42.4947 45.9133L42.5052 45.9028ZM50.9425 47.3905C50.9109 47.5955 50.7795 47.8006 50.5745 47.9478C50.3327 48.1265 50.0331 48.2 49.7282 48.1527C48.7924 47.8846 47.904 47.5113 47.0787 47.0435C46.1167 46.4967 45.2283 45.8134 44.4397 45.0196C44.445 45.0144 44.4503 45.0038 44.4555 44.9986C44.4713 44.9776 44.487 44.9617 44.5028 44.9407C44.5238 44.9144 44.5449 44.8882 44.5659 44.8672C44.5817 44.8461 44.5975 44.8303 44.608 44.8093C44.629 44.783 44.6448 44.762 44.6658 44.7357C44.6816 44.7147 44.6921 44.6989 44.7078 44.6779C44.7236 44.6516 44.7446 44.6306 44.7604 44.6043C44.7709 44.5833 44.7867 44.5675 44.7972 44.5464C44.813 44.5202 44.8287 44.4992 44.8445 44.4729C44.855 44.4571 44.8655 44.4361 44.8813 44.4203C44.8971 44.394 44.9129 44.373 44.9234 44.3467C44.9339 44.331 44.9444 44.3099 44.9549 44.2941C44.9707 44.2678 44.9812 44.2416 44.997 44.2153C45.0075 44.1996 45.0127 44.1837 45.0232 44.168C45.0443 44.1312 45.06 44.0944 45.0758 44.0576C45.0758 44.0523 45.081 44.0471 45.081 44.0418C45.2861 43.5897 45.3492 43.1692 45.2703 42.7539C45.1547 42.1388 44.7499 41.629 44.2137 41.3556C43.9929 41.2452 43.7458 41.1716 43.4883 41.1558C43.4725 41.1558 43.4514 41.1558 43.4356 41.1558C43.4146 41.1558 43.3936 41.1558 43.3726 41.1558C42.8048 41.1453 42.3107 41.3504 41.9269 41.7446C41.5905 41.3977 41.1699 41.1978 40.681 41.161C39.9451 41.1032 39.33 41.3977 38.899 42.0022C38.6046 42.4175 38.4942 42.8853 38.5678 43.39C38.6257 43.7685 38.7833 44.0891 38.899 44.2994C39.0514 44.5727 39.2512 44.8462 39.5193 45.1458C39.5561 45.1879 39.5981 45.2299 39.6402 45.2772C39.861 45.5138 40.1133 45.7661 40.4287 46.0658C40.8756 46.4968 41.2646 46.8333 41.6431 47.1329C41.6641 47.1487 41.6851 47.1644 41.7114 47.1801C41.7325 47.1907 41.7587 47.2012 41.7798 47.2117C41.8008 47.2222 41.8271 47.2275 41.8534 47.2328C41.8797 47.2328 41.9006 47.238 41.9269 47.238C41.9269 47.238 41.9374 47.238 41.9427 47.238C41.948 47.238 41.9585 47.238 41.9638 47.238C41.969 47.238 41.9743 47.238 41.9795 47.238C41.9848 47.238 41.9953 47.238 42.0005 47.238C42.0058 47.238 42.0111 47.238 42.0163 47.238C42.0216 47.238 42.0268 47.238 42.0374 47.238C42.0426 47.238 42.0531 47.238 42.0583 47.2328C42.0636 47.2328 42.0689 47.2328 42.0741 47.2275C42.0794 47.2275 42.0899 47.2222 42.0952 47.217C42.0952 47.217 42.1057 47.217 42.111 47.2117C42.1162 47.2117 42.1267 47.2064 42.1319 47.2012C42.1319 47.2012 42.1425 47.2012 42.1425 47.1959C42.153 47.1959 42.1583 47.1854 42.1688 47.1801C42.1688 47.1801 42.174 47.1801 42.1793 47.1801C42.1898 47.1749 42.2003 47.1645 42.2108 47.154C42.2424 47.1277 42.2792 47.1013 42.3107 47.075C42.3318 47.0593 42.3475 47.0436 42.3685 47.0278C42.358 47.9898 42.3475 48.9571 42.337 49.9191H36.3967C36.3652 48.0371 36.3231 45.9396 36.281 43.6161C36.281 43.4321 36.1391 43.2796 35.9604 43.2533C35.7816 43.227 35.6029 43.3374 35.5503 43.5109C35.3138 44.2626 34.5516 46.1393 32.5645 47.3431C31.2082 48.1632 29.8519 48.3262 28.953 48.321C28.6376 48.3105 28.3484 48.1738 28.1434 47.9372C27.9647 47.7217 27.8806 47.4588 27.9121 47.2117C27.9805 46.7439 28.4641 46.3758 28.9845 46.3969C29.0055 46.3969 29.0266 46.3969 29.0476 46.3969C30.3881 46.2234 31.4079 45.7503 32.0861 44.9933C32.1334 44.9408 32.1649 44.9039 32.207 44.8461L32.2333 44.8093C32.8326 44.0681 33.0796 43.5424 33.3214 43.0325C33.5159 42.6172 33.7 42.223 34.0837 41.713C34.3728 41.324 34.5726 41.0717 34.9406 40.8247C35.3033 40.5776 35.7291 40.4198 36.1917 40.3515C37.2799 40.3515 38.368 40.3515 39.4562 40.3515C40.5496 40.3515 41.6431 40.3515 42.7312 40.3515C43.0519 40.3725 43.5355 40.4671 44.0244 40.7773C44.4502 41.0507 44.7184 41.3872 44.8708 41.629C45.3439 42.775 46.2691 44.3677 48.0039 45.4874C48.5243 45.8239 49.0868 46.0973 49.6808 46.297C49.7229 46.3128 49.7649 46.3181 49.807 46.3181C50.1487 46.3128 50.4694 46.4547 50.6954 46.7018C50.8794 46.9121 50.9688 47.175 50.9372 47.401L50.9425 47.3905Z" fill="white"/>
<path d="M39.3317 39.3367C39.3317 39.3367 39.3475 39.3367 39.3527 39.3367C40.2674 39.3367 41.1347 38.9792 41.7918 38.3327C42.4595 37.6808 42.8274 36.8133 42.838 35.8934C42.8432 34.9524 42.4858 34.0587 41.8234 33.3859C41.1768 32.7287 40.3147 32.3608 39.4053 32.3555C38.4643 32.3503 37.5706 32.7026 36.903 33.3491C36.2301 33.9957 35.8569 34.8631 35.8516 35.7883C35.8411 37.7649 37.3709 39.3209 39.3317 39.3314V39.3367ZM37.4234 33.8906C37.9491 33.386 38.643 33.1074 39.3842 33.1074C39.3895 33.1074 39.3947 33.1074 39.4 33.1074C40.1097 33.1074 40.7825 33.3964 41.2872 33.9115C41.8076 34.4425 42.0968 35.1416 42.0863 35.8829C42.0757 37.3758 40.8457 38.585 39.3475 38.585C39.3422 38.585 39.3369 38.585 39.3317 38.585C37.7914 38.5745 36.5875 37.3496 36.5981 35.7935C36.5981 35.0734 36.8925 34.3953 37.4182 33.8906H37.4234Z" fill="white"/>
</g>
</svg>
