<svg width="76" height="76" viewBox="0 0 76 76" fill="none" xmlns="http://www.w3.org/2000/svg">
<path d="M37.9004 75.0176C58.4525 75.0176 75.1133 58.3568 75.1133 37.8047C75.1133 17.2526 58.4525 0.591797 37.9004 0.591797C17.3483 0.591797 0.6875 17.2526 0.6875 37.8047C0.6875 58.3568 17.3483 75.0176 37.9004 75.0176Z" fill="#33BED4"/>
<g clip-path="url(#clip0_924_3774)">
<path d="M63.6225 49.4496C62.9924 48.7847 62.392 48.1844 61.7867 47.6187C60.8787 46.7604 59.931 46.4875 58.9833 46.805C58.0158 47.1226 57.3013 46.9191 56.7307 46.155C56.7009 46.1302 56.6712 46.1104 56.6513 46.0905L53.7586 43.1482L53.977 42.9051C54.9743 41.7937 55.3067 40.7368 55.014 39.5708C54.7163 38.38 53.8876 37.5713 52.4785 37.1049L52.2007 37.0156L52.2453 36.7278C52.5778 34.5347 51.7392 33.1454 49.69 32.4706L49.4271 32.3863L49.4519 32.1134C49.6553 29.6276 49.2931 29.0222 46.8619 27.7868L46.6584 27.6826L46.6882 27.241C46.7031 27.0425 46.718 26.844 46.7328 26.6406C46.8023 25.7773 46.5294 24.9487 45.9687 24.3136C45.4031 23.6685 44.6043 23.2914 43.7161 23.2517C43.2051 23.2269 42.7635 23.1823 42.3715 23.1079C41.0566 22.8647 39.7467 22.6166 38.4319 22.3636C37.5884 22.2048 36.7449 22.0411 35.8965 21.8823C34.8545 21.6888 33.9961 21.669 33.1774 22.2048C32.8648 22.4132 32.4282 22.3834 32.0859 22.3388C31.0886 22.2048 30.1508 22.443 29.4462 23.0037C28.7764 23.5395 28.3646 24.3483 28.2852 25.2811C28.2604 25.5391 28.2901 25.817 28.3199 26.1097C28.3348 26.2585 28.3497 26.4124 28.3546 26.5662L28.3745 26.8341L28.1165 26.9185C26.0474 27.5933 25.2139 28.9676 25.5711 31.126L25.6108 31.3691L25.3925 31.4832C22.5842 33.0114 22.1128 34.1874 23.2937 36.7327L23.4475 37.0602L23.1051 37.1991C21.9391 37.6705 21.1701 38.5289 20.9468 39.6205C20.7037 40.7716 21.1205 41.9922 22.088 42.9746L22.3311 43.2227L21.1056 44.4036C20.3018 45.1776 19.5129 45.9367 18.719 46.7008C18.193 47.2119 17.5976 46.9886 17.3099 46.8844C16.9923 46.7653 16.6797 46.7058 16.3771 46.7058C15.7618 46.7058 15.1862 46.9539 14.6553 47.45C13.7325 48.3183 12.9287 49.1221 12.1894 49.9111C11.0928 51.087 11.1673 52.8236 12.363 53.9449C13.3355 54.8529 14.3725 55.8552 15.5336 56.9914C16.898 58.3311 18.2575 59.6708 19.6171 61.0104C21.0361 62.4096 22.4502 63.8088 23.8742 65.1981C25.1692 66.4733 26.9257 66.4931 28.2405 65.2577C28.4836 65.0294 28.7169 64.7913 28.9501 64.5531C29.218 64.2802 29.481 64.0073 29.7638 63.7493C31.034 62.5783 31.3317 61.323 30.6867 59.7998C30.5626 59.5021 30.6569 59.0158 30.8851 58.7776C31.9767 57.6464 33.1129 56.5201 34.2144 55.4334C34.8495 54.8033 35.6136 54.5205 36.4819 54.5205L37.2262 54.5304C38.2136 54.5403 39.2357 54.5552 40.238 54.6197C40.6647 54.6495 41.1559 54.8678 41.4834 55.1804C42.2078 55.8701 42.9272 56.5895 43.6169 57.2842C44.0883 57.7555 44.5596 58.2269 45.0359 58.6933C45.4527 59.1051 45.552 59.5368 45.3535 60.0677C44.8871 61.2982 45.1401 62.3848 46.1325 63.392C46.6882 63.9527 47.2439 64.5134 47.8095 65.0641C49.1988 66.4237 50.9751 66.4187 52.3446 65.0542C56.0907 61.328 59.8268 57.5868 63.563 53.8457C64.863 52.5457 64.8878 50.7794 63.6225 49.4496ZM34.4129 22.9789C34.7453 22.8697 35.1175 22.9689 35.2266 22.9987C35.9411 23.1823 36.6854 23.2071 37.4098 23.3361C38.1193 23.4601 38.8288 23.604 39.5632 23.7529C39.8906 23.8223 40.2181 23.8918 40.5605 23.9563L41.1956 24.0853L40.1536 25.1322C39.3895 25.9013 38.6452 26.6456 37.896 27.3799C37.7918 27.4891 37.6281 27.5337 37.4743 27.5337C37.3552 27.5337 37.246 27.5089 37.1617 27.4593C35.3953 26.3876 34.3236 25.0628 33.7877 23.2865C33.8324 23.2567 33.8969 23.2121 33.9812 23.1724C33.9812 23.1724 34.1995 23.0533 34.4129 22.9838V22.9789ZM29.5951 24.7105C29.9176 23.9513 30.5477 23.5098 31.421 23.4453H31.4508H31.4805C31.932 23.4899 32.5721 23.6288 32.8897 24.3731C33.748 26.3727 35.1869 27.8215 37.2957 28.7989C38.283 29.2604 38.5758 30.1088 38.1044 31.126C37.8613 31.6569 37.4296 32.0638 36.9235 32.2473C36.735 32.3118 36.5415 32.3466 36.348 32.3466C36.1148 32.3466 35.8816 32.292 35.6633 32.1928C35.2465 31.9893 34.9041 31.7611 34.6461 31.508C33.1278 30.0245 31.6641 28.5608 30.0516 26.9433C29.4165 26.3082 29.2577 25.5143 29.5951 24.7105ZM27.2283 28.7146C28.0321 27.891 29.1981 27.8513 30.0069 28.6154C31.3515 29.8806 32.6267 31.1756 34.1301 32.7286C34.3484 32.9519 34.4476 33.2546 34.5221 33.4729C34.5419 33.5374 34.5618 33.5969 34.5866 33.6465L34.6213 33.7259V33.8202C34.5568 34.495 34.3831 35.3236 33.5297 35.7602C33.1824 35.9339 32.84 36.0232 32.5126 36.0232C32.0462 36.0232 31.6145 35.8446 31.2523 35.5022C29.6348 33.9641 28.3348 32.674 27.1638 31.4435C26.4196 30.6596 26.4493 29.5134 27.2283 28.7146ZM24.4696 33.324C25.3082 32.5004 26.5039 32.5252 27.3871 33.3836C28.3546 34.3313 29.342 35.2988 30.2748 36.2911C30.5031 36.5343 30.642 36.827 30.776 37.1148C30.8305 37.2289 30.8851 37.343 30.9447 37.4522L30.9943 37.5465L30.9844 37.6507C30.9149 38.4743 30.4634 39.1739 29.7836 39.5212C29.5107 39.6601 29.2229 39.7296 28.9302 39.7296C28.5928 39.7296 28.2504 39.6304 27.9379 39.4418C27.3921 39.1144 26.9306 38.6678 26.4841 38.2361C26.3799 38.1369 26.2806 38.0426 26.1765 37.9434C25.5364 37.3381 24.941 36.7178 24.4994 36.2415C23.6559 35.3435 23.641 34.1427 24.4696 33.324ZM22.6586 38.8613C23.4475 38.1171 24.4002 38.0526 25.1444 38.6976C25.7944 39.2632 26.37 39.8834 26.8016 40.3548C26.9753 40.5483 27.0547 40.7914 27.1093 40.97C27.1241 41.0197 27.139 41.0643 27.1539 41.099L27.1886 41.1834L27.1787 41.2677C27.0894 42.2055 26.6974 42.8505 25.9879 43.2326C25.7001 43.3914 25.4024 43.4707 25.1146 43.4707C24.683 43.4707 24.2662 43.302 23.8941 42.9647C23.2639 42.399 22.7777 41.9028 22.3708 41.4116C21.7556 40.6723 21.8796 39.5956 22.6586 38.8613ZM29.0741 62.7917L28.7764 63.1043C28.3844 63.5161 27.9776 63.9378 27.531 64.3149C27.273 64.5382 26.9703 64.697 26.6577 64.8706C26.5138 64.9451 26.365 65.0245 26.2112 65.1138L26.0226 65.2229L25.844 65.1038C25.7001 65.0096 25.5513 64.9203 25.4123 64.8409C25.0948 64.6523 24.7971 64.4737 24.544 64.2256C22.8124 62.5188 21.0957 60.7971 19.3739 59.0803C18.5751 58.2765 17.7713 57.4777 16.9675 56.6739C15.8759 55.5873 14.7794 54.5006 13.6729 53.424C13.0577 52.8236 12.7649 52.248 12.7798 51.6625C12.7897 51.1118 13.0775 50.5809 13.6382 50.0798C13.921 49.8217 14.1989 49.5439 14.4718 49.271C14.7397 48.9981 15.0126 48.7252 15.2954 48.4672C16.0645 47.7726 16.9725 47.7626 17.7763 48.4424C18.0938 48.7054 18.4114 49.0031 18.7587 49.3504C22.1922 52.8087 25.6207 56.2621 29.0493 59.7204C30.1458 60.8268 30.1508 61.6852 29.0741 62.7917ZM40.9921 53.1957C40.1635 53.3495 39.3101 53.3694 38.4815 53.3843C38.2185 53.3942 37.9605 53.3991 37.6976 53.4091C36.9186 53.4388 36.1197 53.3991 35.3358 53.4488C34.7453 53.4885 34.2144 53.7663 33.6488 54.3319L30.2996 57.7059C30.1806 57.825 30.0516 57.9391 30.0069 57.9838L29.7638 58.2021L29.5157 57.9887L19.2598 47.9958L20.2621 46.934C21.0609 46.0856 21.8201 45.2818 22.6139 44.4879C22.8819 44.215 23.4326 44.215 23.7254 44.3192C24.8318 44.7161 25.8986 44.6665 26.7272 44.1852C27.5459 43.7089 28.1016 42.8208 28.3001 41.6895C28.3844 41.1884 28.6375 40.9403 29.1386 40.8609C30.8305 40.593 31.679 39.7643 31.9817 38.0922C32.0859 37.5117 32.4084 37.1991 32.9988 37.1049C34.532 36.8617 35.435 35.9686 35.6781 34.4553C35.8121 33.6416 36.3232 33.4878 36.7945 33.4034C38.5162 33.0958 39.6029 31.6718 39.4342 29.9401C39.4044 29.6474 39.32 29.3249 39.191 29.0173C38.9578 28.4715 39.0571 27.9951 39.4987 27.5684C39.9154 27.1715 40.3223 26.7646 40.7341 26.3578C41.1956 25.9013 41.657 25.4448 42.1284 24.9933C42.9917 24.1647 44.1776 24.1548 45.0062 24.9685C45.81 25.7624 45.8149 27.0028 45.0111 27.8612C44.6539 28.2432 44.2818 28.6104 43.9096 28.9776C43.7409 29.1413 43.5772 29.305 43.4085 29.4688L43.3142 29.5631C43.2398 29.6375 43.1654 29.7069 43.1009 29.7863C42.9371 29.9749 42.7139 30.347 43.0116 30.6596C43.2448 30.9077 43.5772 30.8779 43.9096 30.5901C44.0783 30.4462 44.2321 30.2875 44.3909 30.1287C44.5943 29.9253 44.8077 29.7119 45.0359 29.5234C45.805 28.8982 46.718 28.8386 47.487 29.3695C47.9832 29.7169 48.2958 30.2081 48.3752 30.7638C48.4496 31.3195 48.2759 31.8901 47.884 32.3664C47.6061 32.6989 47.2985 33.0065 47.0008 33.2992L46.6287 33.6714C46.5393 33.7656 46.4451 33.8549 46.3508 33.9492C46.1771 34.1129 46.0084 34.2816 45.8546 34.4603C45.5768 34.7828 45.5619 35.0706 45.805 35.3137C46.0283 35.537 46.326 35.5221 46.6237 35.274C46.8122 35.1152 46.9809 34.9416 47.1645 34.758C47.3382 34.5843 47.5069 34.4107 47.6905 34.2519C48.3107 33.716 49.1046 33.5324 49.8042 33.7706C50.474 33.9939 50.9652 34.5694 51.124 35.3137C51.2629 35.9587 51.0793 36.574 50.598 37.0949C50.2557 37.4621 49.9084 37.8144 49.5561 38.1667C49.3328 38.3899 49.1095 38.6132 48.8912 38.8415C48.6828 39.0598 48.3801 39.4766 48.7275 39.814C49.045 40.1265 49.4221 39.9082 49.6801 39.675C49.819 39.551 49.953 39.417 50.082 39.2831C50.2011 39.164 50.3202 39.0449 50.4393 38.9308C51.3224 38.1071 52.4785 38.0774 53.3171 38.8613C54.1556 39.6403 54.1754 40.8559 53.3667 41.7441C52.1064 43.1284 50.9652 44.3787 49.7397 45.6043C47.9286 47.4252 45.5222 49.8168 43.0264 52.1686C42.4856 52.6747 41.7265 53.0617 40.9921 53.1957ZM42.6146 54.4113L52.7415 44.0513L56.8002 48.0703L46.5393 58.217L42.6146 54.4113ZM62.7592 53.0171C59.157 56.6243 55.3265 60.4597 51.5259 64.2256C51.2827 64.4638 50.9801 64.6226 50.6824 64.7764C50.5534 64.8458 50.4194 64.9153 50.2854 64.9947L50.1118 65.0989L49.9381 64.9996C49.8042 64.9252 49.6702 64.8607 49.5362 64.7962C49.2385 64.6523 48.9507 64.5134 48.7076 64.2951C48.1271 63.784 47.5416 63.2035 46.8668 62.4741C46.0581 61.5959 46.0779 60.5688 46.9264 59.7253C50.6625 55.9842 54.4086 52.258 58.1646 48.5317C59.0677 47.6336 59.9608 47.5989 60.9035 48.4176C61.5634 48.9931 62.2233 49.653 62.8684 50.3725C63.6077 51.1961 63.568 52.2083 62.7592 53.0171Z" fill="black"/>
<path d="M37.8678 14.4458V14.818C37.8728 15.1554 37.8728 15.5076 37.853 15.845C37.8381 16.0733 37.7388 16.2668 37.5751 16.3859C37.4014 16.5099 37.1782 16.5496 36.94 16.4901C36.5679 16.3908 36.4141 16.1626 36.4141 15.726V14.8527C36.4141 13.3642 36.419 11.8806 36.4339 10.3971C36.4389 9.90586 36.687 9.62305 37.1137 9.62305H37.1186C37.6098 9.62801 37.8579 9.89594 37.8678 10.4219C37.8827 11.4043 37.8778 12.3917 37.8728 13.3741V14.4458H37.8678Z" fill="black"/>
<path d="M50.3937 14.7371C49.6742 15.4168 48.9448 16.0817 48.2105 16.7416L47.1537 17.7091C46.8907 17.9523 46.6476 18.1805 46.3846 18.3889C46.206 18.5328 45.9976 18.5874 45.7991 18.5477C45.5907 18.508 45.4121 18.3641 45.293 18.1507C45.1144 17.8133 45.1789 17.5404 45.5014 17.2477L46.1167 16.6821C47.2231 15.6748 48.3296 14.6626 49.446 13.6653C49.8131 13.3379 50.1902 13.3279 50.478 13.6505C50.8055 14.0127 50.7757 14.3798 50.3937 14.7371Z" fill="black"/>
<path d="M29.4895 19.0256C29.3704 19.2389 29.1918 19.3828 28.9834 19.4225C28.785 19.4622 28.5766 19.4076 28.3979 19.2637C28.135 19.0504 27.877 18.8122 27.6289 18.584L26.5472 17.6015C25.8228 16.9416 25.0984 16.2867 24.3889 15.6119C24.0068 15.2546 23.9771 14.8875 24.2996 14.5253C24.4435 14.3665 24.6072 14.2871 24.7809 14.2871C24.9545 14.2871 25.148 14.3715 25.3366 14.5402C26.4232 15.5127 27.5048 16.5 28.5815 17.4825L29.2811 18.1225C29.6036 18.4153 29.6681 18.6882 29.4895 19.0256Z" fill="black"/>
</g>
<defs>
<clipPath id="clip0_924_3774">
<rect width="57.7395" height="57.7395" fill="white" transform="translate(9.11719 9.02734)"/>
</clipPath>
</defs>
</svg>
