<svg width="80" height="80" viewBox="0 0 80 80" fill="none" xmlns="http://www.w3.org/2000/svg">
<path d="M39.5206 79.0413C61.3473 79.0413 79.0413 61.3473 79.0413 39.5206C79.0413 17.694 61.3473 0 39.5206 0C17.694 0 0 17.694 0 39.5206C0 61.3473 17.694 79.0413 39.5206 79.0413Z" fill="#91C644"/>
<g clip-path="url(#clip0_924_3756)">
<path d="M68.7812 52.4949L68.0751 51.7783C66.9791 50.6664 65.8461 49.5124 64.6816 48.4375C64.3496 48.1318 63.7647 48.0001 63.3274 47.979C63.1113 47.9685 62.8426 48.0949 62.5686 48.2267C62.4315 48.2952 62.2893 48.369 62.1417 48.4269L62.0311 48.4691L61.8993 48.3584C61.8414 48.3163 61.7623 48.253 61.6991 48.1845C60.661 47.1201 60.5925 45.8238 60.6821 44.5855C60.7822 43.0627 60.7243 41.329 59.4754 40.0064C57.805 38.2306 56.3981 36.8237 55.0544 35.5854C53.7054 34.3418 52.0982 34.073 50.2803 34.7897C50.0642 34.874 49.8482 34.9741 49.6058 35.0848C49.4846 35.148 49.3581 35.206 49.2159 35.2692L48.9735 35.3798L48.9366 35.1164C48.9155 34.953 48.8891 34.7949 48.8628 34.6421C48.8101 34.3049 48.7574 33.9887 48.7521 33.6673C48.7416 31.159 48.7258 28.1976 48.7521 25.2151C48.7627 23.7239 48.3359 22.4382 47.4401 21.2842C47.0659 20.8046 46.9026 20.1828 46.7445 19.5769L46.6602 19.2765C46.4916 18.66 46.7656 18.2015 47.4242 17.9855C48.1409 17.7484 48.5045 17.2372 48.5045 16.4679C48.5045 15.9357 48.5045 15.4035 48.5097 14.866C48.515 13.4222 48.5203 11.9309 48.4834 10.4608C48.4676 9.63874 47.9617 9.1118 47.0975 9.01168C46.6286 8.95898 46.1385 8.95898 45.659 8.96425H45.4166C40.5687 8.95898 35.7261 8.95898 30.873 8.95898C29.4134 8.95898 28.8179 9.5597 28.8127 11.0246V11.6885C28.8074 13.1271 28.8074 14.5709 28.8127 16.0095C28.8232 17.3005 29.0919 17.6851 30.2565 18.0698C30.7676 18.2384 30.8203 18.5651 30.7992 18.8866C30.7518 19.7771 30.4304 20.5359 29.8455 21.1471C29.4872 21.5265 29.1183 21.8954 28.7494 22.2643C28.4754 22.5435 28.1961 22.8176 27.9221 23.1021C27.353 23.6923 26.6891 24.5038 26.6417 25.5629C26.5574 27.4704 26.5257 29.2304 26.5521 30.9535C26.5626 31.686 26.6469 32.4079 26.7312 33.172C26.7734 33.5092 26.8103 33.8517 26.8419 34.1942L26.8577 34.3787L26.6785 34.4103C25.5509 34.5947 24.6604 35.0268 23.9595 35.7224L23.206 36.4759C22.1205 37.5561 21.0403 38.6363 19.96 39.7218C19.059 40.6335 18.5847 41.74 18.5584 43.0205C18.5478 43.5 18.5478 43.9848 18.5478 44.4643C18.5478 44.8332 18.5531 45.202 18.5478 45.5709C18.532 46.7671 18.0894 47.7314 17.2358 48.4269L17.1409 48.506L17.025 48.4533C16.2978 48.1108 15.8604 47.9211 15.4968 47.9211C15.0121 47.9211 14.6537 48.2478 13.9002 49.0013L12.957 49.9445C12.1666 50.7297 11.3762 51.5201 10.591 52.3105C9.64252 53.2642 9.63725 54.1442 10.5699 55.0875C13.916 58.4546 17.2568 61.8165 20.6082 65.1784C21.0877 65.6632 21.5567 66.1322 22.0467 66.5432C22.5631 66.9753 23.3483 67.3283 24.1545 66.5643C25.6721 65.131 27.137 63.6345 28.4965 62.2328C28.9918 61.7164 29.0498 61.0946 28.6704 60.378C28.6177 60.2778 28.565 60.1777 28.507 60.0776L28.3542 59.7878L28.4333 59.6877C29.2289 58.7128 30.1564 58.1964 31.2682 58.1016C32.4433 58.0067 33.4814 57.5377 34.3508 56.7104C34.8145 56.2731 35.2624 55.8094 35.6998 55.3562C36.9223 54.0915 38.187 52.7847 39.8363 51.9469L39.968 51.8784L40.0681 51.9838C40.4686 52.379 40.8796 52.7795 41.2959 53.1852C42.255 54.1232 43.2403 55.0875 44.1994 56.0781C45.5009 57.4324 46.7445 58.07 48.2199 58.149C49.0261 58.1912 49.8113 58.618 50.4963 59.3768C50.6228 59.519 50.7914 59.8984 50.6544 60.1145C50.0537 61.063 50.217 61.8481 51.2235 62.823C51.9191 63.4975 52.6041 64.1825 53.2891 64.8728C53.6896 65.2785 54.0953 65.6843 54.5011 66.0847C55.7236 67.302 56.4244 67.3072 57.6258 66.1006L59.5861 64.1509C62.0732 61.6637 64.5657 59.1765 67.0476 56.6841C67.4902 56.2415 67.917 55.7725 68.3333 55.3141C68.523 55.1085 68.7127 54.8978 68.9077 54.6923C69.8035 53.7227 69.1184 52.8269 68.7812 52.4896V52.4949ZM30.2565 16.6471V10.4292H47.0607V16.6471H30.2565ZM23.0374 65.3734L11.3287 53.7912L15.6391 49.4597L27.3267 61.1842L23.0374 65.3734ZM35.9106 53.1272C35.8421 53.2168 35.7683 53.3169 35.6945 53.4223C35.489 53.7016 35.2624 54.0178 34.9779 54.2918C34.3192 54.9083 33.592 55.5301 32.7437 56.1888C32.4538 56.4154 32.0639 56.5734 31.7003 56.6103C29.8402 56.8053 28.5018 57.4429 27.4848 58.6127L27.3425 58.7761L18.1948 49.4755L18.3529 49.3385C20.0918 47.8367 20.0075 45.671 19.9284 43.5843C19.8863 42.4198 20.2446 41.4397 20.9981 40.6651C22.3998 39.2318 23.7119 37.9302 25.0134 36.6814C26.0462 35.6907 27.3267 35.5379 28.623 36.2493L28.8548 36.3758L26.8156 38.4098C26.6891 38.5362 26.5679 38.6522 26.473 38.7786C26.2254 39.1317 26.2254 39.432 26.4783 39.6902C26.7471 39.9695 27.079 39.9906 27.3636 39.7482C27.8115 39.3635 28.2383 38.9314 28.6546 38.5204C28.8021 38.3676 28.9497 38.2201 29.1025 38.0725C29.2975 37.8775 29.4924 37.6773 29.7243 37.4402L30.4778 36.6761V37.9987C30.4778 38.942 30.4831 39.8905 30.4936 40.839C30.5094 43.0363 30.5252 45.3127 30.4462 47.5469C30.4093 48.6746 30.815 49.6969 31.5264 50.2818C32.2062 50.8403 33.1336 51.0037 34.2085 50.7507L34.3403 50.7191L36.0054 53.0113L35.9106 53.1272ZM40.3421 48.3215C40.3053 48.0791 40.3053 47.8315 40.3105 47.5996V42.3566L40.3053 34.0045C40.3053 33.7094 40.2789 33.4776 40.2262 33.2773C40.1525 33.0191 39.968 32.7662 39.6571 32.8558C39.42 32.919 39.146 33.114 38.9405 33.3617C38.8825 33.4302 38.8878 33.6357 38.8931 33.7885V33.9413C38.8983 37.0713 38.9036 40.2066 38.9089 43.3367V49.386C38.9141 49.6705 38.9141 49.9603 38.8878 50.2501C38.814 51.0142 38.2923 51.5306 37.5704 51.5728H37.4861C36.8064 51.5728 36.2636 51.1091 36.1266 50.3924C36.0739 50.1079 36.0687 49.8233 36.0687 49.5124V34.0678L36.0634 33.9624C36.0687 33.7779 36.0687 33.6041 36.037 33.4354C35.9369 32.8663 35.6102 32.8084 35.3889 32.8084C34.8672 32.8084 34.7355 33.1667 34.725 33.4565C34.6828 34.2733 34.6617 35.1585 34.6564 36.244V42.3039C34.6564 44.1745 34.6564 46.0399 34.6512 47.9158C34.6512 48.5165 34.4035 49.0382 33.9872 49.3016C33.6289 49.5335 33.1968 49.5546 32.77 49.3543C32.3853 49.1805 32.0955 48.7536 31.9585 48.4322C31.8215 48.1213 31.8268 47.7682 31.832 47.4257V47.2782C31.8268 43.1733 31.8268 39.0684 31.8268 34.9636V32.1708C31.8268 32.0443 31.832 31.9178 31.8215 31.7966C31.7846 31.3487 31.5844 31.1432 31.1681 31.138C30.7255 31.1169 30.4989 31.3487 30.4831 31.7966C30.4725 32.1866 30.4725 32.5765 30.4778 32.9717C30.4778 33.2668 30.4778 33.5619 30.4725 33.857C30.4725 34.0783 30.4515 34.2943 30.4356 34.5209L30.3935 35.0637L30.1669 35.0057C28.9022 34.6948 28.0064 33.6041 27.9854 32.3552C27.9485 30.3317 27.9169 28.2398 28.0117 26.1478C28.0433 25.4417 28.4702 24.7251 28.8179 24.2508C29.1921 23.745 29.6558 23.3023 30.1089 22.8755C30.2618 22.7332 30.4146 22.5857 30.5674 22.4382C31.6265 21.3895 32.1535 20.2197 32.1851 18.8497C32.1904 18.4808 32.2799 18.1067 32.8859 18.1067H32.8912C35.7367 18.1172 38.5822 18.1172 41.4329 18.1172H44.7527C44.8159 18.1172 44.8738 18.1225 44.9529 18.1383L45.248 18.1752V18.5651C45.248 18.7179 45.248 18.8708 45.2427 19.0183C45.2322 20.2461 45.601 21.3158 46.344 22.201C47.0238 23.0073 47.3557 23.9505 47.3557 25.0729V31.3487C47.3557 35.1111 47.3557 38.8787 47.3505 42.6411C47.3505 42.9098 47.3347 43.1839 47.2925 43.4579C47.1819 44.2219 46.6707 44.6698 45.9225 44.6698H45.8961C45.1584 44.6593 44.6262 44.164 44.5419 43.3999C44.5261 43.2365 44.5261 43.0732 44.5261 42.9098V42.7676L44.5155 39.8905C44.505 37.8301 44.4945 35.7751 44.4839 33.7147C44.4786 33.3564 44.4101 33.114 44.2731 32.9823C44.1625 32.8821 43.9991 32.84 43.762 32.8505C43.4037 32.8716 43.2087 33.0402 43.1613 33.3775C43.1349 33.5619 43.1349 33.7516 43.1349 33.9518V37.6931C43.1349 40.9654 43.1349 44.2377 43.1297 47.51C43.1297 47.9105 43.0928 48.2425 43.0085 48.5218C42.8293 49.1383 42.2444 49.5388 41.591 49.4861C40.9376 49.4281 40.4475 48.9697 40.3421 48.3215ZM51.5765 58.4704C51.4606 58.3756 51.3394 58.2755 51.2288 58.1753C50.3014 57.327 49.1948 56.8316 47.8563 56.663C47.1819 56.5734 46.4599 56.2467 45.9699 55.7988C44.8001 54.7291 43.6513 53.591 42.5448 52.4896C42.1127 52.0576 41.6753 51.6202 41.2327 51.1881L40.9218 50.8825L41.4698 50.8403C41.5488 50.8403 41.6226 50.8298 41.7017 50.8245C43.3352 50.8034 44.3733 49.8233 44.4734 48.2056C44.4997 47.7419 44.4892 47.2782 44.4839 46.825C44.4786 46.6301 44.4786 46.4351 44.4786 46.2454V46.0504H44.6736C44.9002 46.0504 45.111 46.0504 45.3165 46.0662C45.717 46.0768 46.0647 46.0926 46.402 46.0399C47.7826 45.8133 48.7258 44.6593 48.7416 43.168C48.7521 41.9666 48.7416 40.7599 48.7363 39.5585C48.7363 39.021 48.7258 38.4835 48.7258 37.9408C48.7258 37.7511 48.7258 37.5087 48.8733 37.182L48.9945 36.9238L49.7217 37.6615C50.2434 38.199 50.7651 38.7312 51.292 39.2634L51.4132 39.3899C51.5397 39.5216 51.6556 39.6481 51.7926 39.7429C52.3512 40.1223 52.6357 39.7903 52.7253 39.6797C52.9993 39.3583 52.994 39.0526 52.7095 38.7365C52.2247 38.2043 51.7452 37.672 51.2709 37.1451L50.549 36.3389L50.7176 36.2071C51.5028 35.5959 52.8201 35.6591 53.7792 36.36C54.1954 36.6656 54.5643 37.0344 54.9226 37.3875L55.1439 37.6088C55.5497 38.004 55.9449 38.4045 56.3454 38.8102C56.8881 39.3583 57.4309 39.901 57.9894 40.4385C58.9063 41.3237 59.3279 42.4514 59.2804 43.8847C59.2488 44.8701 59.2752 45.7501 59.3647 46.5826C59.4701 47.5417 59.9444 48.4269 60.8665 49.3807L60.9983 49.523L51.8716 58.7181L51.5765 58.4704ZM56.0766 65.4893L51.9823 61.1684L63.4275 49.5019L67.7115 53.6437L56.0766 65.4893Z" fill="black"/>
</g>
<defs>
<clipPath id="clip0_924_3756">
<rect width="61.3202" height="61.3202" fill="white" transform="translate(8.95312 8.95898)"/>
</clipPath>
</defs>
</svg>
