<svg width="79" height="79" viewBox="0 0 79 79" fill="none" xmlns="http://www.w3.org/2000/svg">
<path d="M39.4266 78.8531C61.2012 78.8531 78.8531 61.2012 78.8531 39.4266C78.8531 17.6519 61.2012 0 39.4266 0C17.6519 0 0 17.6519 0 39.4266C0 61.2012 17.6519 78.8531 39.4266 78.8531Z" fill="#91C644"/>
<g opacity="0.99">
<path d="M41.481 26.8469C39.189 26.8469 37.3281 24.986 37.3281 22.694C37.3281 20.402 39.189 18.541 41.481 18.541C43.773 18.541 45.634 20.402 45.634 22.694C45.634 24.986 43.773 26.8469 41.481 26.8469ZM41.481 19.5819C39.7673 19.5819 38.3742 20.975 38.3742 22.6888C38.3742 24.4025 39.7673 25.7955 41.481 25.7955C43.1948 25.7955 44.5879 24.4025 44.5879 22.6888C44.5879 20.975 43.1948 19.5819 41.481 19.5819Z" fill="white"/>
<path d="M47.2246 38.0972H35.7436C34.7238 38.0972 33.8984 37.2666 33.8984 36.252V34.4542C33.8984 32.7404 34.4872 31.0635 35.5544 29.723C37.0053 27.9041 39.1658 26.8633 41.4894 26.8633C43.5185 26.8633 45.4215 27.6518 46.8566 29.0869C47.0564 29.2867 47.2509 29.5022 47.4244 29.723C48.5073 31.0793 49.075 32.7141 49.075 34.4489V36.2469C49.075 37.2667 48.2445 38.0919 47.2299 38.0919L47.2246 38.0972ZM41.4841 27.9147C39.4812 27.9147 37.6203 28.8136 36.3692 30.3801C35.4387 31.5471 34.9446 32.956 34.9446 34.4542V36.252C34.9446 36.6936 35.302 37.051 35.7436 37.051H47.2246C47.6662 37.051 48.0237 36.6936 48.0237 36.252V34.4542C48.0237 32.956 47.5295 31.5471 46.5991 30.3801C46.4466 30.1909 46.2837 30.0068 46.1102 29.8281C44.8748 28.5927 43.2346 27.9147 41.4841 27.9147Z" fill="white"/>
<path d="M54.0879 36.6423H48.0267V34.4553C48.0267 32.9571 47.5325 31.5483 46.6021 30.3812L46.2656 29.9607L46.6914 29.6348C47.6587 28.8988 48.8099 28.5098 50.0295 28.5098C51.5015 28.5098 52.8893 29.0828 53.9302 30.1237C54.971 31.1645 55.544 32.5523 55.544 34.0242V35.1703C55.544 35.9746 54.8869 36.6317 54.0826 36.6317L54.0879 36.6423ZM49.0728 35.596H54.0826C54.3139 35.596 54.4979 35.4121 54.4979 35.1808V34.0347C54.4979 32.8414 54.0353 31.7165 53.1889 30.8754C52.3426 30.029 51.2228 29.5664 50.0295 29.5664C49.22 29.5664 48.442 29.782 47.7533 30.1868C48.6155 31.4485 49.0728 32.9151 49.0728 34.4606V35.6013V35.596Z" fill="white"/>
<path d="M50.0234 28.5664C48.3149 28.5664 46.9219 27.1734 46.9219 25.4649C46.9219 23.7564 48.3149 22.3633 50.0234 22.3633C51.7319 22.3633 53.125 23.7564 53.125 25.4649C53.125 27.1734 51.7319 28.5664 50.0234 28.5664ZM50.0234 23.4094C48.8879 23.4094 47.968 24.3294 47.968 25.4649C47.968 26.6004 48.8879 27.5203 50.0234 27.5203C51.1589 27.5203 52.0789 26.6004 52.0789 25.4649C52.0789 24.3294 51.1589 23.4094 50.0234 23.4094Z" fill="white"/>
<path d="M34.9392 36.639H28.8833C28.079 36.639 27.4219 35.9818 27.4219 35.1775V34.0314C27.4219 30.9877 29.8979 28.5117 32.9416 28.5117C34.1559 28.5117 35.3125 28.9008 36.2797 29.6368L36.7055 29.9626L36.3691 30.3832C35.4386 31.5502 34.9445 32.9591 34.9445 34.4573V36.6441L34.9392 36.639ZM32.9364 29.5578C30.4709 29.5578 28.468 31.5607 28.468 34.0262V35.1723C28.468 35.4036 28.652 35.5876 28.8833 35.5876H33.8931V34.4467C33.8931 32.9223 34.3557 31.4241 35.2126 30.173C34.5239 29.7629 33.7512 29.5526 32.9364 29.5526V29.5578Z" fill="white"/>
<path d="M32.9375 28.5664C31.229 28.5664 29.8359 27.1734 29.8359 25.4649C29.8359 23.7564 31.229 22.3633 32.9375 22.3633C34.646 22.3633 36.039 23.7564 36.039 25.4649C36.039 27.1734 34.646 28.5664 32.9375 28.5664ZM32.9375 23.4094C31.802 23.4094 30.8821 24.3294 30.8821 25.4649C30.8821 26.6004 31.802 27.5203 32.9375 27.5203C34.073 27.5203 34.9929 26.6004 34.9929 25.4649C34.9929 24.3294 34.073 23.4094 32.9375 23.4094Z" fill="white"/>
<path d="M67.8563 45.2031C66.6104 44.3778 64.9335 44.1571 63.3775 44.6512C61.6953 45.1454 59.9552 45.6973 58.2152 46.2492C57.4687 46.5226 56.6592 46.8013 55.8496 47.0221L53.1108 47.9052L52.9846 47.4636C52.9216 47.2954 52.9215 47.185 52.9215 47.1325C52.7323 44.7564 51.1185 43.4894 48.3165 43.4894H44.8943C44.0847 43.4894 43.2752 43.4894 42.4656 43.4316C41.2198 43.3738 40.1631 43.2109 39.2905 42.9375C37.9237 42.4959 36.5516 41.9439 35.2479 41.3919L34.5645 41.1185C32.9454 40.4561 31.4525 40.125 29.8964 40.125H29.7703C28.3404 40.1828 26.9736 40.125 25.5385 40.125H20.4393L20.3762 39.7939C20.003 37.7542 19.1304 37.0918 16.707 37.0918H10.3619C9.30527 37.0918 9.24219 37.2022 9.24219 37.9749V57.5673C9.24219 58.2822 9.48925 58.34 9.98865 58.34H17.7005C18.8833 58.2822 19.8768 57.5673 20.187 56.5212C20.2501 56.4108 20.3132 56.2478 20.3132 56.1322L20.4393 55.6381L20.8126 55.5802C21.2489 55.5802 21.6852 55.5224 22.1163 55.5224C23.5461 55.5224 24.976 55.7432 26.4111 56.4634C28.1511 57.3466 29.9595 58.1193 31.8257 58.892C35.4319 60.3797 39.1065 60.7109 42.6496 59.833C44.642 59.3915 46.6291 58.6712 48.5583 58.0667L50.1144 57.5148C55.5868 55.6959 61.0644 53.8717 66.5368 52.0528C68.4661 51.3905 69.5227 50.1762 69.5858 48.4099C69.6489 47.1955 69.0286 45.9811 67.8458 45.2084L67.8563 45.2031ZM19.1461 55.5802C19.1461 56.9049 18.5837 57.3465 17.0329 57.3465H10.4986V38.0854H17.343C18.7729 38.1432 19.083 38.9685 19.1461 39.6309V55.5802ZM66.1163 51.1066C62.8202 52.2105 59.4611 53.3671 56.102 54.4711L51.4339 56.0165C49.1313 56.7893 46.8919 57.5043 44.6525 58.277C42.7232 58.9394 40.7308 59.2705 38.8647 59.2705C36.3782 59.2705 34.0126 58.7763 31.647 57.6724C31.0845 57.4516 30.5903 57.2309 30.0279 56.9575C29.0343 56.516 28.0355 56.0744 27.042 55.6328C25.4228 54.8022 23.809 54.471 22.0637 54.5867H20.3237V41.1764L21.0071 41.1185H29.9648C31.2107 41.1185 32.3934 41.3393 33.5132 41.7809C33.8864 41.9491 34.1966 42.0543 34.5698 42.2225C35.3794 42.4959 36.1889 42.827 36.9985 43.216C38.8016 44.0992 40.9201 44.483 43.5906 44.483H45.3937C46.5134 44.483 47.6962 44.4252 48.8159 44.483C50.1196 44.483 51.2393 45.1979 51.5548 46.3018C51.8018 47.0746 51.6809 47.8474 51.1184 48.452C50.619 49.1143 49.7516 49.4981 48.8159 49.4981H37.5557C37.3086 49.4981 37.1194 49.498 36.9985 49.5558C36.5622 49.6084 36.4991 49.8291 36.4991 50.0499C36.5621 50.2707 36.6252 50.439 37.0616 50.4916H48.5058C49.6886 50.4916 50.6821 50.2182 51.4917 49.6084C51.6757 49.498 51.928 49.3876 52.2381 49.2772L53.1686 48.9461C56.6539 47.8421 60.134 46.7381 63.6193 45.5816C64.6759 45.2504 65.7956 45.3083 66.7313 45.8025C67.5409 46.1915 68.1612 46.9064 68.3505 47.7896C68.6606 49.2247 67.7932 50.5493 66.111 51.1013L66.1163 51.1066Z" fill="white"/>
</g>
</svg>
