<svg width="79" height="79" viewBox="0 0 79 79" fill="none" xmlns="http://www.w3.org/2000/svg">
<path d="M39.4266 78.8531C61.2012 78.8531 78.8531 61.2012 78.8531 39.4266C78.8531 17.6519 61.2012 0 39.4266 0C17.6519 0 0 17.6519 0 39.4266C0 61.2012 17.6519 78.8531 39.4266 78.8531Z" fill="#FFCA2D"/>
<g opacity="0.99">
<path d="M33.9617 51.5132C33.6042 51.5132 33.3203 51.2241 33.3203 50.8719V43.6648C33.3203 43.3073 33.6094 43.0234 33.9617 43.0234C34.3139 43.0234 34.603 43.3126 34.603 43.6648V50.8719C34.603 51.2294 34.3139 51.5132 33.9617 51.5132Z" fill="white"/>
<path d="M14.3502 57.321C13.6668 57.321 12.4787 57.1686 11.4168 56.2749C10.213 55.2603 9.92915 53.9251 9.86607 53.3994C9.86607 53.3836 9.86607 53.3678 9.86607 53.3468C9.70311 49.688 9.53489 46.0293 9.37193 42.3757C9.34564 41.7975 9.34565 38.822 11.7533 36.6457C13.8876 34.7164 16.4319 34.7374 17.2099 34.7952L32.9385 34.6113C32.9385 34.6113 32.9438 34.6113 32.949 34.6113C33.6639 34.6113 36.1504 34.7742 38.1375 36.7824C40.1089 38.78 40.2508 41.2508 40.2455 41.9657L40.3297 54.2195C40.3297 54.577 40.0458 54.8661 39.6883 54.8661C39.3361 54.8661 39.047 54.5822 39.047 54.2248L38.9629 41.9657V41.9552C38.9629 41.3664 38.8525 39.3268 37.2228 37.6814C35.5879 36.0307 33.5483 35.894 32.9543 35.894L17.1994 36.078C17.1994 36.078 17.1574 36.078 17.1416 36.078C16.5318 36.0307 14.3975 35.9886 12.6207 37.5972C10.6388 39.3898 10.6388 41.8447 10.6599 42.3179C10.8228 45.9661 10.991 49.6144 11.154 53.2627C11.2066 53.657 11.4169 54.5822 12.258 55.2919C13.2252 56.1067 14.3449 56.0541 14.6656 56.0173C14.6866 56.0173 14.7129 56.0173 14.7339 56.0173C16.6632 56.012 18.5925 56.0068 20.5218 56.0015C20.874 56.0015 21.1631 56.2906 21.1631 56.6428C21.1631 57.0003 20.8792 57.2894 20.5218 57.2894C18.603 57.2947 16.6842 57.3 14.7655 57.3052C14.6656 57.3157 14.5289 57.3263 14.3554 57.3263L14.3502 57.321Z" fill="white"/>
<path d="M27.6607 55.1295C27.6607 55.1295 27.6344 55.1295 27.6187 55.1295C27.2665 55.1033 26.9984 54.7983 27.0194 54.4461C27.0457 54.0308 26.8512 53.5578 26.4937 53.1793C26.2308 52.9006 25.6473 52.4327 24.7116 52.4327C24.7064 52.4327 24.6958 52.4327 24.6906 52.4327C24.6906 52.4327 24.6801 52.4327 24.6748 52.4327C22.367 52.3854 20.0593 52.3381 17.7515 52.2907C17.4782 52.296 16.6055 52.2382 15.9379 51.5338C15.47 51.0449 15.3386 50.4771 15.3018 50.1827C15.3018 50.1617 15.3018 50.1408 15.3018 50.1197C15.2387 47.9434 15.1757 45.7723 15.1178 43.596V43.3541C15.1021 42.9966 15.3807 42.7022 15.7381 42.6917C16.0903 42.6812 16.39 42.9599 16.4005 43.3174V43.5592C16.4688 45.7197 16.5319 47.8855 16.5898 50.0461C16.6108 50.188 16.6791 50.4351 16.8789 50.6454C17.1943 50.9818 17.6254 51.0028 17.7515 50.9976C17.7568 50.9976 17.7673 50.9976 17.7725 50.9976C20.0856 51.0449 22.3881 51.0922 24.6958 51.1395C24.6958 51.1395 24.7064 51.1395 24.7116 51.1395C25.763 51.1395 26.7303 51.5495 27.4294 52.2907C28.034 52.9321 28.3546 53.7469 28.3021 54.5249C28.281 54.8666 27.9972 55.1243 27.6607 55.1243V55.1295Z" fill="white"/>
<path d="M22.8083 59.6429C21.2628 59.6429 19.9486 58.4076 19.875 56.8674C19.875 56.7885 19.875 56.699 19.875 56.6097C19.9328 55.1903 21.0473 53.9866 22.4666 53.8184C22.4929 53.8184 22.5192 53.8184 22.5455 53.8184L27.6657 53.8394C29.7264 53.8499 31.7871 53.8603 33.8425 53.8656L39.5778 53.8919C39.7985 53.8919 40.0036 54.0076 40.1192 54.1968C40.2349 54.3861 40.2506 54.6174 40.1508 54.8171C39.4095 56.3469 38.7156 57.7925 38.027 59.2381C37.9219 59.4589 37.6958 59.6009 37.4487 59.6062L22.8504 59.6481C22.8504 59.6481 22.8189 59.6481 22.7978 59.6481L22.8083 59.6429ZM22.5823 55.1063C21.799 55.2167 21.1892 55.879 21.1577 56.6675C21.1577 56.7201 21.1577 56.7622 21.1577 56.8042C21.1997 57.6821 21.9567 58.3813 22.8399 58.3602C22.8399 58.3602 22.8451 58.3602 22.8504 58.3602L37.0492 58.3181C37.5434 57.2878 38.0428 56.2522 38.5579 55.1798L33.8373 55.1589C31.7766 55.1484 29.7159 55.1378 27.6604 55.1326L22.5823 55.1115V55.1063Z" fill="white"/>
<path d="M37.4538 59.6005C37.1016 59.6005 36.8125 59.3114 36.8125 58.9592C36.8125 58.6017 37.0964 58.3179 37.4538 58.3126H37.4854L58.6128 58.2547C59.0228 58.2442 59.6431 58.1496 60.2739 57.7606C60.8732 57.3926 61.2254 56.9142 61.4252 56.5673C62.5186 54.3279 63.612 52.0937 64.7055 49.8543C65.8567 47.4992 67.008 45.1389 68.1592 42.7838C68.2223 42.6524 68.2118 42.4999 68.1382 42.4106C68.0804 42.337 67.9805 42.3158 67.9385 42.3106C61.4252 42.3369 54.9172 42.358 48.4039 42.3843C48.3987 42.3843 48.3934 42.3843 48.3881 42.3843C47.9413 42.3737 47.2684 42.4473 46.5903 42.8573C45.7597 43.3567 45.3759 44.1453 45.2077 44.4817L44.9396 45.0232C44.0355 46.8631 42.348 50.2906 40.1611 54.8272C40.1086 54.9324 40.0297 55.0217 39.9351 55.0848C39.8352 55.1479 39.7143 55.1899 39.5881 55.1899C39.2307 55.1899 38.9468 54.9008 38.9468 54.5486C38.9468 54.4382 38.9783 54.3279 39.0257 54.2385C41.2125 49.7176 42.8894 46.2953 43.7936 44.4607L44.0565 43.9245C44.2562 43.5197 44.7767 42.4578 45.9332 41.7639C46.8742 41.2014 47.7994 41.0962 48.4144 41.1067C54.9382 41.0805 61.4567 41.0595 67.9752 41.0332C67.9963 41.0332 68.0121 41.0332 68.0331 41.0332C68.2381 41.049 68.7585 41.1384 69.137 41.601C69.526 42.0741 69.6049 42.7574 69.3315 43.3409C69.3315 43.3409 69.3315 43.3462 69.3315 43.3514C68.1803 45.7118 67.0238 48.0721 65.8725 50.4324C64.7738 52.6771 63.6804 54.9218 62.5817 57.1613C62.5764 57.1718 62.5712 57.1823 62.5659 57.1928C62.2978 57.6712 61.8037 58.344 60.9626 58.8645C60.0847 59.4059 59.2226 59.5374 58.6496 59.5532C58.6496 59.5532 58.639 59.5532 58.6338 59.5532L37.4696 59.611L37.4538 59.6005Z" fill="white"/>
<path d="M24.8486 32.1074C21.295 32.1074 18.3984 29.2161 18.3984 25.6572C18.3984 22.0983 21.2897 19.207 24.8486 19.207C28.4075 19.207 31.2988 22.0983 31.2988 25.6572C31.2988 29.2161 28.4075 32.1074 24.8486 32.1074ZM24.8486 20.4949C21.9994 20.4949 19.6864 22.8133 19.6864 25.6572C19.6864 28.5012 22.0047 30.8195 24.8486 30.8195C27.6926 30.8195 30.0109 28.5012 30.0109 25.6572C30.0109 22.8133 27.6926 20.4949 24.8486 20.4949Z" fill="white"/>
<path d="M53.8252 52.2104C53.4993 52.2104 53.1734 52.1578 52.8685 52.0527C52.1483 51.8056 51.6068 51.3063 51.3387 50.6386C51.0706 49.9763 51.1127 49.2351 51.4544 48.5622C51.7856 47.9156 52.3533 47.4057 53.063 47.1166C54.556 46.512 56.2119 47.1113 56.7533 48.4466C57.2948 49.7871 56.522 51.3641 55.0291 51.9686C54.6401 52.1263 54.23 52.2052 53.8252 52.2052V52.2104ZM54.2721 48.1679C54.0355 48.1679 53.7884 48.2153 53.5466 48.3099C53.1261 48.4781 52.7896 48.7777 52.6004 49.1456C52.4269 49.4821 52.4006 49.8449 52.5321 50.1603C52.6635 50.4757 52.9263 50.7122 53.289 50.8383C53.6833 50.975 54.1301 50.9541 54.5507 50.7806C55.3865 50.4441 55.8386 49.6135 55.5653 48.9302C55.3708 48.4465 54.8556 48.1627 54.2721 48.1627V48.1679Z" fill="#FFCA2D"/>
</g>
</svg>
