<svg width="823" height="1943" viewBox="0 0 823 1943" fill="none" xmlns="http://www.w3.org/2000/svg">
<path d="M742.379 59.5903C742.832 59.2745 742.944 58.6512 742.628 58.1981C742.312 57.745 741.689 57.6336 741.236 57.9494L742.379 59.5903ZM114.269 757.445L113.285 757.267L114.269 757.445ZM733.636 63.3278C733.186 63.6486 733.082 64.2731 733.402 64.7227C733.723 65.1722 734.348 65.2767 734.797 64.9559L733.636 63.3278ZM719.254 76.1656C719.701 75.8405 719.799 75.2151 719.474 74.7686C719.149 74.3221 718.523 74.2236 718.077 74.5486L719.254 76.1656ZM702.569 85.9283C702.125 86.2566 702.031 86.8828 702.359 87.3269C702.687 87.771 703.314 87.8649 703.758 87.5365L702.569 85.9283ZM688.414 98.9583C688.856 98.6271 688.946 98.0003 688.615 97.5584C688.284 97.1164 687.657 97.0266 687.215 97.3578L688.414 98.9583ZM671.991 108.839C671.551 109.173 671.465 109.801 671.799 110.24C672.133 110.68 672.76 110.766 673.2 110.433L671.991 108.839ZM658.135 121.934C658.573 121.598 658.655 120.97 658.319 120.532C657.983 120.094 657.355 120.011 656.917 120.348L658.135 121.934ZM641.802 132.025C641.366 132.364 641.287 132.992 641.626 133.428C641.965 133.864 642.593 133.943 643.029 133.604L641.802 132.025ZM627.847 145.471C628.282 145.129 628.357 144.5 628.016 144.066C627.674 143.632 627.046 143.557 626.611 143.898L627.847 145.471ZM611.659 155.721C611.227 156.064 611.155 156.694 611.499 157.126C611.843 157.558 612.472 157.63 612.904 157.286L611.659 155.721ZM598.023 169.188C598.453 168.842 598.521 168.212 598.175 167.782C597.829 167.352 597.2 167.283 596.769 167.63L598.023 169.188ZM581.747 179.783C581.319 180.132 581.254 180.762 581.603 181.19C581.951 181.618 582.581 181.683 583.01 181.335L581.747 179.783ZM568.36 193.325C568.786 192.974 568.847 192.344 568.496 191.918C568.145 191.491 567.515 191.43 567.088 191.781L568.36 193.325ZM552.295 204.031C551.871 204.384 551.814 205.015 552.167 205.439C552.521 205.863 553.151 205.921 553.575 205.567L552.295 204.031ZM538.955 217.819C539.377 217.463 539.431 216.832 539.075 216.41C538.719 215.988 538.088 215.934 537.666 216.29L538.955 217.819ZM523.075 228.665C522.655 229.023 522.605 229.654 522.964 230.074C523.322 230.495 523.953 230.545 524.373 230.186L523.075 228.665ZM509.852 242.655C510.27 242.294 510.316 241.662 509.955 241.244C509.594 240.826 508.962 240.78 508.545 241.141L509.852 242.655ZM494.135 253.67C493.72 254.034 493.678 254.666 494.041 255.082C494.405 255.497 495.037 255.539 495.453 255.176L494.135 253.67ZM481.075 267.84C481.488 267.474 481.526 266.842 481.16 266.429C480.793 266.015 480.161 265.977 479.748 266.344L481.075 267.84ZM465.511 279.052C465.1 279.422 465.066 280.054 465.435 280.465C465.804 280.875 466.437 280.909 466.847 280.54L465.511 279.052ZM452.643 293.394C453.051 293.022 453.08 292.39 452.708 291.981C452.336 291.573 451.704 291.544 451.296 291.916L452.643 293.394ZM437.231 304.825C436.825 305.2 436.8 305.832 437.175 306.238C437.55 306.643 438.183 306.668 438.588 306.293L437.231 304.825ZM424.579 319.34C424.982 318.962 425.002 318.33 424.624 317.927C424.246 317.524 423.613 317.504 423.21 317.882L424.579 319.34ZM409.328 331.008C408.928 331.389 408.913 332.022 409.294 332.422C409.675 332.821 410.308 332.837 410.708 332.456L409.328 331.008ZM396.913 345.706C397.309 345.322 397.319 344.689 396.935 344.292C396.551 343.896 395.918 343.885 395.521 344.27L396.913 345.706ZM381.841 357.627C381.447 358.015 381.442 358.648 381.83 359.041C382.217 359.435 382.851 359.44 383.244 359.052L381.841 357.627ZM369.682 372.523C370.072 372.132 370.071 371.499 369.681 371.109C369.29 370.718 368.656 370.719 368.266 371.11L369.682 372.523ZM354.813 384.713C354.427 385.108 354.433 385.741 354.828 386.127C355.222 386.514 355.855 386.507 356.242 386.113L354.813 384.713ZM342.935 399.823C343.318 399.425 343.305 398.792 342.907 398.409C342.509 398.027 341.876 398.039 341.493 398.437L342.935 399.823ZM328.3 412.301C327.921 412.703 327.94 413.336 328.342 413.715C328.744 414.094 329.377 414.075 329.756 413.673L328.3 412.301ZM316.731 427.647C317.105 427.241 317.08 426.608 316.674 426.234C316.268 425.859 315.635 425.885 315.261 426.291L316.731 427.647ZM302.365 440.434C301.995 440.844 302.028 441.476 302.438 441.846C302.848 442.216 303.481 442.183 303.85 441.773L302.365 440.434ZM291.143 456.037C291.508 455.622 291.468 454.991 291.053 454.626C290.639 454.261 290.007 454.301 289.642 454.716L291.143 456.037ZM277.089 469.16C276.729 469.579 276.777 470.211 277.197 470.57C277.616 470.93 278.247 470.882 278.607 470.462L277.089 469.16ZM266.263 485.045C266.617 484.621 266.56 483.991 266.136 483.637C265.712 483.283 265.082 483.34 264.728 483.764L266.263 485.045ZM252.57 498.539C252.222 498.968 252.288 499.598 252.717 499.946C253.146 500.294 253.776 500.228 254.124 499.799L252.57 498.539ZM242.205 514.731C242.546 514.297 242.47 513.668 242.036 513.327C241.602 512.986 240.973 513.062 240.632 513.496L242.205 514.731ZM228.934 528.641C228.6 529.081 228.686 529.708 229.126 530.042C229.565 530.376 230.193 530.29 230.527 529.85L228.934 528.641ZM219.113 545.163C219.439 544.717 219.342 544.092 218.896 543.766C218.45 543.44 217.825 543.537 217.499 543.982L219.113 545.163ZM206.341 559.546C206.024 559.998 206.133 560.622 206.585 560.939C207.037 561.256 207.66 561.147 207.978 560.695L206.341 559.546ZM197.176 576.418C197.484 575.96 197.362 575.338 196.904 575.03C196.445 574.722 195.824 574.845 195.516 575.303L197.176 576.418ZM185.004 591.345C184.707 591.81 184.843 592.428 185.309 592.726C185.774 593.023 186.393 592.887 186.69 592.421L185.004 591.345ZM176.644 608.58C176.929 608.107 176.778 607.492 176.305 607.207C175.832 606.921 175.218 607.073 174.932 607.545L176.644 608.58ZM165.21 624.135C164.938 624.615 165.106 625.225 165.587 625.498C166.067 625.77 166.677 625.602 166.95 625.122L165.21 624.135ZM157.848 641.733C158.106 641.244 157.919 640.639 157.43 640.381C156.942 640.123 156.337 640.31 156.079 640.799L157.848 641.733ZM147.35 658.01C147.109 658.507 147.316 659.105 147.813 659.347C148.309 659.588 148.908 659.381 149.149 658.884L147.35 658.01ZM141.16 676.131C141.382 675.626 141.153 675.036 140.647 674.813C140.142 674.591 139.552 674.82 139.329 675.326L141.16 676.131ZM131.96 693.042C131.759 693.556 132.013 694.136 132.528 694.337C133.042 694.538 133.622 694.284 133.823 693.77L131.96 693.042ZM127.281 711.717C127.457 711.193 127.176 710.626 126.653 710.449C126.13 710.273 125.562 710.554 125.386 711.077L127.281 711.717ZM119.771 729.255C119.622 729.787 119.933 730.339 120.465 730.487C120.996 730.636 121.548 730.325 121.697 729.794L119.771 729.255ZM117.082 748.408C117.199 747.868 116.855 747.336 116.315 747.22C115.775 747.104 115.243 747.447 115.127 747.987L117.082 748.408ZM111.909 766.815C111.851 767.364 112.248 767.857 112.797 767.915C113.347 767.974 113.839 767.576 113.898 767.027L111.909 766.815ZM113.3 785.538C113.277 784.987 112.811 784.558 112.259 784.581C111.707 784.604 111.278 785.07 111.302 785.622L113.3 785.538ZM113.491 804.432C113.594 804.975 114.118 805.331 114.66 805.227C115.203 805.124 115.559 804.6 115.455 804.058L113.491 804.432ZM120.166 822.024C119.991 821.5 119.425 821.217 118.901 821.392C118.377 821.567 118.094 822.133 118.268 822.657L120.166 822.024ZM125.371 840.344C125.605 840.844 126.201 841.059 126.701 840.824C127.201 840.589 127.416 839.994 127.181 839.494L125.371 840.344ZM135.854 855.821C135.573 855.346 134.96 855.189 134.484 855.47C134.009 855.752 133.852 856.365 134.134 856.84L135.854 855.821ZM144.446 872.71C144.765 873.161 145.389 873.268 145.84 872.949C146.291 872.631 146.399 872.007 146.08 871.556L144.446 872.71ZM157.413 886.499C157.065 886.07 156.435 886.004 156.006 886.351C155.577 886.698 155.51 887.328 155.858 887.757L157.413 886.499ZM168.061 902.017C168.431 902.427 169.063 902.46 169.473 902.09C169.884 901.721 169.917 901.088 169.547 900.678L168.061 902.017ZM182.534 914.444C182.146 914.051 181.513 914.046 181.12 914.433C180.726 914.821 180.721 915.454 181.109 915.847L182.534 914.444ZM194.447 928.909C194.848 929.288 195.481 929.271 195.861 928.869C196.241 928.468 196.223 927.835 195.822 927.456L194.447 928.909ZM209.799 940.278C209.387 939.91 208.755 939.947 208.388 940.359C208.02 940.771 208.057 941.404 208.469 941.771L209.799 940.278ZM222.55 954.009C222.971 954.366 223.602 954.315 223.959 953.894C224.317 953.473 224.265 952.842 223.844 952.484L222.55 954.009ZM238.402 964.585C237.974 964.236 237.344 964.3 236.995 964.728C236.646 965.156 236.71 965.786 237.138 966.135L238.402 964.585ZM251.741 977.834C252.175 978.176 252.804 978.102 253.146 977.668C253.488 977.234 253.413 976.606 252.98 976.264L251.741 977.834ZM267.869 987.839C267.43 987.503 266.803 987.586 266.467 988.024C266.13 988.462 266.213 989.09 266.651 989.426L267.869 987.839ZM281.626 1000.79C282.068 1001.12 282.694 1001.03 283.026 1000.59C283.358 1000.15 283.269 999.523 282.827 999.191L281.626 1000.79ZM297.897 1010.41C297.452 1010.08 296.826 1010.18 296.498 1010.62C296.17 1011.07 296.264 1011.69 296.708 1012.02L297.897 1010.41ZM311.927 1023.19C312.373 1023.52 312.998 1023.42 313.324 1022.98C313.649 1022.53 313.552 1021.9 313.106 1021.58L311.927 1023.19ZM328.262 1032.6C327.815 1032.27 327.19 1032.37 326.866 1032.82C326.542 1033.27 326.642 1033.89 327.089 1034.22L328.262 1032.6ZM342.427 1045.3C342.875 1045.62 343.5 1045.52 343.823 1045.07C344.146 1044.63 344.045 1044 343.597 1043.68L342.427 1045.3ZM358.78 1054.63C358.332 1054.3 357.707 1054.4 357.384 1054.85C357.061 1055.3 357.162 1055.93 357.61 1056.25L358.78 1054.63ZM372.884 1067.28C373.331 1067.6 373.956 1067.5 374.28 1067.06C374.604 1066.61 374.504 1065.98 374.056 1065.66L372.884 1067.28ZM389.279 1076.71C388.833 1076.38 388.207 1076.48 387.882 1076.93C387.557 1077.37 387.655 1078 388.102 1078.32L389.279 1076.71ZM403.271 1089.43C403.716 1089.75 404.342 1089.66 404.669 1089.21C404.996 1088.77 404.901 1088.14 404.456 1087.81L403.271 1089.43ZM419.595 1099.02C419.152 1098.69 418.525 1098.78 418.195 1099.23C417.865 1099.67 417.956 1100.3 418.399 1100.63L419.595 1099.02ZM433.427 1111.92C433.868 1112.25 434.495 1112.17 434.828 1111.73C435.162 1111.28 435.076 1110.66 434.635 1110.32L433.427 1111.92ZM449.57 1121.75C449.133 1121.41 448.505 1121.49 448.167 1121.93C447.829 1122.37 447.91 1123 448.347 1123.33L449.57 1121.75ZM463.178 1134.93C463.611 1135.27 464.24 1135.2 464.583 1134.77C464.925 1134.33 464.852 1133.71 464.419 1133.36L463.178 1134.93ZM479.093 1145.13C478.664 1144.78 478.034 1144.84 477.686 1145.27C477.337 1145.7 477.402 1146.33 477.831 1146.68L479.093 1145.13ZM492.332 1158.64C492.755 1159 493.386 1158.94 493.741 1158.52C494.095 1158.1 494.04 1157.46 493.616 1157.11L492.332 1158.64ZM507.96 1169.34C507.543 1168.97 506.911 1169.02 506.549 1169.44C506.188 1169.85 506.232 1170.48 506.65 1170.85L507.96 1169.34ZM520.675 1183.24C521.085 1183.61 521.717 1183.58 522.087 1183.17C522.457 1182.76 522.424 1182.13 522.014 1181.76L520.675 1183.24ZM535.927 1194.57C535.525 1194.19 534.892 1194.21 534.514 1194.62C534.135 1195.02 534.154 1195.65 534.556 1196.03L535.927 1194.57ZM548.024 1209.01C548.417 1209.4 549.05 1209.4 549.438 1209C549.826 1208.61 549.823 1207.98 549.43 1207.59L548.024 1209.01ZM562.7 1221.05C562.318 1220.65 561.685 1220.64 561.286 1221.02C560.887 1221.41 560.874 1222.04 561.256 1222.44L562.7 1221.05ZM574.032 1236.16C574.402 1236.57 575.035 1236.6 575.444 1236.23C575.854 1235.86 575.886 1235.22 575.516 1234.82L574.032 1236.16ZM587.916 1249C587.56 1248.58 586.929 1248.53 586.507 1248.88C586.085 1249.24 586.032 1249.87 586.388 1250.29L587.916 1249ZM598.252 1264.86C598.592 1265.3 599.221 1265.37 599.655 1265.03C600.09 1264.69 600.166 1264.06 599.826 1263.63L598.252 1264.86ZM611.117 1278.64C610.794 1278.19 610.169 1278.09 609.721 1278.41C609.273 1278.74 609.171 1279.36 609.494 1279.81L611.117 1278.64ZM620.154 1295.32C620.457 1295.78 621.077 1295.91 621.539 1295.6C622.001 1295.3 622.13 1294.68 621.828 1294.22L620.154 1295.32ZM631.724 1310.16C631.445 1309.68 630.832 1309.52 630.356 1309.8C629.88 1310.08 629.72 1310.7 630 1311.17L631.724 1310.16ZM639.097 1327.64C639.351 1328.13 639.955 1328.32 640.445 1328.07C640.936 1327.81 641.127 1327.21 640.873 1326.72L639.097 1327.64ZM649.037 1343.64C648.811 1343.14 648.22 1342.91 647.715 1343.14C647.211 1343.36 646.985 1343.95 647.211 1344.46L649.037 1343.64ZM654.349 1361.81C654.543 1362.33 655.12 1362.59 655.637 1362.4C656.154 1362.2 656.416 1361.63 656.222 1361.11L654.349 1361.81ZM662.281 1378.97C662.121 1378.44 661.563 1378.14 661.034 1378.3C660.505 1378.46 660.207 1379.02 660.367 1379.55L662.281 1378.97ZM665.186 1397.59C665.31 1398.13 665.847 1398.46 666.385 1398.34C666.923 1398.21 667.259 1397.68 667.134 1397.14L665.186 1397.59ZM670.754 1415.71C670.668 1415.16 670.155 1414.79 669.61 1414.88C669.064 1414.97 668.692 1415.48 668.779 1416.02L670.754 1415.71ZM671.058 1434.48C671.107 1435.03 671.592 1435.44 672.142 1435.39C672.692 1435.34 673.099 1434.86 673.05 1434.31L671.058 1434.48ZM674.054 1453.22C674.044 1452.67 673.588 1452.23 673.036 1452.24C672.484 1452.25 672.044 1452.71 672.054 1453.26L674.054 1453.22ZM671.76 1471.86C671.732 1472.42 672.157 1472.89 672.709 1472.91C673.26 1472.94 673.73 1472.51 673.757 1471.96L671.76 1471.86ZM672.202 1490.76C672.266 1490.21 671.873 1489.72 671.324 1489.65C670.775 1489.59 670.279 1489.98 670.216 1490.53L672.202 1490.76ZM667.469 1509.12C667.371 1509.67 667.733 1510.19 668.276 1510.28C668.82 1510.38 669.34 1510.02 669.437 1509.48L667.469 1509.12ZM665.608 1527.71C665.737 1527.18 665.406 1526.64 664.869 1526.51C664.332 1526.38 663.792 1526.71 663.663 1527.25L665.608 1527.71ZM658.663 1545.74C658.504 1546.27 658.804 1546.82 659.333 1546.98C659.862 1547.14 660.419 1546.84 660.578 1546.31L658.663 1545.74ZM654.852 1563.78C655.036 1563.26 654.764 1562.69 654.244 1562.5C653.724 1562.32 653.152 1562.59 652.967 1563.11L654.852 1563.78ZM646.253 1580.67C646.044 1581.18 646.289 1581.77 646.8 1581.98C647.311 1582.19 647.895 1581.94 648.104 1581.43L646.253 1580.67ZM640.465 1598.98C640.697 1598.48 640.478 1597.88 639.976 1597.65C639.475 1597.42 638.881 1597.64 638.649 1598.14L640.465 1598.98ZM630.675 1614.57C630.424 1615.07 630.62 1615.67 631.112 1615.92C631.605 1616.17 632.207 1615.97 632.457 1615.48L630.675 1614.57ZM623.519 1632.26C623.787 1631.78 623.613 1631.17 623.131 1630.9C622.648 1630.63 622.039 1630.8 621.771 1631.29L623.519 1632.26ZM612.217 1647.78C611.933 1648.26 612.085 1648.87 612.559 1649.16C613.032 1649.44 613.646 1649.29 613.931 1648.82L612.217 1647.78ZM604.27 1664.33C604.569 1663.87 604.435 1663.25 603.97 1662.95C603.506 1662.65 602.887 1662.79 602.588 1663.25L604.27 1664.33ZM592.164 1678.95C591.853 1679.41 591.969 1680.03 592.425 1680.34C592.881 1680.66 593.503 1680.54 593.815 1680.08L592.164 1678.95ZM582.55 1696.07C582.874 1695.62 582.775 1695 582.328 1694.67C581.88 1694.35 581.255 1694.45 580.931 1694.9L582.55 1696.07ZM570.165 1709.38C569.83 1709.82 569.915 1710.45 570.355 1710.79C570.794 1711.12 571.422 1711.04 571.756 1710.6L570.165 1709.38ZM560.326 1725.27C560.67 1724.84 560.599 1724.21 560.167 1723.87C559.735 1723.52 559.106 1723.59 558.761 1724.03L560.326 1725.27ZM546.678 1738.86C546.325 1739.29 546.383 1739.92 546.808 1740.27C547.232 1740.62 547.863 1740.57 548.216 1740.14L546.678 1738.86ZM535.799 1754.77C536.16 1754.35 536.115 1753.72 535.697 1753.36C535.28 1753 534.648 1753.04 534.287 1753.46L535.799 1754.77ZM522.302 1767.06C521.933 1767.47 521.967 1768.1 522.379 1768.47C522.79 1768.84 523.422 1768.81 523.791 1768.4L522.302 1767.06ZM511.216 1782.18C511.592 1781.78 511.568 1781.15 511.163 1780.77C510.758 1780.39 510.125 1780.42 509.75 1780.82L511.216 1782.18ZM496.623 1794.75C496.241 1795.15 496.255 1795.78 496.654 1796.16C497.053 1796.55 497.686 1796.53 498.068 1796.13L496.623 1794.75ZM484.528 1810.06C484.916 1809.66 484.912 1809.03 484.519 1808.64C484.126 1808.25 483.493 1808.26 483.105 1808.65L484.528 1810.06ZM470.342 1821.41C469.949 1821.79 469.944 1822.43 470.332 1822.82C470.72 1823.21 471.353 1823.22 471.746 1822.83L470.342 1821.41ZM458.488 1835.74C458.886 1835.36 458.898 1834.72 458.515 1834.33C458.133 1833.93 457.5 1833.92 457.102 1834.3L458.488 1835.74ZM443.378 1847.33C442.975 1847.7 442.954 1848.34 443.332 1848.74C443.71 1849.14 444.343 1849.16 444.746 1848.79L443.378 1847.33ZM430.515 1861.97C430.923 1861.6 430.95 1860.96 430.578 1860.56C430.205 1860.15 429.572 1860.12 429.165 1860.49L430.515 1861.97ZM741.807 58.7698C741.236 57.9494 741.236 57.9494 741.236 57.9494C741.236 57.9494 741.236 57.9495 741.236 57.9495C741.235 57.9496 741.235 57.9497 741.235 57.9498C741.235 57.95 741.234 57.9504 741.234 57.9508C741.232 57.9518 741.23 57.9531 741.228 57.955C741.222 57.9586 741.215 57.9641 741.204 57.9713C741.184 57.9858 741.153 58.0075 741.111 58.0362C741.029 58.0938 740.906 58.1798 740.743 58.294C740.417 58.5224 739.931 58.8636 739.291 59.3151C738.01 60.218 736.111 61.5621 733.636 63.3278L734.797 64.9559C737.269 63.1925 739.165 61.8506 740.443 60.9498C741.082 60.4994 741.566 60.1592 741.891 59.9318C742.053 59.8181 742.175 59.7326 742.257 59.6756C742.298 59.6471 742.328 59.6257 742.349 59.6114C742.359 59.6043 742.367 59.599 742.372 59.5955C742.374 59.5937 742.376 59.5924 742.377 59.5915C742.378 59.5911 742.379 59.5908 742.379 59.5905C742.379 59.5904 742.379 59.5904 742.379 59.5903C742.379 59.5903 742.379 59.5903 742.379 59.5903C742.379 59.5903 742.379 59.5903 741.807 58.7698ZM718.077 74.5486C713.504 77.8781 708.315 81.6799 702.569 85.9283L703.758 87.5365C709.5 83.2912 714.684 79.4922 719.254 76.1656L718.077 74.5486ZM687.215 97.3578C682.402 100.964 677.321 104.795 671.991 108.839L673.2 110.433C678.526 106.391 683.605 102.562 688.414 98.9583L687.215 97.3578ZM656.917 120.348C652.038 124.095 646.995 127.989 641.802 132.025L643.029 133.604C648.219 129.571 653.259 125.679 658.135 121.934L656.917 120.348ZM626.611 143.898C621.734 147.733 616.747 151.675 611.659 155.721L612.904 157.286C617.989 153.243 622.973 149.303 627.847 145.471L626.611 143.898ZM596.769 167.63C591.839 171.595 586.829 175.648 581.747 179.783L583.01 181.335C588.089 177.201 593.096 173.151 598.023 169.188L596.769 167.63ZM567.088 191.781C562.212 195.795 557.279 199.879 552.295 204.031L553.575 205.567C558.556 201.419 563.486 197.337 568.36 193.325L567.088 191.781ZM537.666 216.29C532.841 220.357 527.975 224.483 523.075 228.665L524.373 230.186C529.27 226.007 534.133 221.884 538.955 217.819L537.666 216.29ZM508.545 241.141C503.767 245.269 498.963 249.446 494.135 253.67L495.453 255.176C500.277 250.954 505.078 246.78 509.852 242.655L508.545 241.141ZM479.748 266.344C475.018 270.538 470.27 274.775 465.511 279.052L466.847 280.54C471.604 276.266 476.348 272.032 481.075 267.84L479.748 266.344ZM451.296 291.916C446.614 296.182 441.924 300.486 437.231 304.825L438.588 306.293C443.278 301.958 447.964 297.658 452.643 293.394L451.296 291.916ZM423.21 317.882C418.581 322.226 413.952 326.601 409.328 331.008L410.708 332.456C415.328 328.053 419.953 323.681 424.579 319.34L423.21 317.882ZM395.521 344.27C390.952 348.695 386.39 353.148 381.841 357.627L383.244 359.052C387.789 354.577 392.347 350.128 396.913 345.706L395.521 344.27ZM368.266 371.11C363.765 375.621 359.279 380.156 354.813 384.713L356.242 386.113C360.703 381.56 365.185 377.029 369.682 372.523L368.266 371.11ZM341.493 398.437C337.07 403.038 332.671 407.66 328.3 412.301L329.756 413.673C334.123 409.037 338.517 404.42 342.935 399.823L341.493 398.437ZM315.261 426.291C310.929 430.988 306.629 435.703 302.365 440.434L303.85 441.773C308.11 437.048 312.405 432.339 316.731 427.647L315.261 426.291ZM289.642 454.716C285.416 459.517 281.231 464.332 277.089 469.16L278.607 470.462C282.743 465.641 286.923 460.832 291.143 456.037L289.642 454.716ZM264.728 483.764C260.625 488.679 256.571 493.604 252.57 498.539L254.124 499.799C258.118 494.872 262.166 489.953 266.263 485.045L264.728 483.764ZM240.632 513.496C236.672 518.538 232.771 523.587 228.934 528.641L230.527 529.85C234.357 524.805 238.251 519.765 242.205 514.731L240.632 513.496ZM217.499 543.982C213.706 549.167 209.986 554.356 206.341 559.546L207.978 560.695C211.615 555.516 215.328 550.338 219.113 545.163L217.499 543.982ZM195.516 575.303C191.925 580.652 188.419 586 185.004 591.345L186.69 592.421C190.096 587.09 193.593 581.754 197.176 576.418L195.516 575.303ZM174.932 607.545C171.586 613.082 168.344 618.612 165.21 624.135L166.95 625.122C170.074 619.616 173.307 614.101 176.644 608.58L174.932 607.545ZM156.079 640.799C153.042 646.549 150.13 652.287 147.35 658.01L149.149 658.884C151.918 653.182 154.82 647.464 157.848 641.733L156.079 640.799ZM139.329 675.326C136.72 681.251 134.261 687.158 131.96 693.042L133.823 693.77C136.113 687.913 138.561 682.033 141.16 676.131L139.329 675.326ZM125.386 711.077C123.331 717.166 121.456 723.226 119.771 729.255L121.697 729.794C123.373 723.801 125.237 717.774 127.281 711.717L125.386 711.077ZM115.127 747.987C114.459 751.09 113.844 754.184 113.285 757.267L115.253 757.624C115.808 754.563 116.419 751.491 117.082 748.408L115.127 747.987ZM113.285 757.267C112.704 760.466 112.246 763.649 111.909 766.815L113.898 767.027C114.23 763.91 114.68 760.776 115.253 757.624L113.285 757.267ZM111.302 785.622C111.568 791.954 112.307 798.222 113.491 804.432L115.455 804.058C114.289 797.941 113.562 791.77 113.3 785.538L111.302 785.622ZM118.268 822.657C120.25 828.601 122.626 834.495 125.371 840.344L127.181 839.494C124.468 833.711 122.121 827.89 120.166 822.024L118.268 822.657ZM134.134 856.84C137.286 862.162 140.731 867.45 144.446 872.71L146.08 871.556C142.393 866.336 138.978 861.093 135.854 855.821L134.134 856.84ZM155.858 887.757C159.72 892.529 163.793 897.281 168.061 902.017L169.547 900.678C165.3 895.966 161.25 891.241 157.413 886.499L155.858 887.757ZM181.109 915.847C185.404 920.211 189.854 924.563 194.447 928.909L195.822 927.456C191.245 923.125 186.811 918.789 182.534 914.444L181.109 915.847ZM208.469 941.771C213.05 945.854 217.747 949.932 222.55 954.009L223.844 952.484C219.053 948.417 214.368 944.349 209.799 940.278L208.469 941.771ZM237.138 966.135C241.922 970.034 246.793 973.933 251.741 977.834L252.98 976.264C248.039 972.368 243.176 968.476 238.402 964.585L237.138 966.135ZM266.651 989.426C271.581 993.209 276.575 996.996 281.626 1000.79L282.827 999.191C277.781 995.401 272.792 991.618 267.869 987.839L266.651 989.426ZM296.708 1012.02C301.737 1015.74 306.813 1019.46 311.927 1023.19L313.106 1021.58C307.994 1017.85 302.922 1014.13 297.897 1010.41L296.708 1012.02ZM327.089 1034.22C332.174 1037.9 337.289 1041.59 342.427 1045.3L343.597 1043.68C338.46 1039.97 333.346 1036.28 328.262 1032.6L327.089 1034.22ZM357.61 1056.25C362.688 1059.91 367.782 1063.59 372.884 1067.28L374.056 1065.66C368.953 1061.97 363.859 1058.29 358.78 1054.63L357.61 1056.25ZM388.102 1078.32C393.159 1082.01 398.217 1085.71 403.271 1089.43L404.456 1087.81C399.399 1084.09 394.338 1080.39 389.279 1076.71L388.102 1078.32ZM418.399 1100.63C423.422 1104.37 428.434 1108.13 433.427 1111.92L434.635 1110.32C429.637 1106.54 424.621 1102.77 419.595 1099.02L418.399 1100.63ZM448.347 1123.33C453.318 1127.18 458.264 1131.04 463.178 1134.93L464.419 1133.36C459.498 1129.47 454.546 1125.6 449.57 1121.75L448.347 1123.33ZM477.831 1146.68C482.705 1150.64 487.541 1154.63 492.332 1158.64L493.616 1157.11C488.818 1153.09 483.974 1149.09 479.093 1145.13L477.831 1146.68ZM506.65 1170.85C511.38 1174.95 516.057 1179.08 520.675 1183.24L522.014 1181.76C517.386 1177.59 512.699 1173.45 507.96 1169.34L506.65 1170.85ZM534.556 1196.03C539.117 1200.32 543.608 1204.65 548.024 1209.01L549.43 1207.59C545.002 1203.22 540.499 1198.88 535.927 1194.57L534.556 1196.03ZM561.256 1222.44C565.605 1226.97 569.866 1231.54 574.032 1236.16L575.516 1234.82C571.336 1230.19 567.061 1225.6 562.7 1221.05L561.256 1222.44ZM586.388 1250.29C590.453 1255.1 594.411 1259.96 598.252 1264.86L599.826 1263.63C595.969 1258.71 591.996 1253.83 587.916 1249L586.388 1250.29ZM609.494 1279.81C613.181 1284.93 616.738 1290.1 620.154 1295.32L621.828 1294.22C618.394 1288.97 614.821 1283.78 611.117 1278.64L609.494 1279.81ZM630 1311.17C633.19 1316.61 636.226 1322.09 639.097 1327.64L640.873 1326.72C637.985 1321.14 634.932 1315.62 631.724 1310.16L630 1311.17ZM647.211 1344.46C649.771 1350.18 652.153 1355.96 654.349 1361.81L656.222 1361.11C654.011 1355.22 651.613 1349.4 649.037 1343.64L647.211 1344.46ZM660.367 1379.55C662.171 1385.49 663.78 1391.51 665.186 1397.59L667.134 1397.14C665.719 1391.01 664.098 1384.96 662.281 1378.97L660.367 1379.55ZM668.779 1416.02C669.746 1422.11 670.509 1428.26 671.058 1434.48L673.05 1434.31C672.497 1428.04 671.729 1421.84 670.754 1415.71L668.779 1416.02ZM672.054 1453.26C672.165 1459.39 672.07 1465.6 671.76 1471.86L673.757 1471.96C674.07 1465.65 674.166 1459.4 674.054 1453.22L672.054 1453.26ZM670.216 1490.53C669.507 1496.66 668.594 1502.86 667.469 1509.12L669.437 1509.48C670.569 1503.17 671.489 1496.94 672.202 1490.76L670.216 1490.53ZM663.663 1527.25C662.197 1533.35 660.533 1539.51 658.663 1545.74L660.578 1546.31C662.459 1540.05 664.133 1533.85 665.608 1527.71L663.663 1527.25ZM652.967 1563.11C650.907 1568.91 648.671 1574.76 646.253 1580.67L648.104 1581.43C650.533 1575.49 652.781 1569.61 654.852 1563.78L652.967 1563.11ZM638.649 1598.14C636.144 1603.57 633.487 1609.05 630.675 1614.57L632.457 1615.48C635.281 1609.93 637.949 1604.43 640.465 1598.98L638.649 1598.14ZM621.771 1631.29C618.737 1636.74 615.553 1642.24 612.217 1647.78L613.931 1648.82C617.278 1643.25 620.473 1637.73 623.519 1632.26L621.771 1631.29ZM602.588 1663.25C599.247 1668.45 595.773 1673.68 592.164 1678.95L593.815 1680.08C597.434 1674.79 600.919 1669.54 604.27 1664.33L602.588 1663.25ZM580.931 1694.9C577.453 1699.69 573.865 1704.52 570.165 1709.38L571.756 1710.6C575.466 1705.72 579.063 1700.88 582.55 1696.07L580.931 1694.9ZM558.761 1724.03C554.848 1728.94 550.821 1733.88 546.678 1738.86L548.216 1740.14C552.367 1735.15 556.403 1730.2 560.326 1725.27L558.761 1724.03ZM534.287 1753.46C530.385 1757.97 526.391 1762.5 522.302 1767.06L523.791 1768.4C527.887 1763.83 531.89 1759.29 535.799 1754.77L534.287 1753.46ZM509.75 1780.82C505.471 1785.44 501.095 1790.08 496.623 1794.75L498.068 1796.13C502.547 1791.46 506.93 1786.81 511.216 1782.18L509.75 1780.82ZM483.105 1808.65C478.93 1812.88 474.676 1817.13 470.342 1821.41L471.746 1822.83C476.086 1818.55 480.346 1814.29 484.528 1810.06L483.105 1808.65ZM457.102 1834.3C452.608 1838.62 448.033 1842.96 443.378 1847.33L444.746 1848.79C449.407 1844.41 453.988 1840.07 458.488 1835.74L457.102 1834.3ZM429.165 1860.49C426.755 1862.7 424.324 1864.91 421.873 1867.13L423.214 1868.61C425.669 1866.39 428.102 1864.18 430.515 1861.97L429.165 1860.49Z" fill="black"/>
<path d="M337.554 1941.36C329.702 1942.81 360.612 1879.21 368.278 1863.53C370.488 1862.3 414.723 1879.84 415.508 1879.7M337.554 1941.36C345.407 1939.91 436.054 1894.26 438.353 1886.91L420.161 1882.92M337.554 1941.36L420.161 1882.92M337.554 1941.36L415.508 1879.7M420.161 1882.92C419.967 1881.87 419.551 1879.61 419.435 1878.98C419.289 1878.19 416.293 1879.55 415.508 1879.7" stroke="black" stroke-width="2"/>
</svg>
