<svg width="632" height="1812" viewBox="0 0 632 1812" fill="none" xmlns="http://www.w3.org/2000/svg">
<path d="M631.379 2.5883C631.832 2.27253 631.944 1.64923 631.628 1.19612C631.312 0.74301 630.689 0.631673 630.236 0.947441L631.379 2.5883ZM3.26863 700.443L2.28473 700.265L3.26863 700.443ZM622.636 6.32586C622.186 6.64662 622.082 7.27111 622.402 7.7207C622.723 8.1703 623.348 8.27473 623.797 7.95398L622.636 6.32586ZM608.254 19.1636C608.701 18.8386 608.799 18.2131 608.474 17.7666C608.149 17.3201 607.523 17.2216 607.077 17.5467L608.254 19.1636ZM591.569 28.9264C591.125 29.2547 591.031 29.8809 591.359 30.325C591.687 30.769 592.314 30.8629 592.758 30.5346L591.569 28.9264ZM577.414 41.9563C577.856 41.6251 577.946 40.9984 577.615 40.5564C577.284 40.1145 576.657 40.0247 576.215 40.3559L577.414 41.9563ZM560.991 51.8374C560.551 52.1713 560.465 52.7986 560.799 53.2385C561.133 53.6785 561.76 53.7645 562.2 53.4306L560.991 51.8374ZM547.135 64.932C547.573 64.5956 547.655 63.9679 547.319 63.5299C546.983 63.0918 546.355 63.0095 545.917 63.3459L547.135 64.932ZM530.802 75.0229C530.366 75.3617 530.287 75.99 530.626 76.4261C530.965 76.8622 531.593 76.941 532.029 76.6021L530.802 75.0229ZM516.847 88.4686C517.282 88.1272 517.357 87.4985 517.016 87.0644C516.674 86.6302 516.046 86.5549 515.611 86.8963L516.847 88.4686ZM500.659 98.7188C500.227 99.0625 500.155 99.6916 500.499 100.124C500.843 100.556 501.472 100.628 501.904 100.284L500.659 98.7188ZM487.023 112.186C487.453 111.84 487.521 111.21 487.175 110.78C486.829 110.35 486.2 110.281 485.769 110.628L487.023 112.186ZM470.747 122.781C470.319 123.13 470.254 123.76 470.603 124.188C470.951 124.617 471.581 124.681 472.01 124.333L470.747 122.781ZM457.36 136.323C457.786 135.972 457.847 135.342 457.496 134.916C457.145 134.489 456.515 134.428 456.088 134.779L457.36 136.323ZM441.295 147.029C440.871 147.382 440.814 148.013 441.167 148.437C441.521 148.862 442.151 148.919 442.575 148.566L441.295 147.029ZM427.955 160.817C428.377 160.461 428.431 159.83 428.075 159.408C427.719 158.986 427.088 158.932 426.666 159.288L427.955 160.817ZM412.075 171.663C411.655 172.021 411.605 172.652 411.964 173.073C412.322 173.493 412.953 173.543 413.373 173.184L412.075 171.663ZM398.852 185.653C399.27 185.292 399.316 184.66 398.955 184.242C398.594 183.824 397.962 183.778 397.545 184.139L398.852 185.653ZM383.135 196.669C382.72 197.032 382.678 197.664 383.041 198.08C383.405 198.495 384.037 198.537 384.453 198.174L383.135 196.669ZM370.075 210.838C370.488 210.472 370.526 209.84 370.16 209.427C369.793 209.013 369.161 208.975 368.748 209.342L370.075 210.838ZM354.511 222.05C354.1 222.42 354.066 223.052 354.435 223.463C354.804 223.873 355.437 223.907 355.847 223.538L354.511 222.05ZM341.643 236.392C342.051 236.02 342.08 235.388 341.708 234.979C341.336 234.571 340.704 234.542 340.296 234.914L341.643 236.392ZM326.231 247.823C325.825 248.198 325.8 248.83 326.175 249.236C326.55 249.641 327.183 249.666 327.588 249.291L326.231 247.823ZM313.579 262.338C313.982 261.961 314.002 261.328 313.624 260.925C313.246 260.522 312.613 260.502 312.21 260.88L313.579 262.338ZM298.328 274.006C297.928 274.387 297.913 275.02 298.294 275.42C298.675 275.819 299.308 275.835 299.708 275.454L298.328 274.006ZM285.913 288.705C286.309 288.32 286.319 287.687 285.935 287.29C285.551 286.894 284.918 286.884 284.521 287.268L285.913 288.705ZM270.841 300.625C270.447 301.013 270.442 301.646 270.83 302.039C271.217 302.433 271.851 302.438 272.244 302.05L270.841 300.625ZM258.682 315.521C259.072 315.13 259.071 314.497 258.681 314.107C258.29 313.716 257.656 313.717 257.266 314.108L258.682 315.521ZM243.813 327.711C243.427 328.106 243.433 328.739 243.828 329.125C244.222 329.512 244.855 329.505 245.242 329.111L243.813 327.711ZM231.935 342.821C232.318 342.423 232.305 341.79 231.907 341.407C231.509 341.025 230.876 341.037 230.493 341.435L231.935 342.821ZM217.3 355.299C216.921 355.701 216.94 356.334 217.342 356.713C217.744 357.092 218.377 357.073 218.756 356.671L217.3 355.299ZM205.731 370.645C206.105 370.239 206.08 369.606 205.674 369.232C205.268 368.857 204.635 368.883 204.261 369.289L205.731 370.645ZM191.365 383.432C190.995 383.842 191.028 384.474 191.438 384.844C191.848 385.214 192.481 385.181 192.85 384.771L191.365 383.432ZM180.143 399.035C180.508 398.621 180.468 397.989 180.053 397.624C179.639 397.259 179.007 397.299 178.642 397.714L180.143 399.035ZM166.089 412.158C165.729 412.577 165.777 413.209 166.197 413.568C166.616 413.928 167.247 413.88 167.607 413.46L166.089 412.158ZM155.263 428.043C155.617 427.62 155.56 426.989 155.136 426.635C154.712 426.281 154.082 426.338 153.728 426.762L155.263 428.043ZM141.57 441.537C141.222 441.966 141.288 442.596 141.717 442.944C142.146 443.292 142.776 443.226 143.124 442.797L141.57 441.537ZM131.205 457.729C131.546 457.295 131.47 456.666 131.036 456.325C130.602 455.984 129.973 456.06 129.632 456.494L131.205 457.729ZM117.934 471.639C117.6 472.079 117.686 472.706 118.126 473.04C118.565 473.374 119.193 473.288 119.527 472.848L117.934 471.639ZM108.113 488.161C108.439 487.715 108.342 487.09 107.896 486.764C107.45 486.438 106.825 486.535 106.499 486.981L108.113 488.161ZM95.3409 502.544C95.0235 502.996 95.1326 503.62 95.5846 503.937C96.0366 504.254 96.6603 504.145 96.9776 503.693L95.3409 502.544ZM86.1765 519.416C86.4844 518.958 86.3623 518.336 85.9038 518.028C85.4453 517.721 84.824 517.843 84.5161 518.301L86.1765 519.416ZM74.0044 534.343C73.7071 534.808 73.8434 535.426 74.3088 535.724C74.7742 536.021 75.3925 535.885 75.6899 535.419L74.0044 534.343ZM65.6437 551.578C65.9293 551.105 65.7777 550.49 65.305 550.205C64.8324 549.919 64.2176 550.071 63.9319 550.543L65.6437 551.578ZM54.2104 567.133C53.938 567.613 54.1064 568.223 54.5868 568.496C55.0671 568.769 55.6775 568.6 55.95 568.12L54.2104 567.133ZM46.8476 584.731C47.1055 584.242 46.9188 583.637 46.4304 583.38C45.9421 583.122 45.3371 583.308 45.0791 583.797L46.8476 584.731ZM36.35 601.008C36.1087 601.505 36.3158 602.103 36.8127 602.345C37.3095 602.586 37.9078 602.379 38.1491 601.882L36.35 601.008ZM30.1596 619.13C30.3822 618.624 30.1528 618.034 29.6474 617.811C29.1419 617.589 28.5517 617.818 28.3292 618.324L30.1596 619.13ZM20.9604 636.04C20.7592 636.554 21.0132 637.134 21.5275 637.335C22.0419 637.536 22.6219 637.282 22.823 636.768L20.9604 636.04ZM16.2806 654.715C16.4572 654.191 16.1762 653.624 15.6528 653.447C15.1295 653.271 14.5622 653.552 14.3856 654.075L16.2806 654.715ZM8.77072 672.253C8.62201 672.785 8.93265 673.337 9.46454 673.485C9.99643 673.634 10.5482 673.323 10.6969 672.792L8.77072 672.253ZM6.0824 691.406C6.19868 690.866 5.85526 690.334 5.31532 690.218C4.77544 690.102 4.24349 690.445 4.12726 690.985L6.0824 691.406ZM0.909092 709.813C0.85056 710.362 1.24836 710.855 1.7975 710.914C2.3467 710.972 2.83931 710.574 2.89784 710.025L0.909092 709.813ZM2.29987 728.536C2.27668 727.985 1.81057 727.556 1.25878 727.579C0.706922 727.602 0.278445 728.069 0.301638 728.62L2.29987 728.536ZM2.49079 747.43C2.59421 747.973 3.11779 748.329 3.66036 748.225C4.20287 748.122 4.55883 747.598 4.45541 747.056L2.49079 747.43ZM9.16564 765.023C8.99096 764.499 8.42467 764.215 7.90074 764.39C7.37676 764.565 7.09361 765.131 7.26829 765.655L9.16564 765.023ZM14.3708 783.342C14.6054 783.842 15.2009 784.057 15.7009 783.822C16.2008 783.587 16.4159 782.992 16.1813 782.492L14.3708 783.342ZM24.8545 798.819C24.573 798.344 23.9596 798.187 23.4844 798.468C23.0093 798.75 22.8523 799.363 23.1338 799.838L24.8545 798.819ZM33.4465 815.708C33.7652 816.159 34.3892 816.266 34.8403 815.947C35.2913 815.629 35.3987 815.005 35.08 814.554L33.4465 815.708ZM46.4126 829.497C46.0651 829.068 45.4354 829.002 45.0061 829.349C44.5768 829.696 44.5105 830.326 44.8579 830.755L46.4126 829.497ZM57.0612 845.015C57.4309 845.425 58.0632 845.458 58.4735 845.088C58.8837 844.719 58.9166 844.086 58.5468 843.676L57.0612 845.015ZM71.5337 857.442C71.1463 857.049 70.5132 857.044 70.1196 857.431C69.726 857.819 69.7211 858.452 70.1085 858.845L71.5337 857.442ZM83.4473 871.907C83.8485 872.286 84.4814 872.269 84.861 871.867C85.2405 871.466 85.223 870.833 84.8218 870.454L83.4473 871.907ZM98.7994 883.276C98.3871 882.908 97.755 882.945 97.3875 883.357C97.0201 883.769 97.0565 884.402 97.4688 884.769L98.7994 883.276ZM111.55 897.007C111.971 897.364 112.602 897.313 112.959 896.892C113.317 896.471 113.265 895.84 112.844 895.482L111.55 897.007ZM127.402 907.583C126.974 907.234 126.344 907.298 125.995 907.726C125.646 908.154 125.71 908.784 126.138 909.133L127.402 907.583ZM140.741 920.832C141.175 921.174 141.804 921.1 142.146 920.666C142.488 920.233 142.413 919.604 141.98 919.262L140.741 920.832ZM156.869 930.837C156.43 930.501 155.803 930.584 155.467 931.022C155.13 931.46 155.213 932.088 155.651 932.424L156.869 930.837ZM170.626 943.788C171.068 944.12 171.694 944.031 172.026 943.589C172.358 943.147 172.269 942.521 171.827 942.189L170.626 943.788ZM186.897 953.41C186.452 953.082 185.826 953.176 185.498 953.62C185.17 954.065 185.264 954.691 185.708 955.019L186.897 953.41ZM200.927 966.192C201.373 966.517 201.998 966.42 202.324 965.973C202.649 965.527 202.552 964.902 202.106 964.576L200.927 966.192ZM217.262 975.594C216.815 975.27 216.19 975.37 215.866 975.817C215.542 976.264 215.642 976.89 216.089 977.214L217.262 975.594ZM231.427 988.298C231.875 988.621 232.5 988.52 232.823 988.072C233.146 987.624 233.045 986.999 232.597 986.676L231.427 988.298ZM247.78 997.625C247.332 997.302 246.707 997.403 246.384 997.851C246.061 998.299 246.162 998.924 246.61 999.247L247.78 997.625ZM261.884 1010.28C262.331 1010.6 262.956 1010.5 263.28 1010.05C263.604 1009.61 263.504 1008.98 263.056 1008.66L261.884 1010.28ZM278.279 1019.71C277.833 1019.38 277.207 1019.48 276.882 1019.93C276.557 1020.37 276.655 1021 277.102 1021.32L278.279 1019.71ZM292.271 1032.42C292.716 1032.75 293.342 1032.66 293.669 1032.21C293.996 1031.77 293.901 1031.14 293.456 1030.81L292.271 1032.42ZM308.595 1042.02C308.152 1041.69 307.525 1041.78 307.195 1042.22C306.865 1042.67 306.956 1043.29 307.399 1043.62L308.595 1042.02ZM322.427 1054.92C322.868 1055.25 323.495 1055.16 323.828 1054.72C324.162 1054.28 324.076 1053.66 323.635 1053.32L322.427 1054.92ZM338.57 1064.75C338.133 1064.41 337.505 1064.49 337.167 1064.93C336.829 1065.37 336.91 1065.99 337.347 1066.33L338.57 1064.75ZM352.178 1077.93C352.611 1078.27 353.24 1078.2 353.583 1077.77C353.925 1077.33 353.852 1076.7 353.419 1076.36L352.178 1077.93ZM368.093 1088.12C367.664 1087.78 367.034 1087.84 366.686 1088.27C366.337 1088.7 366.402 1089.33 366.831 1089.68L368.093 1088.12ZM381.332 1101.64C381.755 1102 382.386 1101.94 382.741 1101.52C383.095 1101.09 383.04 1100.46 382.616 1100.11L381.332 1101.64ZM396.96 1112.33C396.543 1111.97 395.911 1112.02 395.549 1112.43C395.188 1112.85 395.232 1113.48 395.65 1113.84L396.96 1112.33ZM409.675 1126.24C410.085 1126.61 410.717 1126.58 411.087 1126.17C411.457 1125.76 411.424 1125.13 411.014 1124.76L409.675 1126.24ZM424.927 1137.57C424.525 1137.19 423.892 1137.21 423.514 1137.61C423.135 1138.02 423.154 1138.65 423.556 1139.03L424.927 1137.57ZM437.024 1152.01C437.417 1152.4 438.05 1152.4 438.438 1152C438.826 1151.61 438.823 1150.98 438.43 1150.59L437.024 1152.01ZM451.7 1164.05C451.318 1163.65 450.685 1163.64 450.286 1164.02C449.887 1164.4 449.874 1165.04 450.256 1165.44L451.7 1164.05ZM463.032 1179.15C463.402 1179.56 464.035 1179.6 464.444 1179.23C464.854 1178.86 464.886 1178.22 464.516 1177.81L463.032 1179.15ZM476.916 1192C476.56 1191.58 475.929 1191.52 475.507 1191.88C475.085 1192.24 475.032 1192.87 475.388 1193.29L476.916 1192ZM487.252 1207.86C487.592 1208.29 488.221 1208.37 488.655 1208.03C489.09 1207.69 489.166 1207.06 488.826 1206.62L487.252 1207.86ZM500.117 1221.64C499.794 1221.19 499.169 1221.09 498.721 1221.41C498.273 1221.73 498.171 1222.36 498.494 1222.81L500.117 1221.64ZM509.154 1238.31C509.457 1238.78 510.077 1238.91 510.539 1238.6C511.001 1238.3 511.13 1237.68 510.828 1237.22L509.154 1238.31ZM520.724 1253.16C520.445 1252.68 519.832 1252.52 519.356 1252.8C518.88 1253.08 518.72 1253.69 519 1254.17L520.724 1253.16ZM528.097 1270.64C528.351 1271.13 528.955 1271.32 529.445 1271.07C529.936 1270.81 530.127 1270.21 529.873 1269.72L528.097 1270.64ZM538.037 1286.64C537.811 1286.13 537.22 1285.91 536.715 1286.13C536.211 1286.36 535.985 1286.95 536.211 1287.46L538.037 1286.64ZM543.349 1304.81C543.543 1305.33 544.12 1305.59 544.637 1305.39C545.154 1305.2 545.416 1304.62 545.222 1304.11L543.349 1304.81ZM551.281 1321.97C551.121 1321.44 550.563 1321.14 550.034 1321.3C549.505 1321.46 549.207 1322.02 549.367 1322.55L551.281 1321.97ZM554.186 1340.59C554.31 1341.12 554.847 1341.46 555.385 1341.33C555.923 1341.21 556.259 1340.67 556.134 1340.14L554.186 1340.59ZM559.754 1358.71C559.668 1358.16 559.155 1357.79 558.61 1357.88C558.064 1357.96 557.692 1358.48 557.779 1359.02L559.754 1358.71ZM560.058 1377.48C560.107 1378.03 560.592 1378.44 561.142 1378.39C561.692 1378.34 562.099 1377.86 562.05 1377.31L560.058 1377.48ZM563.054 1396.22C563.044 1395.67 562.588 1395.23 562.036 1395.24C561.484 1395.25 561.044 1395.71 561.054 1396.26L563.054 1396.22ZM560.76 1414.86C560.732 1415.41 561.157 1415.88 561.709 1415.91C562.26 1415.94 562.73 1415.51 562.757 1414.96L560.76 1414.86ZM561.202 1433.76C561.266 1433.21 560.873 1432.71 560.324 1432.65C559.775 1432.59 559.279 1432.98 559.216 1433.53L561.202 1433.76ZM556.469 1452.12C556.371 1452.67 556.733 1453.19 557.276 1453.28C557.82 1453.38 558.34 1453.02 558.437 1452.48L556.469 1452.12ZM554.608 1470.71C554.737 1470.17 554.406 1469.63 553.869 1469.5C553.332 1469.38 552.792 1469.71 552.663 1470.24L554.608 1470.71ZM547.663 1488.74C547.504 1489.27 547.804 1489.82 548.333 1489.98C548.862 1490.14 549.419 1489.84 549.578 1489.31L547.663 1488.74ZM543.852 1506.78C544.036 1506.26 543.764 1505.69 543.244 1505.5C542.724 1505.32 542.152 1505.59 541.967 1506.11L543.852 1506.78ZM535.253 1523.67C535.044 1524.18 535.289 1524.77 535.8 1524.98C536.311 1525.18 536.895 1524.94 537.104 1524.43L535.253 1523.67ZM529.465 1541.98C529.697 1541.47 529.478 1540.88 528.976 1540.65C528.475 1540.42 527.881 1540.64 527.649 1541.14L529.465 1541.98ZM519.675 1557.57C519.424 1558.06 519.62 1558.67 520.112 1558.92C520.605 1559.17 521.207 1558.97 521.457 1558.48L519.675 1557.57ZM512.519 1575.26C512.787 1574.77 512.613 1574.17 512.131 1573.9C511.648 1573.63 511.039 1573.8 510.771 1574.29L512.519 1575.26ZM501.217 1590.78C500.933 1591.26 501.085 1591.87 501.559 1592.15C502.032 1592.44 502.646 1592.29 502.931 1591.81L501.217 1590.78ZM493.27 1607.33C493.569 1606.87 493.435 1606.25 492.97 1605.95C492.506 1605.65 491.887 1605.79 491.588 1606.25L493.27 1607.33ZM481.164 1621.95C480.853 1622.41 480.969 1623.03 481.425 1623.34C481.881 1623.65 482.503 1623.54 482.815 1623.08L481.164 1621.95ZM471.55 1639.07C471.874 1638.62 471.775 1638 471.328 1637.67C470.88 1637.35 470.255 1637.45 469.931 1637.89L471.55 1639.07ZM459.165 1652.38C458.83 1652.82 458.915 1653.45 459.355 1653.78C459.794 1654.12 460.422 1654.03 460.756 1653.59L459.165 1652.38ZM449.326 1668.27C449.67 1667.84 449.599 1667.21 449.167 1666.86C448.735 1666.52 448.106 1666.59 447.761 1667.02L449.326 1668.27ZM435.678 1681.86C435.325 1682.29 435.383 1682.92 435.808 1683.27C436.232 1683.62 436.863 1683.57 437.216 1683.14L435.678 1681.86ZM424.799 1697.77C425.16 1697.35 425.115 1696.72 424.697 1696.36C424.28 1696 423.648 1696.04 423.287 1696.46L424.799 1697.77ZM411.302 1710.06C410.933 1710.47 410.967 1711.1 411.379 1711.47C411.79 1711.84 412.422 1711.8 412.791 1711.39L411.302 1710.06ZM400.216 1725.18C400.592 1724.78 400.568 1724.14 400.163 1723.77C399.758 1723.39 399.125 1723.42 398.75 1723.82L400.216 1725.18ZM385.623 1737.75C385.241 1738.15 385.255 1738.78 385.654 1739.16C386.053 1739.54 386.686 1739.53 387.068 1739.13L385.623 1737.75ZM373.528 1753.05C373.916 1752.66 373.912 1752.03 373.519 1751.64C373.126 1751.25 372.493 1751.26 372.105 1751.65L373.528 1753.05ZM359.342 1764.4C358.949 1764.79 358.944 1765.43 359.332 1765.82C359.72 1766.21 360.353 1766.22 360.746 1765.83L359.342 1764.4ZM347.488 1778.74C347.886 1778.35 347.898 1777.72 347.515 1777.32C347.133 1776.93 346.5 1776.91 346.102 1777.3L347.488 1778.74ZM332.378 1790.32C331.975 1790.7 331.954 1791.33 332.332 1791.74C332.71 1792.14 333.343 1792.16 333.746 1791.78L332.378 1790.32ZM319.515 1804.97C319.923 1804.59 319.95 1803.96 319.578 1803.55C319.205 1803.15 318.572 1803.12 318.165 1803.49L319.515 1804.97ZM630.807 1.76787C630.236 0.947441 630.236 0.947454 630.236 0.947474C630.236 0.94749 630.236 0.947517 630.236 0.947549C630.235 0.947613 630.235 0.947705 630.235 0.947825C630.235 0.948066 630.234 0.948419 630.234 0.948883C630.232 0.949814 630.23 0.951194 630.228 0.953022C630.222 0.956679 630.215 0.962131 630.204 0.969373C630.184 0.983858 630.153 1.0055 630.111 1.03427C630.029 1.09181 629.906 1.17784 629.743 1.29205C629.417 1.52047 628.931 1.86164 628.291 2.31311C627.01 3.21603 625.111 4.56014 622.636 6.32586L623.797 7.95398C626.269 6.19053 628.165 4.84861 629.443 3.94781C630.082 3.4974 630.566 3.15728 630.891 2.92988C631.053 2.81618 631.175 2.73066 631.257 2.67363C631.298 2.64511 631.328 2.62372 631.349 2.60948C631.359 2.60237 631.367 2.59704 631.372 2.59351C631.374 2.59174 631.376 2.59042 631.377 2.58955C631.378 2.58912 631.379 2.5888 631.379 2.58859C631.379 2.58848 631.379 2.58841 631.379 2.58836C631.379 2.58834 631.379 2.58832 631.379 2.58831C631.379 2.5883 631.379 2.5883 630.807 1.76787ZM607.077 17.5467C602.504 20.8761 597.315 24.678 591.569 28.9264L592.758 30.5346C598.5 26.2892 603.684 22.4902 608.254 19.1636L607.077 17.5467ZM576.215 40.3559C571.402 43.9624 566.321 47.7929 560.991 51.8374L562.2 53.4306C567.526 49.3886 572.605 45.5605 577.414 41.9563L576.215 40.3559ZM545.917 63.3459C541.038 67.0931 535.995 70.9875 530.802 75.0229L532.029 76.6021C537.219 72.5691 542.259 68.6771 547.135 64.932L545.917 63.3459ZM515.611 86.8963C510.734 90.7308 505.747 94.6731 500.659 98.7188L501.904 100.284C506.989 96.2408 511.973 92.3008 516.847 88.4686L515.611 86.8963ZM485.769 110.628C480.839 114.593 475.829 118.646 470.747 122.781L472.01 124.333C477.089 120.199 482.096 116.149 487.023 112.186L485.769 110.628ZM456.088 134.779C451.212 138.793 446.279 142.877 441.295 147.029L442.575 148.566C447.556 144.417 452.486 140.335 457.36 136.323L456.088 134.779ZM426.666 159.288C421.841 163.355 416.975 167.481 412.075 171.663L413.373 173.184C418.27 169.005 423.133 164.882 427.955 160.817L426.666 159.288ZM397.545 184.139C392.767 188.267 387.963 192.444 383.135 196.669L384.453 198.174C389.277 193.952 394.078 189.778 398.852 185.653L397.545 184.139ZM368.748 209.342C364.018 213.536 359.27 217.773 354.511 222.05L355.847 223.538C360.604 219.264 365.348 215.03 370.075 210.838L368.748 209.342ZM340.296 234.914C335.614 239.181 330.924 243.484 326.231 247.823L327.588 249.291C332.278 244.956 336.964 240.656 341.643 236.392L340.296 234.914ZM312.21 260.88C307.581 265.224 302.952 269.6 298.328 274.006L299.708 275.454C304.328 271.051 308.953 266.679 313.579 262.338L312.21 260.88ZM284.521 287.268C279.952 291.693 275.39 296.146 270.841 300.625L272.244 302.05C276.789 297.575 281.347 293.126 285.913 288.705L284.521 287.268ZM257.266 314.108C252.765 318.619 248.279 323.154 243.813 327.711L245.242 329.111C249.703 324.558 254.185 320.027 258.682 315.521L257.266 314.108ZM230.493 341.435C226.07 346.036 221.671 350.658 217.3 355.299L218.756 356.671C223.123 352.035 227.517 347.418 231.935 342.821L230.493 341.435ZM204.261 369.289C199.929 373.986 195.629 378.701 191.365 383.432L192.85 384.771C197.11 380.046 201.405 375.337 205.731 370.645L204.261 369.289ZM178.642 397.714C174.416 402.515 170.231 407.33 166.089 412.158L167.607 413.46C171.743 408.639 175.923 403.83 180.143 399.035L178.642 397.714ZM153.728 426.762C149.625 431.677 145.571 436.603 141.57 441.537L143.124 442.797C147.118 437.87 151.166 432.951 155.263 428.043L153.728 426.762ZM129.632 456.494C125.672 461.536 121.771 466.585 117.934 471.639L119.527 472.848C123.357 467.803 127.251 462.763 131.205 457.729L129.632 456.494ZM106.499 486.981C102.706 492.165 98.9855 497.354 95.3409 502.544L96.9776 503.693C100.615 498.514 104.328 493.336 108.113 488.161L106.499 486.981ZM84.5161 518.301C80.9246 523.65 77.4189 528.998 74.0044 534.343L75.6899 535.419C79.0959 530.088 82.5931 524.753 86.1765 519.416L84.5161 518.301ZM63.9319 550.543C60.586 556.08 57.3435 561.61 54.2104 567.133L55.95 568.12C59.0736 562.614 62.3068 557.099 65.6437 551.578L63.9319 550.543ZM45.0791 583.797C42.0416 589.547 39.1297 595.285 36.35 601.008L38.1491 601.882C40.9185 596.18 43.8201 590.462 46.8476 584.731L45.0791 583.797ZM28.3292 618.324C25.7199 624.249 23.2612 630.156 20.9604 636.04L22.823 636.768C25.1131 630.911 27.5611 625.031 30.1596 619.13L28.3292 618.324ZM14.3856 654.075C12.3308 660.164 10.4563 666.224 8.77072 672.253L10.6969 672.792C12.3725 666.799 14.2365 660.772 16.2806 654.715L14.3856 654.075ZM4.12726 690.985C3.459 694.088 2.84444 697.182 2.28473 700.265L4.25253 700.622C4.80832 697.561 5.41866 694.489 6.0824 691.406L4.12726 690.985ZM2.28473 700.265C1.70383 703.464 1.24637 706.647 0.909092 709.813L2.89784 710.025C3.22991 706.908 3.68032 703.774 4.25253 700.622L2.28473 700.265ZM0.301638 728.62C0.567761 734.952 1.30698 741.221 2.49079 747.43L4.45541 747.056C3.28934 740.939 2.56179 734.768 2.29987 728.536L0.301638 728.62ZM7.26829 765.655C9.24973 771.599 11.6262 777.493 14.3708 783.342L16.1813 782.492C13.4676 776.709 11.1208 770.888 9.16564 765.023L7.26829 765.655ZM23.1338 799.838C26.2863 805.16 29.7308 810.448 33.4465 815.708L35.08 814.554C31.3927 809.334 27.9776 804.091 24.8545 798.819L23.1338 799.838ZM44.8579 830.755C48.7198 835.527 52.7927 840.279 57.0612 845.015L58.5468 843.676C54.3002 838.964 50.2503 834.239 46.4126 829.497L44.8579 830.755ZM70.1085 858.845C74.404 863.209 78.8544 867.561 83.4473 871.907L84.8218 870.454C80.2447 866.124 75.8113 861.787 71.5337 857.442L70.1085 858.845ZM97.4688 884.769C102.05 888.852 106.747 892.93 111.55 897.007L112.844 895.482C108.053 891.415 103.368 887.347 98.7994 883.276L97.4688 884.769ZM126.138 909.133C130.922 913.032 135.793 916.931 140.741 920.832L141.98 919.262C137.039 915.366 132.176 911.474 127.402 907.583L126.138 909.133ZM155.651 932.424C160.581 936.207 165.575 939.994 170.626 943.788L171.827 942.189C166.781 938.399 161.792 934.616 156.869 930.837L155.651 932.424ZM185.708 955.019C190.737 958.735 195.813 962.458 200.927 966.192L202.106 964.576C196.994 960.845 191.922 957.123 186.897 953.41L185.708 955.019ZM216.089 977.214C221.174 980.897 226.289 984.591 231.427 988.298L232.597 986.676C227.46 982.969 222.346 979.276 217.262 975.594L216.089 977.214ZM246.61 999.247C251.688 1002.91 256.782 1006.59 261.884 1010.28L263.056 1008.66C257.953 1004.97 252.859 1001.29 247.78 997.625L246.61 999.247ZM277.102 1021.32C282.159 1025.01 287.217 1028.71 292.271 1032.42L293.456 1030.81C288.399 1027.09 283.338 1023.39 278.279 1019.71L277.102 1021.32ZM307.399 1043.62C312.422 1047.37 317.434 1051.13 322.427 1054.92L323.635 1053.32C318.637 1049.53 313.621 1045.77 308.595 1042.02L307.399 1043.62ZM337.347 1066.33C342.318 1070.18 347.264 1074.04 352.178 1077.93L353.419 1076.36C348.498 1072.47 343.546 1068.6 338.57 1064.75L337.347 1066.33ZM366.831 1089.68C371.705 1093.64 376.541 1097.63 381.332 1101.64L382.616 1100.11C377.818 1096.09 372.974 1092.09 368.093 1088.12L366.831 1089.68ZM395.65 1113.84C400.38 1117.95 405.057 1122.08 409.675 1126.24L411.014 1124.76C406.386 1120.59 401.699 1116.44 396.96 1112.33L395.65 1113.84ZM423.556 1139.03C428.117 1143.32 432.608 1147.65 437.024 1152.01L438.43 1150.59C434.002 1146.21 429.499 1141.88 424.927 1137.57L423.556 1139.03ZM450.256 1165.44C454.605 1169.97 458.866 1174.54 463.032 1179.15L464.516 1177.81C460.336 1173.19 456.061 1168.6 451.7 1164.05L450.256 1165.44ZM475.388 1193.29C479.453 1198.1 483.411 1202.96 487.252 1207.86L488.826 1206.62C484.969 1201.7 480.996 1196.83 476.916 1192L475.388 1193.29ZM498.494 1222.81C502.181 1227.93 505.738 1233.09 509.154 1238.31L510.828 1237.22C507.394 1231.97 503.821 1226.78 500.117 1221.64L498.494 1222.81ZM519 1254.17C522.19 1259.6 525.226 1265.09 528.097 1270.64L529.873 1269.72C526.985 1264.14 523.932 1258.62 520.724 1253.16L519 1254.17ZM536.211 1287.46C538.771 1293.18 541.153 1298.96 543.349 1304.81L545.222 1304.11C543.011 1298.22 540.613 1292.4 538.037 1286.64L536.211 1287.46ZM549.367 1322.55C551.171 1328.49 552.78 1334.51 554.186 1340.59L556.134 1340.14C554.719 1334.01 553.098 1327.95 551.281 1321.97L549.367 1322.55ZM557.779 1359.02C558.746 1365.11 559.509 1371.26 560.058 1377.48L562.05 1377.31C561.497 1371.04 560.729 1364.84 559.754 1358.71L557.779 1359.02ZM561.054 1396.26C561.165 1402.39 561.07 1408.59 560.76 1414.86L562.757 1414.96C563.07 1408.65 563.166 1402.4 563.054 1396.22L561.054 1396.26ZM559.216 1433.53C558.507 1439.66 557.594 1445.86 556.469 1452.12L558.437 1452.48C559.569 1446.17 560.489 1439.93 561.202 1433.76L559.216 1433.53ZM552.663 1470.24C551.197 1476.35 549.533 1482.51 547.663 1488.74L549.578 1489.31C551.459 1483.05 553.133 1476.85 554.608 1470.71L552.663 1470.24ZM541.967 1506.11C539.907 1511.91 537.671 1517.76 535.253 1523.67L537.104 1524.43C539.533 1518.49 541.781 1512.61 543.852 1506.78L541.967 1506.11ZM527.649 1541.14C525.144 1546.57 522.487 1552.05 519.675 1557.57L521.457 1558.48C524.281 1552.93 526.949 1547.43 529.465 1541.98L527.649 1541.14ZM510.771 1574.29C507.737 1579.74 504.553 1585.24 501.217 1590.78L502.931 1591.81C506.278 1586.25 509.473 1580.73 512.519 1575.26L510.771 1574.29ZM491.588 1606.25C488.247 1611.44 484.773 1616.68 481.164 1621.95L482.815 1623.08C486.434 1617.79 489.919 1612.54 493.27 1607.33L491.588 1606.25ZM469.931 1637.89C466.453 1642.69 462.865 1647.52 459.165 1652.38L460.756 1653.59C464.466 1648.72 468.063 1643.88 471.55 1639.07L469.931 1637.89ZM447.761 1667.02C443.848 1671.94 439.821 1676.88 435.678 1681.86L437.216 1683.14C441.367 1678.15 445.403 1673.19 449.326 1668.27L447.761 1667.02ZM423.287 1696.46C419.385 1700.97 415.391 1705.5 411.302 1710.06L412.791 1711.39C416.887 1706.82 420.89 1702.28 424.799 1697.77L423.287 1696.46ZM398.75 1723.82C394.471 1728.44 390.095 1733.08 385.623 1737.75L387.068 1739.13C391.547 1734.45 395.93 1729.8 400.216 1725.18L398.75 1723.82ZM372.105 1751.65C367.93 1755.88 363.676 1760.13 359.342 1764.4L360.746 1765.83C365.086 1761.55 369.346 1757.29 373.528 1753.05L372.105 1751.65ZM346.102 1777.3C341.608 1781.62 337.033 1785.96 332.378 1790.32L333.746 1791.78C338.407 1787.41 342.988 1783.06 347.488 1778.74L346.102 1777.3ZM318.165 1803.49C315.755 1805.7 313.324 1807.91 310.873 1810.13L312.214 1811.61C314.669 1809.39 317.102 1807.17 319.515 1804.97L318.165 1803.49Z" fill="black"/>
</svg>
