<svg width="1106" height="1875" viewBox="0 0 1106 1875" fill="none" xmlns="http://www.w3.org/2000/svg">
<path d="M496.652 71.1076C496.161 70.8541 495.558 71.0462 495.304 71.5369C495.051 72.0275 495.243 72.6308 495.734 72.8844L496.652 71.1076ZM204.738 772.733L205.279 773.574L205.279 773.574L204.738 772.733ZM503.849 77.559C504.32 77.8468 504.936 77.6981 505.224 77.2268C505.512 76.7554 505.363 76.14 504.892 75.8521L503.849 77.559ZM521.2 86.6863C520.751 86.3648 520.126 86.4682 519.805 86.9172C519.483 87.3663 519.587 87.9909 520.036 88.3125L521.2 86.6863ZM535.361 100.052C535.788 100.402 536.418 100.339 536.768 99.9117C537.117 99.4842 537.054 98.8542 536.627 98.5045L535.361 100.052ZM551.313 111.328C550.909 110.951 550.276 110.974 549.899 111.378C549.523 111.782 549.545 112.414 549.949 112.791L551.313 111.328ZM563.702 126.494C564.08 126.897 564.712 126.917 565.115 126.539C565.518 126.161 565.539 125.529 565.161 125.126L563.702 126.494ZM577.967 139.785C577.619 139.356 576.989 139.291 576.56 139.639C576.132 139.987 576.066 140.617 576.415 141.045L577.967 139.785ZM588.01 156.47C588.325 156.924 588.948 157.037 589.402 156.722C589.855 156.407 589.968 155.784 589.654 155.33L588.01 156.47ZM600.097 171.759C599.82 171.281 599.208 171.118 598.73 171.395C598.252 171.672 598.089 172.284 598.366 172.762L600.097 171.759ZM607.329 189.861C607.564 190.36 608.159 190.575 608.659 190.34C609.159 190.105 609.373 189.51 609.138 189.01L607.329 189.861ZM616.633 206.997C616.444 206.478 615.87 206.21 615.351 206.4C614.832 206.589 614.565 207.163 614.754 207.682L616.633 206.997ZM620.523 226.115C620.664 226.649 621.21 226.969 621.745 226.828C622.279 226.688 622.598 226.141 622.458 225.607L620.523 226.115ZM626.524 244.69C626.434 244.145 625.92 243.776 625.375 243.866C624.83 243.955 624.461 244.47 624.55 245.015L626.524 244.69ZM626.792 264.117C626.831 264.668 627.309 265.083 627.86 265.044C628.411 265.005 628.826 264.526 628.786 263.976L626.792 264.117ZM629.29 283.374C629.3 282.822 628.861 282.366 628.309 282.356C627.757 282.346 627.301 282.785 627.291 283.337L629.29 283.374ZM626.114 302.561C626.058 303.111 626.457 303.602 627.006 303.659C627.556 303.716 628.047 303.316 628.104 302.767L626.114 302.561ZM625.315 322.095C625.415 321.552 625.056 321.03 624.513 320.93C623.97 320.83 623.448 321.189 623.348 321.732L625.315 322.095ZM619.121 340.654C618.982 341.188 619.301 341.735 619.836 341.875C620.37 342.014 620.916 341.695 621.056 341.16L619.121 340.654ZM615.561 359.616C615.736 359.092 615.453 358.526 614.929 358.351C614.405 358.177 613.839 358.46 613.664 358.984L615.561 359.616ZM606.96 377.194C606.754 377.706 607.002 378.289 607.515 378.495C608.027 378.701 608.61 378.453 608.816 377.941L606.96 377.194ZM601.05 395.786C601.284 395.286 601.068 394.691 600.568 394.457C600.067 394.223 599.472 394.439 599.238 394.939L601.05 395.786ZM590.679 412.114C590.421 412.602 590.607 413.208 591.095 413.466C591.584 413.724 592.189 413.537 592.447 413.049L590.679 412.114ZM582.831 430.26C583.111 429.784 582.952 429.171 582.476 428.891C582 428.611 581.387 428.77 581.107 429.246L582.831 430.26ZM571.136 445.438C570.837 445.903 570.972 446.521 571.436 446.82C571.901 447.119 572.519 446.984 572.818 446.52L571.136 445.438ZM561.802 462.954C562.118 462.501 562.007 461.877 561.554 461.562C561.101 461.246 560.478 461.357 560.162 461.81L561.802 462.954ZM549.053 477.191C548.722 477.633 548.813 478.26 549.256 478.59C549.698 478.921 550.325 478.83 550.655 478.388L549.053 477.191ZM538.63 493.969C538.974 493.536 538.903 492.907 538.471 492.563C538.039 492.219 537.41 492.291 537.066 492.723L538.63 493.969ZM524.939 507.523C524.583 507.946 524.637 508.577 525.059 508.932C525.482 509.288 526.112 509.234 526.468 508.812L524.939 507.523ZM513.754 523.514C514.12 523.101 514.082 522.469 513.669 522.103C513.256 521.736 512.624 521.774 512.258 522.187L513.754 523.514ZM499.111 536.652C498.735 537.057 498.757 537.689 499.162 538.066C499.566 538.442 500.199 538.419 500.575 538.015L499.111 536.652ZM487.42 551.849C487.805 551.452 487.795 550.819 487.399 550.434C487.003 550.05 486.37 550.059 485.985 550.455L487.42 551.849ZM472.092 564.465C471.699 564.853 471.696 565.486 472.084 565.879C472.472 566.272 473.105 566.275 473.498 565.887L472.092 564.465ZM459.736 579.234C460.136 578.853 460.151 578.22 459.77 577.821C459.39 577.421 458.757 577.405 458.357 577.786L459.736 579.234ZM444.309 590.931C443.902 591.304 443.876 591.937 444.25 592.343C444.624 592.75 445.256 592.776 445.663 592.403L444.309 590.931ZM430.912 605.742C431.324 605.375 431.361 604.743 430.994 604.33C430.627 603.917 429.995 603.88 429.583 604.248L430.912 605.742ZM415.306 616.754C414.888 617.115 414.841 617.746 415.202 618.164C415.563 618.582 416.194 618.629 416.612 618.268L415.306 616.754ZM401.925 630.761C402.348 630.406 402.404 629.775 402.049 629.352C401.694 628.929 401.063 628.873 400.64 629.228L401.925 630.761ZM385.378 641.847C384.95 642.196 384.886 642.826 385.235 643.254C385.584 643.682 386.213 643.746 386.642 643.397L385.378 641.847ZM371.709 655.416C372.141 655.073 372.213 654.444 371.87 654.011C371.526 653.579 370.897 653.507 370.465 653.851L371.709 655.416ZM355.416 665.665C354.98 666.003 354.901 666.631 355.239 667.068C355.578 667.504 356.206 667.583 356.642 667.245L355.416 665.665ZM341.052 679.194C341.492 678.861 341.578 678.234 341.245 677.793C340.911 677.353 340.284 677.267 339.844 677.6L341.052 679.194ZM324.116 689.379C323.672 689.708 323.578 690.334 323.907 690.778C324.236 691.221 324.862 691.315 325.306 690.986L324.116 689.379ZM310.036 702.176C310.483 701.851 310.583 701.226 310.259 700.779C309.934 700.332 309.309 700.232 308.862 700.557L310.036 702.176ZM293.148 711.837C292.698 712.157 292.593 712.781 292.913 713.231C293.232 713.682 293.857 713.787 294.307 713.467L293.148 711.837ZM278.112 724.861C278.565 724.545 278.677 723.922 278.361 723.469C278.045 723.016 277.422 722.904 276.969 723.22L278.112 724.861ZM261.056 734.2C260.601 734.512 260.484 735.134 260.795 735.59C261.107 736.046 261.729 736.163 262.185 735.851L261.056 734.2ZM246.44 746.521C246.898 746.213 247.02 745.592 246.712 745.133C246.404 744.675 245.783 744.553 245.324 744.861L246.44 746.521ZM229.184 755.608C228.723 755.913 228.596 756.533 228.9 756.994C229.204 757.455 229.825 757.582 230.285 757.277L229.184 755.608ZM213.718 768.12C214.182 767.82 214.313 767.201 214.013 766.737C213.712 766.274 213.093 766.142 212.63 766.443L213.718 768.12ZM195.889 777.372C195.431 777.682 195.311 778.303 195.621 778.761C195.93 779.218 196.552 779.338 197.009 779.029L195.889 777.372ZM181.486 790.075C181.928 789.744 182.018 789.117 181.687 788.675C181.355 788.233 180.729 788.144 180.287 788.475L181.486 790.075ZM166.012 799.765C165.588 800.119 165.532 800.749 165.886 801.173C166.24 801.597 166.871 801.654 167.294 801.299L166.012 799.765ZM153.008 814.015C153.409 813.635 153.425 813.002 153.044 812.601C152.664 812.201 152.031 812.185 151.63 812.565L153.008 814.015ZM138.526 825.918C138.153 826.326 138.182 826.959 138.59 827.331C138.998 827.703 139.631 827.674 140.003 827.266L138.526 825.918ZM128.049 841.458C128.387 841.022 128.307 840.394 127.87 840.056C127.433 839.718 126.805 839.798 126.467 840.234L128.049 841.458ZM115.561 855.735C115.265 856.201 115.403 856.819 115.869 857.116C116.335 857.412 116.953 857.274 117.249 856.808L115.561 855.735ZM108.146 872.85C108.394 872.357 108.194 871.756 107.701 871.508C107.207 871.261 106.606 871.46 106.359 871.954L108.146 872.85ZM98.8071 889.336C98.6157 889.854 98.8806 890.429 99.3987 890.621C99.9168 890.812 100.492 890.547 100.683 890.029L98.8071 889.336ZM95.2721 907.727C95.403 907.191 95.0741 906.65 94.5375 906.519C94.001 906.388 93.4599 906.717 93.3291 907.254L95.2721 907.727ZM89.9269 925.83C89.8589 926.379 90.2481 926.878 90.7962 926.946C91.3442 927.014 91.8437 926.625 91.9116 926.077L89.9269 925.83ZM90.662 944.59C90.6688 944.038 90.2267 943.585 89.6745 943.578C89.1222 943.571 88.669 944.013 88.6621 944.566L90.662 944.59ZM89.4218 963.447C89.4722 963.997 89.9589 964.402 90.5089 964.352C91.0589 964.301 91.4639 963.815 91.4135 963.265L89.4218 963.447ZM93.98 981.644C93.8788 981.102 93.3566 980.744 92.8136 980.845C92.2707 980.946 91.9127 981.468 92.0139 982.011L93.98 981.644ZM96.2742 1000.46C96.4203 1000.99 96.9705 1001.31 97.5031 1001.16C98.0357 1001.01 98.349 1000.46 98.203 999.931L96.2742 1000.46ZM103.772 1017.65C103.588 1017.13 103.017 1016.85 102.496 1017.04C101.976 1017.22 101.703 1017.79 101.887 1018.31L103.772 1017.65ZM108.763 1035.92C108.98 1036.43 109.568 1036.66 110.076 1036.45C110.584 1036.23 110.82 1035.64 110.603 1035.13L108.763 1035.92ZM118.411 1052.09C118.167 1051.6 117.567 1051.4 117.072 1051.64C116.577 1051.88 116.373 1052.48 116.618 1052.98L118.411 1052.09ZM125.335 1069.61C125.603 1070.09 126.211 1070.27 126.694 1070C127.177 1069.73 127.352 1069.12 127.084 1068.64L125.335 1069.61ZM136.597 1084.96C136.309 1084.48 135.694 1084.34 135.223 1084.62C134.751 1084.91 134.603 1085.53 134.891 1086L136.597 1084.96ZM144.88 1101.68C145.185 1102.14 145.805 1102.27 146.266 1101.96C146.726 1101.66 146.852 1101.04 146.547 1100.58L144.88 1101.68ZM157.33 1116.27C157.01 1115.82 156.386 1115.72 155.936 1116.04C155.485 1116.36 155.38 1116.98 155.7 1117.43L157.33 1116.27ZM166.664 1132.38C166.996 1132.82 167.623 1132.91 168.064 1132.58C168.505 1132.25 168.593 1131.62 168.26 1131.18L166.664 1132.38ZM179.773 1146.02C179.429 1145.59 178.799 1145.52 178.367 1145.86C177.935 1146.2 177.864 1146.83 178.208 1147.27L179.773 1146.02ZM190.187 1161.95C190.541 1162.37 191.171 1162.43 191.595 1162.08C192.019 1161.72 192.076 1161.09 191.722 1160.67L190.187 1161.95ZM203.753 1174.78C203.391 1174.36 202.759 1174.32 202.342 1174.68C201.926 1175.04 201.882 1175.67 202.244 1176.09L203.753 1174.78ZM214.817 1190.26C215.187 1190.67 215.82 1190.7 216.229 1190.33C216.639 1189.96 216.671 1189.33 216.301 1188.92L214.817 1190.26ZM228.986 1202.71C228.609 1202.31 227.976 1202.29 227.573 1202.66C227.17 1203.04 227.148 1203.67 227.526 1204.08L228.986 1202.71ZM240.389 1217.62C240.772 1218.02 241.405 1218.03 241.802 1217.65C242.2 1217.26 242.212 1216.63 241.828 1216.23L240.389 1217.62ZM255.069 1229.77C254.68 1229.38 254.047 1229.37 253.655 1229.76C253.263 1230.15 253.26 1230.78 253.649 1231.18L255.069 1229.77ZM266.909 1244.37C267.303 1244.76 267.936 1244.76 268.323 1244.36C268.711 1243.97 268.705 1243.33 268.311 1242.95L266.909 1244.37ZM281.718 1255.97C281.32 1255.59 280.687 1255.6 280.304 1256C279.922 1256.4 279.934 1257.03 280.333 1257.41L281.718 1255.97ZM294.063 1270.46C294.465 1270.83 295.098 1270.81 295.476 1270.41C295.854 1270.01 295.835 1269.38 295.432 1269L294.063 1270.46ZM309.12 1281.74C308.714 1281.36 308.081 1281.39 307.707 1281.79C307.333 1282.2 307.358 1282.83 307.764 1283.21L309.12 1281.74ZM321.589 1295.83C321.998 1296.2 322.631 1296.17 323.001 1295.76C323.372 1295.35 323.341 1294.72 322.931 1294.35L321.589 1295.83ZM336.975 1306.96C336.563 1306.59 335.931 1306.63 335.563 1307.04C335.196 1307.45 335.233 1308.08 335.645 1308.45L336.975 1306.96ZM349.704 1320.87C350.119 1321.24 350.751 1321.2 351.115 1320.78C351.479 1320.37 351.438 1319.73 351.022 1319.37L349.704 1320.87ZM365.132 1331.66C364.714 1331.29 364.083 1331.34 363.721 1331.76C363.36 1332.18 363.406 1332.81 363.824 1333.17L365.132 1331.66ZM378.113 1345.45C378.533 1345.81 379.164 1345.76 379.523 1345.34C379.882 1344.92 379.832 1344.28 379.412 1343.93L378.113 1345.45ZM393.738 1356.09C393.316 1355.73 392.685 1355.78 392.329 1356.2C391.973 1356.63 392.026 1357.26 392.448 1357.61L393.738 1356.09ZM406.793 1369.65C407.217 1370.01 407.848 1369.95 408.202 1369.53C408.556 1369.1 408.499 1368.47 408.075 1368.12L406.793 1369.65ZM422.529 1380.13C422.103 1379.78 421.473 1379.84 421.121 1380.26C420.769 1380.69 420.829 1381.32 421.254 1381.67L422.529 1380.13ZM435.784 1393.63C436.211 1393.98 436.841 1393.92 437.191 1393.49C437.541 1393.06 437.479 1392.43 437.052 1392.08L435.784 1393.63ZM451.569 1403.93C451.141 1403.59 450.511 1403.65 450.162 1404.08C449.814 1404.51 449.879 1405.14 450.307 1405.49L451.569 1403.93ZM464.897 1417.31C465.327 1417.65 465.956 1417.59 466.303 1417.16C466.65 1416.73 466.583 1416.1 466.154 1415.75L464.897 1417.31ZM480.789 1427.53C480.358 1427.19 479.729 1427.26 479.383 1427.69C479.037 1428.12 479.106 1428.75 479.537 1429.09L480.789 1427.53ZM494.205 1440.83C494.637 1441.18 495.266 1441.11 495.611 1440.67C495.955 1440.24 495.885 1439.61 495.453 1439.27L494.205 1440.83ZM510.137 1450.96C509.704 1450.62 509.075 1450.69 508.732 1451.12C508.388 1451.55 508.46 1452.18 508.893 1452.53L510.137 1450.96ZM523.583 1464.18C524.016 1464.52 524.645 1464.45 524.988 1464.01C525.33 1463.58 525.257 1462.95 524.824 1462.61L523.583 1464.18ZM539.586 1474.28C539.153 1473.93 538.524 1474.01 538.182 1474.44C537.84 1474.88 537.914 1475.5 538.347 1475.85L539.586 1474.28ZM553.105 1487.48C553.539 1487.82 554.168 1487.75 554.51 1487.31C554.851 1486.88 554.777 1486.25 554.343 1485.91L553.105 1487.48ZM569.055 1497.49C568.621 1497.15 567.992 1497.22 567.651 1497.65C567.309 1498.09 567.385 1498.72 567.819 1499.06L569.055 1497.49ZM582.604 1510.68C583.038 1511.02 583.667 1510.95 584.008 1510.51C584.349 1510.08 584.274 1509.45 583.84 1509.11L582.604 1510.68ZM598.642 1520.75C598.208 1520.41 597.579 1520.48 597.238 1520.91C596.896 1521.35 596.971 1521.98 597.406 1522.32L598.642 1520.75ZM612.111 1533.89C612.545 1534.23 613.173 1534.15 613.515 1533.72C613.857 1533.29 613.782 1532.66 613.348 1532.32L612.111 1533.89ZM628.089 1543.93C627.655 1543.59 627.027 1543.67 626.685 1544.1C626.343 1544.53 626.417 1545.16 626.85 1545.5L628.089 1543.93ZM641.66 1557.2C642.093 1557.55 642.722 1557.47 643.065 1557.04C643.408 1556.61 643.335 1555.98 642.902 1555.64L641.66 1557.2ZM657.56 1567.26C657.127 1566.92 656.498 1566.99 656.155 1567.42C655.811 1567.85 655.883 1568.48 656.315 1568.83L657.56 1567.26ZM670.958 1580.49C671.389 1580.84 672.018 1580.77 672.363 1580.33C672.708 1579.9 672.638 1579.27 672.206 1578.93L670.958 1580.49ZM686.977 1590.77C686.546 1590.42 685.917 1590.49 685.571 1590.92C685.225 1591.35 685.293 1591.98 685.724 1592.32L686.977 1590.77ZM700.265 1604.06C700.694 1604.41 701.323 1604.34 701.671 1603.91C702.019 1603.48 701.953 1602.85 701.524 1602.51L700.265 1604.06ZM716.042 1614.32C715.614 1613.97 714.984 1614.04 714.635 1614.46C714.285 1614.89 714.348 1615.52 714.776 1615.87L716.042 1614.32ZM729.413 1627.9C729.839 1628.26 730.469 1628.2 730.821 1627.77C731.173 1627.35 731.113 1626.71 730.687 1626.36L729.413 1627.9ZM745.022 1638.29C744.599 1637.93 743.968 1637.99 743.614 1638.41C743.259 1638.83 743.315 1639.46 743.739 1639.82L745.022 1638.29ZM758.1 1651.93C758.521 1652.28 759.152 1652.23 759.51 1651.81C759.867 1651.39 759.816 1650.76 759.395 1650.4L758.1 1651.93ZM773.775 1662.72C773.357 1662.35 772.726 1662.4 772.365 1662.82C772.004 1663.24 772.05 1663.87 772.468 1664.23L773.775 1662.72ZM786.41 1676.39C786.824 1676.75 787.456 1676.71 787.821 1676.3C788.186 1675.88 788.146 1675.25 787.732 1674.88L786.41 1676.39ZM801.939 1687.54C801.529 1687.17 800.896 1687.2 800.527 1687.61C800.157 1688.02 800.19 1688.65 800.6 1689.02L801.939 1687.54ZM814.455 1701.66C814.86 1702.04 815.493 1702.02 815.868 1701.61C816.243 1701.2 816.218 1700.57 815.813 1700.2L814.455 1701.66ZM829.364 1712.92C828.964 1712.54 828.331 1712.55 827.95 1712.95C827.569 1713.35 827.584 1713.98 827.984 1714.37L829.364 1712.92ZM841.656 1727.64C842.048 1728.03 842.681 1728.03 843.07 1727.63C843.458 1727.24 843.455 1726.61 843.062 1726.22L841.656 1727.64ZM856.001 1739.29C855.617 1738.89 854.984 1738.88 854.587 1739.27C854.191 1739.65 854.181 1740.28 854.565 1740.68L856.001 1739.29ZM867.717 1754.62C868.091 1755.03 868.723 1755.05 869.13 1754.68C869.537 1754.31 869.564 1753.67 869.191 1753.27L867.717 1754.62ZM881.488 1767.09C881.128 1766.67 880.497 1766.62 880.078 1766.98C879.66 1767.34 879.613 1767.97 879.973 1768.39L881.488 1767.09ZM892.115 1783.07C892.457 1783.5 893.086 1783.57 893.519 1783.23C893.952 1782.89 894.025 1782.26 893.682 1781.83L892.115 1783.07ZM904.776 1796.55C904.456 1796.1 903.831 1796 903.382 1796.32C902.932 1796.64 902.827 1797.27 903.148 1797.72L904.776 1796.55ZM913.715 1813.63C914.003 1814.1 914.619 1814.25 915.09 1813.96C915.561 1813.67 915.709 1813.06 915.42 1812.59L913.715 1813.63ZM924.421 1828.82C924.177 1828.33 923.577 1828.13 923.082 1828.37C922.587 1828.61 922.383 1829.21 922.627 1829.71L924.421 1828.82ZM929.829 1846.94C930.006 1847.46 930.574 1847.75 931.097 1847.57C931.62 1847.39 931.901 1846.82 931.724 1846.3L929.829 1846.94ZM936.173 1864.82C936.099 1864.27 935.596 1863.89 935.048 1863.96C934.501 1864.03 934.117 1864.54 934.191 1865.08L936.173 1864.82ZM496.193 71.996C495.734 72.8844 495.734 72.8843 495.734 72.8843C495.734 72.8843 495.734 72.8843 495.734 72.8843C495.734 72.8843 495.734 72.8844 495.734 72.8844C495.734 72.8845 495.734 72.8848 495.735 72.8851C495.736 72.8857 495.738 72.8867 495.741 72.8881C495.746 72.8908 495.754 72.8951 495.765 72.9009C495.788 72.9125 495.822 72.9303 495.867 72.9541C495.957 73.0019 496.094 73.0741 496.273 73.1708C496.633 73.3641 497.168 73.6555 497.863 74.0449C499.254 74.8237 501.288 75.9947 503.849 77.559L504.892 75.8521C502.307 74.2739 500.252 73.0901 498.841 72.2998C498.135 71.9046 497.59 71.6078 497.22 71.4091C497.036 71.3098 496.895 71.235 496.799 71.1848C496.752 71.1597 496.715 71.1407 496.691 71.1278C496.678 71.1214 496.669 71.1165 496.663 71.1131C496.659 71.1114 496.657 71.1101 496.655 71.1092C496.654 71.1088 496.653 71.1084 496.653 71.1081C496.653 71.108 496.652 71.1079 496.652 71.1078C496.652 71.1078 496.652 71.1077 496.652 71.1077C496.652 71.1077 496.652 71.1076 496.193 71.996ZM520.036 88.3125C524.731 91.6745 529.902 95.5873 535.361 100.052L536.627 98.5045C531.133 94.01 525.927 90.0712 521.2 86.6863L520.036 88.3125ZM549.949 112.791C554.488 117.021 559.102 121.588 563.702 126.494L565.161 125.126C560.528 120.185 555.882 115.586 551.313 111.328L549.949 112.791ZM576.415 141.045C580.377 145.924 584.262 151.065 588.01 156.47L589.654 155.33C585.875 149.882 581.959 144.7 577.967 139.785L576.415 141.045ZM598.366 172.762C601.539 178.235 604.542 183.935 607.329 189.861L609.138 189.01C606.327 183.03 603.297 177.28 600.097 171.759L598.366 172.762ZM614.754 207.682C616.921 213.628 618.858 219.772 620.523 226.115L622.458 225.607C620.776 219.203 618.821 212.999 616.633 206.997L614.754 207.682ZM624.55 245.015C625.57 251.213 626.327 257.58 626.792 264.117L628.786 263.976C628.318 257.376 627.553 250.948 626.524 244.69L624.55 245.015ZM627.291 283.337C627.176 289.603 626.792 296.011 626.114 302.561L628.104 302.767C628.787 296.161 629.175 289.696 629.29 283.374L627.291 283.337ZM623.348 321.732C622.205 327.921 620.802 334.229 619.121 340.654L621.056 341.16C622.749 334.688 624.163 328.333 625.315 322.095L623.348 321.732ZM613.664 358.984C611.672 364.958 609.442 371.028 606.96 377.194L608.816 377.941C611.312 371.738 613.556 365.63 615.561 359.616L613.664 358.984ZM599.238 394.939C596.597 400.588 593.747 406.313 590.679 412.114L592.447 413.049C595.53 407.22 598.394 401.466 601.05 395.786L599.238 394.939ZM581.107 429.246C577.968 434.582 574.647 439.979 571.136 445.438L572.818 446.52C576.343 441.039 579.678 435.62 582.831 430.26L581.107 429.246ZM560.162 461.81C556.622 466.886 552.921 472.013 549.053 477.191L550.655 478.388C554.536 473.193 558.25 468.048 561.802 462.954L560.162 461.81ZM537.066 492.723C533.172 497.613 529.131 502.546 524.939 507.523L526.468 508.812C530.672 503.821 534.725 498.873 538.63 493.969L537.066 492.723ZM512.258 522.187C508.015 526.97 503.634 531.792 499.111 536.652L500.575 538.015C505.108 533.143 509.5 528.309 513.754 523.514L512.258 522.187ZM485.985 550.455C481.483 555.09 476.853 559.76 472.092 564.465L473.498 565.887C478.268 561.173 482.908 556.494 487.42 551.849L485.985 550.455ZM458.357 577.786C453.786 582.139 449.104 586.52 444.309 590.931L445.663 592.403C450.466 587.985 455.156 583.595 459.736 579.234L458.357 577.786ZM429.583 604.248C424.923 608.392 420.165 612.56 415.306 616.754L416.612 618.268C421.479 614.068 426.245 609.893 430.912 605.742L429.583 604.248ZM400.64 629.228C395.653 633.41 390.566 637.617 385.378 641.847L386.642 643.397C391.837 639.161 396.931 634.949 401.925 630.761L400.64 629.228ZM370.465 653.851C365.535 657.768 360.519 661.706 355.416 665.665L356.642 667.245C361.751 663.282 366.773 659.339 371.709 655.416L370.465 653.851ZM339.844 677.6C334.686 681.507 329.444 685.433 324.116 689.379L325.306 690.986C330.64 687.036 335.888 683.106 341.052 679.194L339.844 677.6ZM308.862 700.557C303.701 704.3 298.464 708.06 293.148 711.837L294.307 713.467C299.627 709.686 304.87 705.923 310.036 702.176L308.862 700.557ZM276.969 723.22C271.737 726.864 266.433 730.525 261.056 734.2L262.185 735.851C267.567 732.172 272.875 728.509 278.112 724.861L276.969 723.22ZM245.324 744.861C240.013 748.429 234.633 752.011 229.184 755.608L230.285 757.277C235.739 753.677 241.123 750.092 246.44 746.521L245.324 744.861ZM212.63 766.443C209.836 768.256 207.025 770.072 204.196 771.893L205.279 773.574C208.109 771.753 210.923 769.935 213.718 768.12L212.63 766.443ZM204.196 771.893C201.37 773.711 198.601 775.538 195.889 777.372L197.009 779.029C199.709 777.203 202.465 775.385 205.279 773.574L204.196 771.893ZM180.287 788.475C175.309 792.207 170.552 795.971 166.012 799.765L167.294 801.299C171.806 797.529 176.535 793.787 181.486 790.075L180.287 788.475ZM151.63 812.565C146.988 816.978 142.621 821.429 138.526 825.918L140.003 827.266C144.066 822.814 148.398 818.396 153.008 814.015L151.63 812.565ZM126.467 840.234C122.504 845.357 118.871 850.524 115.561 855.735L117.249 856.808C120.525 851.65 124.122 846.533 128.049 841.458L126.467 840.234ZM106.359 871.954C103.477 877.7 100.964 883.495 98.8071 889.336L100.683 890.029C102.814 884.258 105.298 878.531 108.146 872.85L106.359 871.954ZM93.3291 907.254C91.8298 913.401 90.7003 919.594 89.9269 925.83L91.9116 926.077C92.6757 919.916 93.7914 913.799 95.2721 907.727L93.3291 907.254ZM88.6621 944.566C88.5842 950.822 88.842 957.116 89.4218 963.447L91.4135 963.265C90.8397 957 90.585 950.775 90.662 944.59L88.6621 944.566ZM92.0139 982.011C93.1554 988.131 94.5794 994.282 96.2742 1000.46L98.203 999.931C96.5221 993.804 95.1108 987.707 93.98 981.644L92.0139 982.011ZM101.887 1018.31C103.954 1024.16 106.249 1030.03 108.763 1035.92L110.603 1035.13C108.105 1029.28 105.825 1023.45 103.772 1017.65L101.887 1018.31ZM116.618 1052.98C119.344 1058.51 122.252 1064.05 125.335 1069.61L127.084 1068.64C124.016 1063.11 121.123 1057.59 118.411 1052.09L116.618 1052.98ZM134.891 1086C138.078 1091.21 141.41 1096.44 144.88 1101.68L146.547 1100.58C143.09 1095.36 139.771 1090.15 136.597 1084.96L134.891 1086ZM155.7 1117.43C159.238 1122.41 162.894 1127.39 166.664 1132.38L168.26 1131.18C164.501 1126.2 160.856 1121.23 157.33 1116.27L155.7 1117.43ZM178.208 1147.27C182.1 1152.15 186.094 1157.05 190.187 1161.95L191.722 1160.67C187.639 1155.78 183.654 1150.89 179.773 1146.02L178.208 1147.27ZM202.244 1176.09C206.351 1180.81 210.543 1185.53 214.817 1190.26L216.301 1188.92C212.035 1184.2 207.851 1179.49 203.753 1174.78L202.244 1176.09ZM227.526 1204.08C231.744 1208.59 236.033 1213.1 240.389 1217.62L241.828 1216.23C237.48 1211.72 233.198 1207.21 228.986 1202.71L227.526 1204.08ZM253.649 1231.18C258.011 1235.57 262.432 1239.97 266.909 1244.37L268.311 1242.95C263.84 1238.55 259.425 1234.16 255.069 1229.77L253.649 1231.18ZM280.333 1257.41C284.86 1261.76 289.437 1266.11 294.063 1270.46L295.432 1269C290.812 1264.66 286.239 1260.31 281.718 1255.97L280.333 1257.41ZM307.764 1283.21C312.332 1287.42 316.941 1291.63 321.589 1295.83L322.931 1294.35C318.288 1290.15 313.683 1285.94 309.12 1281.74L307.764 1283.21ZM335.645 1308.45C340.298 1312.59 344.985 1316.73 349.704 1320.87L351.022 1319.37C346.307 1315.23 341.624 1311.1 336.975 1306.96L335.645 1308.45ZM363.824 1333.17C368.559 1337.26 373.324 1341.36 378.113 1345.45L379.412 1343.93C374.625 1339.84 369.864 1335.75 365.132 1331.66L363.824 1333.17ZM392.448 1357.61C397.209 1361.63 401.991 1365.65 406.793 1369.65L408.075 1368.12C403.276 1364.11 398.496 1360.1 393.738 1356.09L392.448 1357.61ZM421.254 1381.67C426.082 1385.66 430.926 1389.65 435.784 1393.63L437.052 1392.08C432.196 1388.1 427.354 1384.12 422.529 1380.13L421.254 1381.67ZM450.307 1405.49C455.16 1409.43 460.024 1413.37 464.897 1417.31L466.154 1415.75C461.283 1411.82 456.42 1407.88 451.569 1403.93L450.307 1405.49ZM479.537 1429.09C484.421 1433.01 489.312 1436.93 494.205 1440.83L495.453 1439.27C490.561 1435.36 485.672 1431.45 480.789 1427.53L479.537 1429.09ZM508.893 1452.53C513.79 1456.42 518.687 1460.3 523.583 1464.18L524.824 1462.61C519.93 1458.73 515.033 1454.85 510.137 1450.96L508.893 1452.53ZM538.347 1475.85C543.272 1479.73 548.193 1483.61 553.105 1487.48L554.343 1485.91C549.43 1482.04 544.511 1478.16 539.586 1474.28L538.347 1475.85ZM567.819 1499.06C572.758 1502.94 577.688 1506.82 582.604 1510.68L583.84 1509.11C578.924 1505.25 573.994 1501.37 569.055 1497.49L567.819 1499.06ZM597.406 1522.32C602.324 1526.19 607.227 1530.04 612.111 1533.89L613.348 1532.32C608.464 1528.47 603.561 1524.61 598.642 1520.75L597.406 1522.32ZM626.85 1545.5C631.811 1549.42 636.748 1553.32 641.66 1557.2L642.902 1555.64C637.989 1551.75 633.05 1547.85 628.089 1543.93L626.85 1545.5ZM656.315 1568.83C661.227 1572.73 666.109 1576.62 670.958 1580.49L672.206 1578.93C667.355 1575.05 662.472 1571.16 657.56 1567.26L656.315 1568.83ZM685.724 1592.32C690.609 1596.25 695.457 1600.17 700.265 1604.06L701.524 1602.51C696.714 1598.61 691.864 1594.7 686.977 1590.77L685.724 1592.32ZM714.776 1615.87C719.704 1619.9 724.585 1623.91 729.413 1627.9L730.687 1626.36C725.856 1622.37 720.973 1618.36 716.042 1614.32L714.776 1615.87ZM743.739 1639.82C748.586 1643.88 753.374 1647.91 758.1 1651.93L759.395 1650.4C754.665 1646.38 749.873 1642.35 745.022 1638.29L743.739 1639.82ZM772.468 1664.23C777.188 1668.31 781.836 1672.36 786.41 1676.39L787.732 1674.88C783.153 1670.85 778.499 1666.8 773.775 1662.72L772.468 1664.23ZM800.6 1689.02C805.312 1693.27 809.932 1697.48 814.455 1701.66L815.813 1700.2C811.283 1696.01 806.657 1691.79 801.939 1687.54L800.6 1689.02ZM827.984 1714.37C832.663 1718.83 837.223 1723.25 841.656 1727.64L843.062 1726.22C838.621 1721.82 834.052 1717.39 829.364 1712.92L827.984 1714.37ZM854.565 1740.68C859.111 1745.38 863.498 1750.02 867.717 1754.62L869.191 1753.27C864.959 1748.66 860.559 1744 856.001 1739.29L854.565 1740.68ZM879.973 1768.39C884.24 1773.35 888.291 1778.24 892.115 1783.07L893.682 1781.83C889.84 1776.98 885.772 1772.06 881.488 1767.09L879.973 1768.39ZM903.148 1797.72C906.994 1803.11 910.522 1808.42 913.715 1813.63L915.42 1812.59C912.201 1807.33 908.646 1801.98 904.776 1796.55L903.148 1797.72ZM922.627 1829.71C925.526 1835.59 927.936 1841.34 929.829 1846.94L931.724 1846.3C929.799 1840.6 927.354 1834.78 924.421 1828.82L922.627 1829.71ZM934.191 1865.08C934.6 1868.11 934.829 1871.09 934.874 1874.01L936.874 1873.98C936.827 1870.97 936.592 1867.92 936.173 1864.82L934.191 1865.08Z" fill="black"/>
<path d="M403.88 1.24245C395.895 1.33354 438.463 57.7971 449.003 71.7136C451.408 72.4882 491.441 46.7653 492.24 46.7562M403.88 1.24245C411.864 1.15136 509.6 28.5109 513.27 35.2869L496.186 42.7007M403.88 1.24245L496.186 42.7007M403.88 1.24245L492.24 46.7562M496.186 42.7007C496.198 43.77 496.225 46.0691 496.232 46.7107C496.241 47.5127 493.038 46.7471 492.24 46.7562" stroke="black" stroke-width="2"/>
</svg>
